<svg xmlns="http://www.w3.org/2000/svg" xmlns:xlink="http://www.w3.org/1999/xlink" width="200" zoomAndPan="magnify" viewBox="0 0 150 134.249994" height="179" preserveAspectRatio="xMidYMid meet" version="1.0"><defs><g/><clipPath id="75be90dac8"><path d="M 0.417969 0 L 73 0 L 73 133.503906 L 0.417969 133.503906 Z M 0.417969 0 " clip-rule="nonzero"/></clipPath><clipPath id="a3b3081986"><path d="M 77 0 L 149.582031 0 L 149.582031 133.503906 L 77 133.503906 Z M 77 0 " clip-rule="nonzero"/></clipPath><clipPath id="b904b1dec0"><path d="M 28.199219 23.0625 L 121.429688 23.0625 L 121.429688 116.292969 L 28.199219 116.292969 Z M 28.199219 23.0625 " clip-rule="nonzero"/></clipPath><clipPath id="36a7f99aad"><path d="M 74.9375 23.0625 C 49.125 23.0625 28.199219 43.988281 28.199219 69.800781 C 28.199219 95.613281 49.125 116.535156 74.9375 116.535156 C 100.75 116.535156 121.675781 95.613281 121.675781 69.800781 C 121.675781 43.988281 100.75 23.0625 74.9375 23.0625 Z M 74.9375 23.0625 " clip-rule="nonzero"/></clipPath><clipPath id="22bb370854"><path d="M 52.816406 29.542969 L 96.820312 29.542969 L 96.820312 54.902344 L 52.816406 54.902344 Z M 52.816406 29.542969 " clip-rule="nonzero"/></clipPath><clipPath id="4083c4120f"><path d="M 61.082031 88 L 75 88 L 75 106 L 61.082031 106 Z M 61.082031 88 " clip-rule="nonzero"/></clipPath><clipPath id="c9bc46d78b"><path d="M 75 90 L 88.679688 90 L 88.679688 106.996094 L 75 106.996094 Z M 75 90 " clip-rule="nonzero"/></clipPath><clipPath id="5a77922b71"><path d="M 75 83.875 L 76 83.875 L 76 88 L 75 88 Z M 75 83.875 " clip-rule="nonzero"/></clipPath></defs><g clip-path="url(#75be90dac8)"><path fill="#e69c10" d="M 56.441406 9.066406 L 45.039062 17.226562 L 42.449219 15.796875 L 42.945312 12.882812 Z M 42.96875 11.5 L 44.078125 9.058594 L 47.582031 1.332031 L 48.988281 0.0273438 L 48.730469 1.933594 Z M 47.871094 11.09375 L 56 4.148438 L 57.765625 3.628906 L 56.910156 5.226562 Z M 46.128906 18.070312 L 57.199219 19.542969 L 58.851562 20.527344 L 56.957031 20.8125 Z M 49.507812 14.496094 L 59.734375 11.097656 L 61.515625 11.429688 L 60.007812 12.484375 Z M 49.503906 5.964844 L 46.992188 11.105469 L 43.070312 12.214844 Z M 54.535156 16.421875 L 45.632812 17.550781 L 48.953125 15.175781 Z M 51.453125 21.761719 C 48.152344 19.917969 44.851562 18.070312 41.550781 16.226562 C 42.171875 12.5 42.789062 8.769531 43.40625 5.039062 C 41.507812 8.4375 36.75 13.394531 39.246094 16.914062 C 39.96875 16.707031 40.695312 16.5 41.417969 16.292969 C 40.804688 16.726562 40.191406 17.164062 39.574219 17.601562 C 40.765625 21.75 47.613281 21.125 51.453125 21.761719 Z M 49.816406 24.136719 C 45.566406 22.460938 41.316406 20.785156 37.066406 19.109375 C 37.203125 14.542969 37.339844 9.976562 37.476562 5.410156 C 35.753906 9.785156 30.855469 16.496094 34.414062 20.308594 C 35.246094 19.941406 36.082031 19.574219 36.917969 19.207031 C 36.25 19.828125 35.585938 20.453125 34.917969 21.074219 C 37.015625 25.847656 45.117188 23.996094 49.816406 24.136719 Z M 45.414062 27.371094 C 41.074219 25.953125 36.726562 24.539062 32.382812 23.125 C 32.242188 18.558594 32.101562 13.992188 31.960938 9.425781 C 30.503906 13.894531 26.023438 20.890625 29.808594 24.480469 C 30.621094 24.066406 31.429688 23.648438 32.242188 23.230469 C 31.613281 23.890625 30.984375 24.554688 30.359375 25.21875 C 32.742188 29.855469 40.714844 27.511719 45.414062 27.371094 Z M 41.488281 30.914062 C 36.804688 31.332031 28.980469 34.128906 26.335938 29.632812 C 26.921875 28.9375 27.507812 28.238281 28.097656 27.546875 C 27.3125 28.007812 26.527344 28.46875 25.742188 28.933594 C 21.753906 25.570312 25.824219 18.324219 27.019531 13.777344 C 27.425781 18.328125 27.828125 22.878906 28.234375 27.429688 C 32.652344 28.59375 37.070312 29.753906 41.488281 30.914062 Z M 37.578125 33.527344 C 33.042969 34.769531 25.839844 38.914062 22.4375 34.960938 C 22.890625 34.171875 23.34375 33.382812 23.800781 32.59375 C 23.109375 33.183594 22.421875 33.78125 21.726562 34.378906 C 17.207031 31.773438 19.925781 23.921875 20.292969 19.234375 C 21.5 23.640625 22.707031 28.046875 23.914062 32.457031 C 28.46875 32.8125 33.023438 33.167969 37.578125 33.527344 Z M 34.035156 37.527344 C 29.644531 39.214844 22.890625 44.054688 19.113281 40.460938 C 19.484375 39.632812 19.859375 38.800781 20.230469 37.96875 C 19.605469 38.628906 18.976562 39.292969 18.347656 39.953125 C 13.59375 37.8125 15.515625 29.726562 15.414062 25.03125 C 17.054688 29.292969 18.695312 33.558594 20.332031 37.820312 C 24.898438 37.722656 29.46875 37.625 34.035156 37.527344 Z M 31.039062 41.699219 C 26.507812 42.300781 21.980469 42.90625 17.453125 43.507812 C 15.351562 39.457031 13.246094 35.398438 11.144531 31.34375 C 11.765625 36.003906 10.753906 44.25 15.71875 45.847656 C 16.269531 45.121094 16.820312 44.394531 17.371094 43.667969 C 17.089844 44.535156 16.8125 45.402344 16.53125 46.269531 C 20.6875 49.421875 26.863281 43.863281 31.039062 41.699219 Z M 28.429688 46.394531 C 23.984375 47.449219 19.539062 48.507812 15.09375 49.5625 C 12.597656 45.738281 10.097656 41.914062 7.597656 38.089844 C 8.683594 42.664062 8.503906 50.972656 13.601562 52.0625 C 14.078125 51.285156 14.554688 50.503906 15.027344 49.726562 C 14.839844 50.617188 14.648438 51.511719 14.457031 52.402344 C 18.910156 55.121094 24.492188 48.96875 28.429688 46.394531 Z M 26.246094 51.207031 C 22.648438 54.238281 17.851562 61.019531 13.105469 58.863281 C 13.183594 57.953125 13.265625 57.046875 13.347656 56.136719 C 12.96875 56.96875 12.59375 57.796875 12.214844 58.628906 C 7.023438 58.164062 6.195312 49.898438 4.5625 45.488281 C 7.503906 48.976562 10.449219 52.472656 13.390625 55.96875 C 17.675781 54.378906 21.960938 52.792969 26.246094 51.207031 Z M 24.511719 56.308594 C 21.253906 59.699219 17.191406 66.945312 12.242188 65.296875 C 12.230469 64.382812 12.214844 63.472656 12.203125 62.5625 C 11.914062 63.425781 11.625 64.292969 11.335938 65.15625 C 6.121094 65.238281 4.433594 57.101562 2.347656 52.886719 C 5.644531 56.050781 8.933594 59.21875 12.230469 62.386719 C 16.324219 60.359375 20.417969 58.335938 24.511719 56.308594 Z M 23.492188 61.816406 C 19.59375 64.203125 15.699219 66.589844 11.804688 68.976562 C 8.238281 66.121094 4.671875 63.265625 1.109375 60.410156 C 3.5625 64.414062 5.980469 72.367188 11.164062 71.816406 C 11.375 70.929688 11.582031 70.042969 11.792969 69.15625 C 11.886719 70.058594 11.984375 70.96875 12.082031 71.875 C 17.160156 73.070312 20.550781 65.488281 23.492188 61.816406 Z M 22.800781 67.125 C 20.339844 71.132812 17.914062 79.078125 12.726562 78.519531 C 12.519531 77.632812 12.308594 76.746094 12.105469 75.855469 C 12.007812 76.761719 11.90625 77.667969 11.8125 78.574219 C 6.730469 79.765625 3.351562 72.175781 0.417969 68.503906 C 4.308594 70.894531 8.203125 73.285156 12.09375 75.679688 C 15.660156 72.828125 19.230469 69.976562 22.800781 67.125 Z M 22.992188 72.777344 C 20.875 76.976562 19.121094 85.097656 13.910156 84.976562 C 13.625 84.109375 13.34375 83.242188 13.066406 82.375 C 13.042969 83.289062 13.023438 84.195312 13 85.109375 C 8.039062 86.71875 4.03125 79.441406 0.800781 76.023438 C 4.882812 78.082031 8.960938 80.140625 13.039062 82.195312 C 16.355469 79.058594 19.671875 75.917969 22.992188 72.777344 Z M 23.488281 78.089844 C 20.527344 81.566406 17.570312 85.046875 14.609375 88.527344 C 10.332031 86.921875 6.054688 85.316406 1.777344 83.710938 C 5.359375 86.757812 10.128906 93.5625 14.886719 91.425781 C 14.808594 90.515625 14.730469 89.605469 14.652344 88.699219 C 15.027344 89.53125 15.402344 90.363281 15.773438 91.191406 C 20.96875 90.753906 21.835938 82.488281 23.488281 78.089844 Z M 24.746094 83.425781 C 22.191406 87.210938 19.632812 90.996094 17.078125 94.78125 C 12.648438 93.660156 8.222656 92.535156 3.792969 91.414062 C 7.6875 94.046875 13.179688 100.28125 17.671875 97.632812 C 17.496094 96.738281 17.320312 95.84375 17.140625 94.949219 C 17.605469 95.734375 18.066406 96.519531 18.53125 97.304688 C 23.648438 96.292969 23.589844 87.984375 24.746094 83.425781 Z M 26.667969 88.664062 C 25.921875 93.304688 26.714844 101.574219 21.710938 103.042969 C 21.179688 102.300781 20.648438 101.558594 20.117188 100.816406 C 20.371094 101.691406 20.628906 102.566406 20.882812 103.441406 C 16.644531 106.480469 10.621094 100.753906 6.503906 98.484375 C 11.015625 99.207031 15.527344 99.933594 20.039062 100.65625 C 22.25 96.660156 24.457031 92.660156 26.667969 88.664062 Z M 29.296875 93.449219 C 28.847656 98.128906 30.164062 106.335938 25.257812 108.113281 C 24.683594 107.40625 24.105469 106.703125 23.53125 105.996094 C 23.839844 106.851562 24.148438 107.710938 24.460938 108.566406 C 20.421875 111.867188 14.050781 106.539062 9.796875 104.527344 C 14.347656 104.964844 18.894531 105.40625 23.441406 105.839844 C 25.394531 101.710938 27.34375 97.578125 29.296875 93.449219 Z M 31.589844 97.746094 C 31.746094 102.445312 34.109375 110.410156 29.476562 112.804688 C 28.8125 112.179688 28.148438 111.554688 27.488281 110.929688 C 27.90625 111.738281 28.324219 112.546875 28.742188 113.355469 C 25.164062 117.152344 18.15625 112.6875 13.683594 111.242188 C 18.246094 111.089844 22.8125 110.9375 27.378906 110.785156 C 28.78125 106.4375 30.1875 102.09375 31.589844 97.746094 Z M 34.511719 102.140625 C 35.230469 106.789062 38.527344 114.414062 34.214844 117.347656 C 33.484375 116.808594 32.75 116.261719 32.015625 115.722656 C 32.527344 116.476562 33.042969 117.230469 33.550781 117.984375 C 30.453125 122.179688 22.960938 118.585938 18.347656 117.6875 C 22.863281 116.988281 27.378906 116.292969 31.890625 115.59375 C 32.765625 111.109375 33.636719 106.625 34.511719 102.140625 Z M 37.996094 106.347656 C 37.710938 110.90625 37.421875 115.464844 37.136719 120.027344 C 32.75 121.300781 28.363281 122.574219 23.976562 123.851562 C 28.667969 124.144531 36.558594 126.742188 39.09375 122.179688 C 38.488281 121.5 37.878906 120.816406 37.277344 120.136719 C 38.070312 120.578125 38.867188 121.019531 39.667969 121.464844 C 43.5625 118 39.308594 110.863281 37.996094 106.347656 Z M 72.160156 133.171875 C 62.625 132.660156 46.246094 128.957031 39.710938 122.09375 C 46.003906 125.875 58.394531 130.40625 66.023438 130.8125 C 69.449219 130.992188 72.664062 130.796875 72.160156 133.171875 " fill-opacity="1" fill-rule="nonzero"/></g><g clip-path="url(#a3b3081986)"><path fill="#e69c10" d="M 93.433594 9.066406 L 104.835938 17.226562 L 107.421875 15.796875 L 106.925781 12.882812 Z M 106.902344 11.5 L 105.792969 9.058594 L 102.289062 1.332031 L 100.882812 0.0273438 L 101.140625 1.933594 Z M 102 11.09375 L 93.875 4.148438 L 92.105469 3.628906 L 92.960938 5.226562 Z M 103.746094 18.070312 L 92.671875 19.542969 L 91.019531 20.527344 L 92.917969 20.8125 Z M 100.363281 14.496094 L 90.136719 11.097656 L 88.355469 11.429688 L 89.867188 12.484375 Z M 100.367188 5.964844 L 102.878906 11.105469 L 106.804688 12.214844 Z M 95.335938 16.421875 L 104.238281 17.550781 L 100.921875 15.175781 Z M 98.421875 21.761719 C 101.71875 19.917969 105.019531 18.070312 108.316406 16.226562 C 107.699219 12.5 107.082031 8.769531 106.464844 5.039062 C 108.363281 8.4375 113.121094 13.394531 110.625 16.914062 C 109.902344 16.707031 109.179688 16.5 108.453125 16.292969 C 109.066406 16.726562 109.683594 17.164062 110.296875 17.601562 C 109.105469 21.75 102.257812 21.125 98.421875 21.761719 Z M 100.054688 24.136719 C 104.304688 22.460938 108.554688 20.785156 112.804688 19.109375 C 112.667969 14.542969 112.53125 9.976562 112.394531 5.410156 C 114.117188 9.785156 119.019531 16.496094 115.457031 20.308594 C 114.625 19.941406 113.789062 19.574219 112.957031 19.207031 C 113.621094 19.828125 114.289062 20.453125 114.953125 21.074219 C 112.855469 25.847656 104.753906 23.996094 100.054688 24.136719 Z M 104.457031 27.371094 C 108.800781 25.953125 113.144531 24.539062 117.488281 23.125 C 117.628906 18.558594 117.769531 13.992188 117.910156 9.425781 C 119.363281 13.894531 123.847656 20.890625 120.0625 24.480469 C 119.25 24.066406 118.441406 23.648438 117.632812 23.230469 C 118.257812 23.890625 118.886719 24.554688 119.511719 25.21875 C 117.128906 29.855469 109.15625 27.511719 104.457031 27.371094 Z M 108.382812 30.914062 C 113.066406 31.332031 120.890625 34.128906 123.539062 29.632812 C 122.949219 28.9375 122.363281 28.238281 121.773438 27.546875 C 122.558594 28.007812 123.34375 28.46875 124.132812 28.933594 C 128.117188 25.570312 124.046875 18.324219 122.851562 13.777344 C 122.445312 18.328125 122.042969 22.878906 121.640625 27.429688 C 117.21875 28.59375 112.800781 29.753906 108.382812 30.914062 Z M 112.296875 33.527344 C 116.828125 34.769531 124.03125 38.914062 127.4375 34.960938 C 126.980469 34.171875 126.527344 33.382812 126.070312 32.59375 C 126.761719 33.183594 127.453125 33.78125 128.144531 34.378906 C 132.664062 31.773438 129.945312 23.921875 129.578125 19.234375 C 128.375 23.640625 127.167969 28.046875 125.957031 32.457031 C 121.402344 32.8125 116.851562 33.167969 112.296875 33.527344 Z M 115.839844 37.527344 C 120.226562 39.214844 126.980469 44.054688 130.757812 40.460938 C 130.386719 39.632812 130.011719 38.800781 129.640625 37.96875 C 130.265625 38.628906 130.894531 39.292969 131.523438 39.953125 C 136.28125 37.8125 134.355469 29.726562 134.457031 25.03125 C 132.816406 29.292969 131.179688 33.558594 129.539062 37.820312 C 124.972656 37.722656 120.40625 37.625 115.839844 37.527344 Z M 118.835938 41.699219 C 123.363281 42.300781 127.890625 42.90625 132.417969 43.507812 C 134.519531 39.457031 136.625 35.398438 138.726562 31.34375 C 138.105469 36.003906 139.121094 44.25 134.152344 45.847656 C 133.601562 45.121094 133.050781 44.394531 132.503906 43.667969 C 132.78125 44.535156 133.058594 45.402344 133.339844 46.269531 C 129.183594 49.421875 123.007812 43.863281 118.835938 41.699219 Z M 121.441406 46.394531 C 125.886719 47.449219 130.332031 48.507812 134.777344 49.5625 C 137.277344 45.738281 139.773438 41.914062 142.277344 38.089844 C 141.1875 42.664062 141.367188 50.972656 136.269531 52.0625 C 135.792969 51.285156 135.316406 50.503906 134.84375 49.726562 C 135.035156 50.617188 135.226562 51.511719 135.414062 52.402344 C 130.964844 55.121094 125.378906 48.96875 121.441406 46.394531 Z M 123.625 51.207031 C 127.21875 54.238281 132.019531 61.019531 136.769531 58.863281 C 136.6875 57.953125 136.605469 57.046875 136.523438 56.136719 C 136.902344 56.96875 137.277344 57.796875 137.65625 58.628906 C 142.847656 58.164062 143.679688 49.898438 145.3125 45.488281 C 142.367188 48.976562 139.421875 52.472656 136.476562 55.96875 C 132.195312 54.378906 127.910156 52.792969 123.625 51.207031 Z M 125.359375 56.308594 C 128.617188 59.699219 132.679688 66.945312 137.628906 65.296875 C 137.640625 64.382812 137.65625 63.472656 137.671875 62.5625 C 137.960938 63.425781 138.246094 64.292969 138.535156 65.15625 C 143.75 65.238281 145.4375 57.101562 147.523438 52.886719 C 144.230469 56.050781 140.9375 59.21875 137.640625 62.386719 C 133.546875 60.359375 129.453125 58.335938 125.359375 56.308594 Z M 126.382812 61.816406 C 130.277344 64.203125 134.171875 66.589844 138.066406 68.976562 C 141.632812 66.121094 145.195312 63.265625 148.761719 60.410156 C 146.304688 64.414062 143.890625 72.367188 138.707031 71.816406 C 138.496094 70.929688 138.285156 70.042969 138.078125 69.15625 C 137.980469 70.058594 137.886719 70.96875 137.789062 71.875 C 132.714844 73.070312 129.320312 65.488281 126.382812 61.816406 Z M 127.070312 67.125 C 129.53125 71.132812 131.957031 79.078125 137.144531 78.519531 C 137.351562 77.632812 137.5625 76.746094 137.769531 75.855469 C 137.867188 76.761719 137.960938 77.667969 138.0625 78.574219 C 143.140625 79.765625 146.519531 72.175781 149.457031 68.503906 C 145.5625 70.894531 141.667969 73.285156 137.777344 75.679688 C 134.210938 72.828125 130.640625 69.976562 127.070312 67.125 Z M 126.882812 72.777344 C 129 76.976562 130.75 85.097656 135.964844 84.976562 C 136.246094 84.109375 136.527344 83.242188 136.808594 82.375 C 136.832031 83.289062 136.851562 84.195312 136.875 85.109375 C 141.832031 86.71875 145.835938 79.441406 149.070312 76.023438 C 144.992188 78.082031 140.914062 80.140625 136.832031 82.195312 C 133.515625 79.058594 130.199219 75.917969 126.882812 72.777344 Z M 126.386719 78.089844 C 129.34375 81.566406 132.304688 85.046875 135.261719 88.527344 C 139.539062 86.921875 143.816406 85.316406 148.09375 83.710938 C 144.511719 86.757812 139.746094 93.5625 134.988281 91.425781 C 135.0625 90.515625 135.140625 89.605469 135.21875 88.699219 C 134.84375 89.53125 134.472656 90.363281 134.097656 91.191406 C 128.902344 90.753906 128.035156 82.488281 126.386719 78.089844 Z M 125.125 83.425781 C 127.679688 87.210938 130.238281 90.996094 132.796875 94.78125 C 137.222656 93.660156 141.652344 92.535156 146.078125 91.414062 C 142.183594 94.046875 136.691406 100.28125 132.199219 97.632812 C 132.375 96.738281 132.554688 95.84375 132.730469 94.949219 C 132.269531 95.734375 131.804688 96.519531 131.339844 97.304688 C 126.226562 96.292969 126.28125 87.984375 125.125 83.425781 Z M 123.203125 88.664062 C 123.949219 93.304688 123.15625 101.574219 128.160156 103.042969 C 128.695312 102.300781 129.226562 101.558594 129.757812 100.816406 C 129.5 101.691406 129.246094 102.566406 128.988281 103.441406 C 133.230469 106.480469 139.25 100.753906 143.363281 98.484375 C 138.855469 99.207031 134.34375 99.933594 129.832031 100.65625 C 127.625 96.660156 125.414062 92.660156 123.203125 88.664062 Z M 120.574219 93.449219 C 121.023438 98.128906 119.707031 106.335938 124.609375 108.113281 C 125.1875 107.40625 125.765625 106.703125 126.34375 105.996094 C 126.03125 106.851562 125.71875 107.710938 125.410156 108.566406 C 129.449219 111.867188 135.824219 106.539062 140.074219 104.527344 C 135.527344 104.964844 130.976562 105.40625 126.429688 105.839844 C 124.480469 101.710938 122.527344 97.578125 120.574219 93.449219 Z M 118.28125 97.746094 C 118.125 102.445312 115.761719 110.410156 120.394531 112.804688 C 121.058594 112.179688 121.722656 111.554688 122.382812 110.929688 C 121.964844 111.738281 121.546875 112.546875 121.128906 113.355469 C 124.707031 117.152344 131.71875 112.6875 136.191406 111.242188 C 131.625 111.089844 127.058594 110.9375 122.492188 110.785156 C 121.089844 106.4375 119.683594 102.09375 118.28125 97.746094 Z M 115.359375 102.140625 C 114.644531 106.789062 111.34375 114.414062 115.65625 117.347656 C 116.390625 116.808594 117.125 116.261719 117.855469 115.722656 C 117.34375 116.476562 116.832031 117.230469 116.320312 117.984375 C 119.417969 122.179688 126.910156 118.585938 131.523438 117.6875 C 127.007812 116.988281 122.496094 116.292969 117.980469 115.59375 C 117.105469 111.109375 116.234375 106.625 115.359375 102.140625 Z M 111.878906 106.347656 C 112.164062 110.90625 112.449219 115.464844 112.738281 120.027344 C 117.125 121.300781 121.511719 122.574219 125.898438 123.851562 C 121.207031 124.144531 113.3125 126.742188 110.78125 122.179688 C 111.386719 121.5 111.992188 120.816406 112.597656 120.136719 C 111.800781 120.578125 111.003906 121.019531 110.207031 121.464844 C 106.308594 118 110.5625 110.863281 111.878906 106.347656 Z M 77.714844 133.171875 C 87.246094 132.660156 103.625 128.957031 110.164062 122.09375 C 103.867188 125.875 91.476562 130.40625 83.847656 130.8125 C 80.421875 130.992188 77.207031 130.796875 77.714844 133.171875 " fill-opacity="1" fill-rule="nonzero"/></g><g clip-path="url(#b904b1dec0)"><g clip-path="url(#36a7f99aad)"><path stroke-linecap="butt" transform="matrix(0.745833, 0, 0, 0.745833, 28.200143, 23.06259)" fill="none" stroke-linejoin="miter" d="M 62.664618 -0.000120966 C 28.055677 -0.000120966 -0.00123878 28.056795 -0.00123878 62.665736 C -0.00123878 97.274678 28.055677 125.326356 62.664618 125.326356 C 97.27356 125.326356 125.330476 97.274678 125.330476 62.665736 C 125.330476 28.056795 97.27356 -0.000120966 62.664618 -0.000120966 Z M 62.664618 -0.000120966 " stroke="#d9d9d9" stroke-width="4" stroke-opacity="1" stroke-miterlimit="4"/></g></g><g clip-path="url(#22bb370854)"><path fill="#e69c10" d="M 97.050781 38.199219 L 95.839844 39.332031 L 96.019531 40.105469 C 90.210938 46.546875 86.371094 49.589844 85.253906 47.96875 C 84.359375 44.886719 84.804688 41.839844 86.214844 38.820312 L 87.410156 38.257812 L 87.640625 35.609375 L 85.800781 37.53125 L 86.179688 38.824219 C 84.660156 41.371094 83.027344 43.628906 81.160156 45.277344 C 79.195312 47.015625 78.597656 47.257812 77.324219 44.527344 C 76.382812 42.503906 76.0625 39.789062 75.429688 37.421875 L 77.039062 35.542969 L 74.933594 29.550781 L 72.832031 35.542969 L 74.441406 37.421875 C 73.808594 39.789062 73.484375 42.503906 72.542969 44.527344 C 71.273438 47.257812 70.671875 47.015625 68.707031 45.277344 C 66.839844 43.628906 65.207031 41.371094 63.6875 38.820312 L 64.066406 37.53125 L 62.226562 35.609375 L 62.457031 38.257812 L 63.65625 38.820312 C 65.0625 41.839844 65.511719 44.886719 64.617188 47.96875 C 63.496094 49.589844 59.660156 46.546875 53.847656 40.105469 L 54.027344 39.332031 L 52.816406 38.199219 L 53.054688 39.839844 L 53.773438 40.128906 L 62.050781 54.539062 L 59.507812 47.539062 C 59.558594 47.578125 59.609375 47.621094 59.664062 47.664062 C 60.957031 48.699219 63.230469 50.382812 64.949219 49.378906 C 65.242188 49.210938 65.484375 48.976562 65.675781 48.703125 L 65.796875 48.527344 L 65.855469 48.328125 C 66.203125 47.132812 66.363281 45.945312 66.367188 44.769531 C 66.839844 45.289062 67.332031 45.785156 67.851562 46.246094 C 68.726562 47.015625 69.835938 48.039062 71.101562 47.851562 C 72.46875 47.648438 73.191406 46.191406 73.710938 45.070312 C 74.289062 43.828125 74.636719 42.441406 74.933594 41.085938 C 75.230469 42.441406 75.578125 43.828125 76.15625 45.070312 C 76.675781 46.191406 77.402344 47.648438 78.769531 47.851562 C 80.03125 48.035156 81.140625 47.015625 82.015625 46.246094 C 82.535156 45.785156 83.03125 45.289062 83.503906 44.769531 C 83.503906 45.945312 83.667969 47.132812 84.015625 48.328125 L 84.070312 48.527344 L 84.191406 48.703125 C 84.382812 48.976562 84.625 49.210938 84.917969 49.378906 C 86.640625 50.382812 88.910156 48.699219 90.207031 47.664062 C 90.257812 47.621094 90.308594 47.578125 90.359375 47.539062 L 88.128906 54.019531 L 96.097656 40.128906 L 96.8125 39.839844 Z M 97.050781 38.199219 " fill-opacity="1" fill-rule="evenodd"/></g><path fill="#e69c10" d="M 70.589844 43.546875 C 70.738281 44.226562 70.902344 44.910156 71.132812 45.5625 C 71.28125 45.367188 71.488281 45.035156 71.757812 44.480469 C 71.34375 42.957031 71.121094 41.230469 70.589844 39.839844 C 70.015625 41.34375 69.796875 43.238281 69.316406 44.84375 C 69.53125 45.03125 69.8125 45.273438 70.078125 45.472656 C 70.289062 44.847656 70.449219 44.195312 70.589844 43.546875 Z M 70.589844 43.546875 " fill-opacity="1" fill-rule="evenodd"/><path fill="#e69c10" d="M 79.265625 43.546875 C 79.40625 44.195312 79.566406 44.851562 79.777344 45.480469 C 80.046875 45.28125 80.324219 45.042969 80.542969 44.851562 C 80.058594 43.246094 79.839844 41.34375 79.265625 39.839844 C 78.738281 41.222656 78.511719 42.945312 78.101562 44.460938 C 78.371094 45.015625 78.578125 45.351562 78.726562 45.554688 C 78.953125 44.902344 79.117188 44.222656 79.265625 43.546875 Z M 79.265625 43.546875 " fill-opacity="1" fill-rule="evenodd"/><path fill="#e69c10" d="M 86.933594 47.433594 C 87.09375 46.402344 87.359375 45.320312 87.386719 44.355469 C 86.78125 44.996094 86.246094 45.851562 85.6875 46.636719 C 85.742188 46.921875 85.804688 47.207031 85.878906 47.492188 C 86.050781 47.269531 86.210938 47.042969 86.367188 46.816406 C 86.320312 47.097656 86.273438 47.378906 86.234375 47.660156 C 86.410156 47.640625 86.636719 47.574219 86.933594 47.433594 Z M 86.933594 47.433594 " fill-opacity="1" fill-rule="evenodd"/><path fill="#e69c10" d="M 64.179688 46.636719 C 63.621094 45.851562 63.089844 44.996094 62.480469 44.355469 C 62.507812 45.320312 62.773438 46.402344 62.933594 47.433594 C 63.230469 47.574219 63.457031 47.636719 63.632812 47.660156 C 63.59375 47.378906 63.546875 47.09375 63.5 46.816406 C 63.65625 47.042969 63.820312 47.269531 63.988281 47.492188 C 64.0625 47.207031 64.128906 46.921875 64.179688 46.636719 Z M 64.179688 46.636719 " fill-opacity="1" fill-rule="evenodd"/><g clip-path="url(#4083c4120f)"><path fill="#e69c10" d="M 73.867188 91.789062 C 73.777344 91.292969 73.417969 90.890625 72.929688 90.726562 C 72.835938 90.191406 72.417969 89.746094 71.867188 89.621094 C 71.785156 89.601562 71.695312 89.589844 71.609375 89.585938 C 71.460938 89.066406 71.035156 88.652344 70.492188 88.523438 C 69.796875 88.363281 69.113281 88.675781 68.800781 89.261719 C 68.71875 89.222656 68.632812 89.195312 68.546875 89.175781 C 67.882812 89.015625 67.214844 89.417969 67.050781 90.070312 C 67.050781 90.078125 67.050781 90.085938 67.046875 90.097656 C 66.402344 90.136719 65.839844 90.582031 65.6875 91.214844 C 65.597656 91.585938 65.65625 91.980469 65.863281 92.308594 C 65.890625 92.355469 65.917969 92.390625 65.949219 92.425781 C 65.898438 92.617188 65.839844 92.839844 65.769531 93.09375 L 64.167969 92.714844 C 63.664062 92.597656 63.140625 92.78125 62.832031 93.191406 C 62.210938 94.023438 61.160156 95.847656 61.085938 98.769531 C 61.074219 99.125 61.230469 99.46875 61.503906 99.714844 L 63.253906 101.292969 C 63.058594 101.816406 62.867188 102.289062 62.691406 102.660156 C 62.601562 102.859375 62.601562 103.082031 62.6875 103.277344 C 62.773438 103.484375 62.949219 103.640625 63.164062 103.710938 C 63.878906 103.945312 65.34375 104.398438 67.09375 104.789062 C 68.835938 105.21875 70.347656 105.472656 71.089844 105.582031 C 71.132812 105.585938 71.167969 105.585938 71.207031 105.585938 L 71.210938 105.585938 C 71.394531 105.585938 71.570312 105.527344 71.710938 105.410156 C 71.878906 105.269531 71.976562 105.066406 71.988281 104.855469 C 71.992188 104.664062 72.007812 104.449219 72.023438 104.222656 C 72.023438 104.222656 72.023438 104.21875 72.023438 104.210938 C 72.261719 101.371094 73.359375 96.039062 73.746094 94.222656 C 74.128906 94.050781 74.421875 93.726562 74.527344 93.300781 C 74.667969 92.710938 74.394531 92.097656 73.867188 91.789062 Z M 67.097656 94.820312 C 67.136719 94.691406 67.273438 94.613281 67.410156 94.65625 C 67.539062 94.691406 67.621094 94.832031 67.582031 94.96875 L 65.820312 100.917969 C 65.789062 101.023438 65.6875 101.09375 65.578125 101.09375 C 65.554688 101.09375 65.53125 101.09375 65.507812 101.085938 C 65.375 101.042969 65.300781 100.90625 65.335938 100.769531 Z M 62.148438 99.039062 C 62.078125 98.976562 62.035156 98.886719 62.042969 98.800781 C 62.113281 96.132812 63.054688 94.484375 63.613281 93.742188 C 63.6875 93.632812 63.820312 93.589844 63.949219 93.621094 L 65.519531 93.988281 C 65.023438 95.777344 64.292969 98.308594 63.59375 100.332031 Z M 71.484375 104.835938 C 71.480469 104.90625 71.449219 104.972656 71.386719 105.015625 C 71.328125 105.070312 71.246094 105.09375 71.167969 105.082031 C 71.167969 105.082031 71.167969 105.082031 71.167969 105.078125 C 70.433594 104.972656 68.941406 104.726562 67.203125 104.296875 C 65.464844 103.910156 64.027344 103.460938 63.320312 103.230469 C 63.238281 103.207031 63.179688 103.152344 63.148438 103.082031 C 63.117188 103.015625 63.117188 102.9375 63.148438 102.875 C 63.203125 102.757812 63.265625 102.625 63.320312 102.488281 C 64.292969 102.789062 65.726562 103.207031 67.378906 103.582031 C 69.023438 103.980469 70.496094 104.253906 71.503906 104.414062 C 71.496094 104.5625 71.488281 104.703125 71.484375 104.835938 Z M 67.660156 101.332031 L 69.113281 95.3125 C 69.140625 95.175781 69.285156 95.09375 69.414062 95.125 C 69.550781 95.15625 69.636719 95.292969 69.601562 95.429688 L 68.148438 101.453125 C 68.125 101.570312 68.019531 101.644531 67.910156 101.644531 C 67.886719 101.644531 67.867188 101.644531 67.847656 101.640625 C 67.710938 101.605469 67.632812 101.46875 67.660156 101.332031 Z M 71.621094 95.894531 L 70.480469 101.988281 C 70.460938 102.109375 70.355469 102.195312 70.234375 102.195312 C 70.21875 102.195312 70.207031 102.191406 70.191406 102.191406 C 70.054688 102.164062 69.964844 102.035156 69.988281 101.894531 L 71.125 95.796875 C 71.152344 95.660156 71.28125 95.570312 71.425781 95.601562 C 71.558594 95.625 71.652344 95.757812 71.621094 95.894531 Z M 74.039062 93.179688 C 73.921875 93.644531 73.445312 93.925781 72.941406 93.820312 C 72.421875 93.714844 72.058594 93.417969 72.035156 93.074219 C 72.023438 92.953125 71.921875 92.855469 71.800781 92.847656 C 71.679688 92.824219 71.566406 92.917969 71.535156 93.039062 L 71.15625 94.605469 C 71.136719 94.707031 71.019531 94.773438 70.910156 94.746094 C 70.855469 94.730469 70.808594 94.695312 70.777344 94.648438 C 70.753906 94.609375 70.742188 94.558594 70.753906 94.515625 L 71.132812 92.945312 C 71.148438 92.882812 71.136719 92.8125 71.101562 92.753906 C 71.066406 92.695312 71.011719 92.652344 70.945312 92.640625 L 68.257812 92.007812 C 68.242188 92 68.222656 92 68.199219 92 C 68.121094 92 68.042969 92.039062 67.996094 92.109375 C 67.761719 92.441406 67.335938 92.597656 66.925781 92.503906 C 66.660156 92.441406 66.433594 92.28125 66.292969 92.046875 C 66.160156 91.832031 66.117188 91.578125 66.175781 91.328125 C 66.285156 90.875 66.730469 90.566406 67.214844 90.601562 C 67.277344 90.636719 67.445312 90.734375 67.480469 90.90625 C 67.503906 91.019531 67.613281 91.101562 67.726562 91.101562 C 67.746094 91.101562 67.761719 91.101562 67.78125 91.097656 C 67.917969 91.066406 68.003906 90.929688 67.972656 90.792969 C 67.910156 90.496094 67.695312 90.308594 67.539062 90.207031 C 67.539062 90.203125 67.539062 90.199219 67.546875 90.1875 C 67.636719 89.808594 68.035156 89.570312 68.433594 89.667969 C 68.546875 89.691406 68.652344 89.746094 68.753906 89.832031 C 68.820312 89.890625 68.90625 89.910156 68.992188 89.882812 C 69.070312 89.859375 69.136719 89.792969 69.15625 89.707031 C 69.304688 89.191406 69.832031 88.886719 70.375 89.015625 C 70.789062 89.109375 71.101562 89.453125 71.152344 89.867188 C 71.15625 89.933594 71.152344 90.171875 71.054688 90.292969 C 70.976562 90.40625 70.996094 90.5625 71.105469 90.648438 C 71.152344 90.683594 71.207031 90.699219 71.257812 90.699219 C 71.332031 90.699219 71.410156 90.664062 71.460938 90.597656 C 71.574219 90.445312 71.625 90.253906 71.644531 90.097656 C 71.679688 90.101562 71.714844 90.105469 71.75 90.113281 C 72.148438 90.207031 72.4375 90.546875 72.453125 90.941406 C 72.457031 91.058594 72.578125 91.15625 72.6875 91.183594 C 73.074219 91.273438 73.351562 91.59375 73.382812 91.976562 C 73.394531 92.066406 73.449219 92.148438 73.535156 92.183594 C 73.921875 92.359375 74.132812 92.78125 74.039062 93.179688 Z M 74.039062 93.179688 " fill-opacity="1" fill-rule="nonzero"/></g><g clip-path="url(#c9bc46d78b)"><path fill="#e69c10" d="M 88.785156 100.304688 C 88.707031 97.382812 87.65625 95.554688 87.035156 94.726562 C 86.730469 94.316406 86.207031 94.128906 85.703125 94.25 L 84.101562 94.628906 C 84.03125 94.371094 83.96875 94.148438 83.917969 93.964844 C 83.949219 93.921875 83.980469 93.886719 84.003906 93.847656 C 84.210938 93.511719 84.273438 93.125 84.179688 92.75 C 84.03125 92.117188 83.464844 91.667969 82.820312 91.628906 C 82.816406 91.621094 82.816406 91.613281 82.816406 91.601562 C 82.65625 90.957031 81.984375 90.550781 81.320312 90.707031 C 81.234375 90.726562 81.148438 90.757812 81.070312 90.800781 C 80.757812 90.210938 80.066406 89.894531 79.375 90.054688 C 78.832031 90.1875 78.410156 90.597656 78.257812 91.121094 C 78.171875 91.121094 78.082031 91.136719 78 91.15625 C 77.453125 91.285156 77.035156 91.722656 76.9375 92.257812 C 76.449219 92.421875 76.09375 92.832031 76 93.324219 C 75.472656 93.628906 75.203125 94.246094 75.34375 94.832031 C 75.449219 95.257812 75.738281 95.585938 76.121094 95.753906 C 76.511719 97.578125 77.609375 102.910156 77.84375 105.75 C 77.84375 105.75 77.84375 105.753906 77.84375 105.757812 C 77.859375 105.988281 77.875 106.199219 77.878906 106.390625 C 77.890625 106.601562 77.992188 106.800781 78.152344 106.9375 C 78.152344 106.941406 78.152344 106.941406 78.15625 106.941406 C 78.226562 107.003906 78.308594 107.046875 78.390625 107.078125 C 78.476562 107.109375 78.566406 107.125 78.660156 107.125 C 78.703125 107.125 78.738281 107.117188 78.777344 107.113281 C 78.964844 107.089844 79.191406 107.054688 79.460938 107.007812 L 79.46875 107.007812 C 79.492188 107.003906 79.523438 106.996094 79.546875 106.992188 C 80.082031 106.902344 80.75 106.78125 81.515625 106.613281 C 81.914062 106.53125 82.335938 106.429688 82.777344 106.324219 C 84.535156 105.929688 85.992188 105.480469 86.703125 105.25 C 86.859375 105.199219 86.984375 105.101562 87.082031 104.980469 C 87.085938 104.972656 87.097656 104.964844 87.101562 104.960938 C 87.132812 104.914062 87.164062 104.863281 87.183594 104.8125 C 87.269531 104.617188 87.269531 104.390625 87.175781 104.199219 C 87.132812 104.105469 87.09375 104.015625 87.050781 103.917969 C 87.007812 103.824219 86.964844 103.722656 86.921875 103.617188 C 86.824219 103.375 86.71875 103.109375 86.613281 102.828125 L 88.367188 101.25 C 88.636719 101.003906 88.792969 100.660156 88.785156 100.304688 Z M 84.535156 102.308594 C 84.570312 102.4375 84.492188 102.582031 84.363281 102.621094 C 84.335938 102.625 84.3125 102.628906 84.292969 102.628906 C 84.179688 102.628906 84.082031 102.558594 84.050781 102.449219 L 82.289062 96.5 C 82.246094 96.367188 82.328125 96.226562 82.457031 96.1875 C 82.59375 96.152344 82.730469 96.222656 82.769531 96.359375 Z M 78.085938 94.378906 L 78.066406 94.378906 C 77.945312 94.386719 77.84375 94.488281 77.835938 94.609375 C 77.808594 94.949219 77.449219 95.25 76.929688 95.359375 C 76.425781 95.464844 75.945312 95.179688 75.832031 94.714844 C 75.734375 94.316406 75.945312 93.898438 76.335938 93.71875 C 76.421875 93.679688 76.476562 93.597656 76.484375 93.507812 C 76.515625 93.125 76.816406 92.789062 77.214844 92.714844 C 77.328125 92.6875 77.410156 92.59375 77.417969 92.472656 C 77.433594 92.082031 77.71875 91.738281 78.117188 91.648438 C 78.152344 91.636719 78.1875 91.632812 78.222656 91.632812 C 78.242188 91.785156 78.292969 91.976562 78.410156 92.132812 C 78.460938 92.199219 78.535156 92.234375 78.609375 92.234375 C 78.660156 92.234375 78.714844 92.214844 78.761719 92.183594 C 78.871094 92.097656 78.894531 91.9375 78.8125 91.824219 C 78.722656 91.707031 78.710938 91.480469 78.714844 91.40625 C 78.765625 90.992188 79.078125 90.648438 79.492188 90.550781 C 80.03125 90.425781 80.566406 90.726562 80.710938 91.242188 C 80.730469 91.324219 80.796875 91.390625 80.878906 91.414062 C 80.960938 91.441406 81.046875 91.425781 81.113281 91.371094 C 81.214844 91.285156 81.320312 91.230469 81.4375 91.203125 C 81.835938 91.105469 82.230469 91.339844 82.324219 91.722656 C 82.328125 91.730469 82.328125 91.738281 82.328125 91.746094 C 82.171875 91.84375 81.960938 92.03125 81.894531 92.332031 C 81.863281 92.46875 81.949219 92.601562 82.085938 92.632812 C 82.105469 92.632812 82.121094 92.640625 82.140625 92.640625 C 82.257812 92.640625 82.363281 92.558594 82.386719 92.441406 C 82.421875 92.269531 82.589844 92.167969 82.65625 92.136719 C 83.136719 92.109375 83.582031 92.410156 83.691406 92.867188 C 83.753906 93.109375 83.707031 93.367188 83.578125 93.582031 C 83.4375 93.8125 83.207031 93.972656 82.941406 94.039062 C 82.535156 94.136719 82.105469 93.972656 81.875 93.644531 C 81.8125 93.558594 81.707031 93.511719 81.613281 93.542969 L 78.921875 94.175781 C 78.859375 94.191406 78.800781 94.230469 78.765625 94.285156 C 78.730469 94.347656 78.722656 94.414062 78.738281 94.476562 L 79.113281 96.046875 C 79.125 96.089844 79.113281 96.140625 79.089844 96.1875 C 79.058594 96.230469 79.011719 96.269531 78.957031 96.277344 C 78.84375 96.304688 78.730469 96.242188 78.710938 96.136719 L 78.332031 94.570312 C 78.304688 94.457031 78.203125 94.378906 78.085938 94.378906 Z M 82.019531 103.171875 C 82 103.175781 81.980469 103.183594 81.960938 103.183594 C 81.847656 103.183594 81.742188 103.101562 81.71875 102.984375 L 80.269531 96.964844 C 80.234375 96.828125 80.316406 96.691406 80.453125 96.660156 C 80.585938 96.632812 80.726562 96.710938 80.757812 96.847656 L 82.207031 102.867188 C 82.238281 103.003906 82.15625 103.140625 82.019531 103.171875 Z M 78.445312 97.132812 C 78.585938 97.105469 78.714844 97.199219 78.742188 97.335938 L 79.878906 103.429688 C 79.90625 103.566406 79.8125 103.699219 79.679688 103.722656 C 79.664062 103.726562 79.648438 103.726562 79.632812 103.726562 C 79.511719 103.726562 79.40625 103.640625 79.386719 103.519531 L 78.25 97.425781 C 78.21875 97.289062 78.308594 97.15625 78.445312 97.132812 Z M 86.71875 104.410156 C 86.75 104.476562 86.75 104.546875 86.71875 104.613281 C 86.6875 104.6875 86.628906 104.738281 86.546875 104.765625 C 85.847656 104.996094 84.414062 105.441406 82.660156 105.835938 C 80.921875 106.257812 79.4375 106.507812 78.703125 106.613281 C 78.6875 106.613281 78.675781 106.617188 78.660156 106.617188 C 78.59375 106.617188 78.53125 106.59375 78.480469 106.554688 C 78.417969 106.507812 78.390625 106.441406 78.382812 106.371094 C 78.378906 106.238281 78.375 106.097656 78.363281 105.953125 C 79.371094 105.785156 80.847656 105.515625 82.484375 105.117188 C 84.140625 104.738281 85.574219 104.324219 86.546875 104.019531 C 86.601562 104.15625 86.664062 104.289062 86.71875 104.410156 Z M 87.722656 100.570312 L 86.277344 101.867188 C 85.574219 99.847656 84.847656 97.3125 84.347656 95.523438 L 85.917969 95.15625 C 86.050781 95.125 86.179688 95.171875 86.257812 95.273438 C 86.816406 96.019531 87.757812 97.667969 87.828125 100.335938 C 87.832031 100.421875 87.792969 100.507812 87.722656 100.570312 Z M 87.722656 100.570312 " fill-opacity="1" fill-rule="nonzero"/></g><path fill="#e69c10" d="M 73.449219 88.125 C 73.496094 88.203125 73.582031 88.25 73.667969 88.25 C 73.710938 88.25 73.753906 88.238281 73.792969 88.214844 C 73.914062 88.144531 73.957031 87.992188 73.886719 87.871094 L 72.304688 85.132812 C 72.234375 85.011719 72.078125 84.972656 71.960938 85.042969 C 71.839844 85.113281 71.796875 85.265625 71.867188 85.386719 Z M 73.449219 88.125 " fill-opacity="1" fill-rule="nonzero"/><path fill="#e69c10" d="M 77.101562 88.589844 C 77.160156 88.589844 77.214844 88.570312 77.261719 88.53125 L 79.707031 86.507812 C 79.8125 86.421875 79.828125 86.261719 79.742188 86.152344 C 79.652344 86.046875 79.492188 86.03125 79.386719 86.121094 L 76.941406 88.140625 C 76.835938 88.230469 76.820312 88.390625 76.910156 88.496094 C 76.957031 88.558594 77.03125 88.589844 77.101562 88.589844 Z M 77.101562 88.589844 " fill-opacity="1" fill-rule="nonzero"/><g clip-path="url(#5a77922b71)"><path fill="#e69c10" d="M 75.410156 87.789062 C 75.539062 87.789062 75.648438 87.691406 75.660156 87.5625 L 75.980469 84.152344 C 75.992188 84.011719 75.890625 83.890625 75.753906 83.875 C 75.613281 83.867188 75.492188 83.964844 75.480469 84.105469 L 75.160156 87.515625 C 75.148438 87.652344 75.25 87.777344 75.386719 87.789062 C 75.394531 87.789062 75.402344 87.789062 75.410156 87.789062 Z M 75.410156 87.789062 " fill-opacity="1" fill-rule="nonzero"/></g><g fill="#d9d9d9" fill-opacity="1"><g transform="translate(41.019267, 81.233183)"><g><path d="M 3.828125 -4.53125 L 3.828125 -1.6875 C 3.828125 -1.382812 3.765625 -1.101562 3.640625 -0.84375 C 3.523438 -0.59375 3.34375 -0.390625 3.09375 -0.234375 C 2.851562 -0.078125 2.554688 0 2.203125 0 L 0.609375 0 L 0.609375 -6.21875 L 2.203125 -6.21875 C 2.554688 -6.21875 2.851562 -6.140625 3.09375 -5.984375 C 3.34375 -5.828125 3.523438 -5.617188 3.640625 -5.359375 C 3.765625 -5.109375 3.828125 -4.832031 3.828125 -4.53125 Z M 1.359375 -0.703125 L 2.203125 -0.703125 C 2.515625 -0.703125 2.738281 -0.800781 2.875 -1 C 3.007812 -1.195312 3.078125 -1.425781 3.078125 -1.6875 L 3.078125 -4.53125 C 3.078125 -4.789062 3.007812 -5.015625 2.875 -5.203125 C 2.738281 -5.398438 2.515625 -5.5 2.203125 -5.5 L 1.359375 -5.5 Z M 1.359375 -0.703125 "/></g></g></g><g fill="#d9d9d9" fill-opacity="1"><g transform="translate(45.38824, 81.233183)"><g><path d="M 3.484375 0 L 0.609375 0 L 0.609375 -6.21875 L 3.484375 -6.21875 L 3.484375 -5.5 L 1.359375 -5.5 L 1.359375 -3.46875 L 3.046875 -3.46875 L 3.046875 -2.75 L 1.359375 -2.75 L 1.359375 -0.703125 L 3.484375 -0.703125 Z M 3.484375 0 "/></g></g></g><g fill="#d9d9d9" fill-opacity="1"><g transform="translate(49.277692, 81.233183)"><g><path d="M 1.359375 -2.234375 L 1.359375 0 L 0.609375 0 L 0.609375 -6.21875 L 2.0625 -6.21875 C 2.414062 -6.21875 2.710938 -6.140625 2.953125 -5.984375 C 3.203125 -5.828125 3.390625 -5.617188 3.515625 -5.359375 C 3.640625 -5.109375 3.703125 -4.832031 3.703125 -4.53125 L 3.703125 -3.90625 C 3.703125 -3.613281 3.640625 -3.335938 3.515625 -3.078125 C 3.390625 -2.828125 3.203125 -2.625 2.953125 -2.46875 C 2.710938 -2.3125 2.414062 -2.234375 2.0625 -2.234375 Z M 1.359375 -2.9375 L 2.0625 -2.9375 C 2.375 -2.9375 2.597656 -3.03125 2.734375 -3.21875 C 2.878906 -3.414062 2.953125 -3.644531 2.953125 -3.90625 L 2.953125 -4.53125 C 2.953125 -4.789062 2.878906 -5.015625 2.734375 -5.203125 C 2.597656 -5.398438 2.375 -5.5 2.0625 -5.5 L 1.359375 -5.5 Z M 1.359375 -2.9375 "/></g></g></g><g fill="#d9d9d9" fill-opacity="1"><g transform="translate(53.344744, 81.233183)"><g><path d="M 3.890625 -4.640625 L 3.890625 -1.578125 C 3.890625 -1.273438 3.820312 -1 3.6875 -0.75 C 3.5625 -0.5 3.375 -0.296875 3.125 -0.140625 C 2.882812 0.015625 2.582031 0.09375 2.21875 0.09375 C 1.851562 0.09375 1.546875 0.015625 1.296875 -0.140625 C 1.046875 -0.296875 0.851562 -0.5 0.71875 -0.75 C 0.59375 -1 0.53125 -1.273438 0.53125 -1.578125 L 0.53125 -4.640625 C 0.53125 -4.929688 0.59375 -5.203125 0.71875 -5.453125 C 0.851562 -5.710938 1.046875 -5.914062 1.296875 -6.0625 C 1.546875 -6.21875 1.851562 -6.296875 2.21875 -6.296875 C 2.582031 -6.296875 2.882812 -6.21875 3.125 -6.0625 C 3.375 -5.914062 3.5625 -5.710938 3.6875 -5.453125 C 3.820312 -5.203125 3.890625 -4.929688 3.890625 -4.640625 Z M 1.296875 -4.640625 L 1.296875 -1.578125 C 1.296875 -1.316406 1.375 -1.09375 1.53125 -0.90625 C 1.6875 -0.71875 1.914062 -0.625 2.21875 -0.625 C 2.507812 -0.625 2.734375 -0.71875 2.890625 -0.90625 C 3.054688 -1.09375 3.140625 -1.316406 3.140625 -1.578125 L 3.140625 -4.640625 C 3.140625 -4.890625 3.054688 -5.109375 2.890625 -5.296875 C 2.734375 -5.492188 2.507812 -5.59375 2.21875 -5.59375 C 1.914062 -5.59375 1.6875 -5.492188 1.53125 -5.296875 C 1.375 -5.109375 1.296875 -4.890625 1.296875 -4.640625 Z M 2.328125 -6.796875 L 1.734375 -6.796875 L 2.53125 -7.984375 L 3.40625 -7.984375 Z M 2.328125 -6.796875 "/></g></g></g><g fill="#d9d9d9" fill-opacity="1"><g transform="translate(57.775878, 81.233183)"><g><path d="M 1.15625 -1.84375 L 1.15625 -1.578125 C 1.15625 -1.296875 1.234375 -1.0625 1.390625 -0.875 C 1.546875 -0.695312 1.765625 -0.609375 2.046875 -0.609375 C 2.347656 -0.609375 2.570312 -0.703125 2.71875 -0.890625 C 2.875 -1.085938 2.953125 -1.335938 2.953125 -1.640625 C 2.953125 -1.867188 2.90625 -2.050781 2.8125 -2.1875 C 2.71875 -2.332031 2.59375 -2.445312 2.4375 -2.53125 C 2.289062 -2.613281 2.128906 -2.6875 1.953125 -2.75 C 1.773438 -2.8125 1.59375 -2.878906 1.40625 -2.953125 C 1.226562 -3.023438 1.0625 -3.117188 0.90625 -3.234375 C 0.757812 -3.359375 0.640625 -3.519531 0.546875 -3.71875 C 0.460938 -3.925781 0.421875 -4.195312 0.421875 -4.53125 C 0.421875 -4.875 0.484375 -5.175781 0.609375 -5.4375 C 0.734375 -5.707031 0.914062 -5.914062 1.15625 -6.0625 C 1.394531 -6.21875 1.6875 -6.296875 2.03125 -6.296875 C 2.394531 -6.296875 2.695312 -6.21875 2.9375 -6.0625 C 3.1875 -5.914062 3.375 -5.710938 3.5 -5.453125 C 3.625 -5.203125 3.6875 -4.929688 3.6875 -4.640625 L 3.6875 -4.375 L 2.921875 -4.375 L 2.921875 -4.640625 C 2.921875 -4.910156 2.84375 -5.132812 2.6875 -5.3125 C 2.53125 -5.5 2.316406 -5.59375 2.046875 -5.59375 C 1.753906 -5.59375 1.535156 -5.492188 1.390625 -5.296875 C 1.242188 -5.109375 1.171875 -4.863281 1.171875 -4.5625 C 1.171875 -4.226562 1.269531 -3.976562 1.46875 -3.8125 C 1.664062 -3.65625 1.914062 -3.53125 2.21875 -3.4375 C 2.457031 -3.351562 2.691406 -3.25 2.921875 -3.125 C 3.148438 -3.007812 3.335938 -2.835938 3.484375 -2.609375 C 3.628906 -2.378906 3.703125 -2.070312 3.703125 -1.6875 C 3.703125 -1.351562 3.640625 -1.050781 3.515625 -0.78125 C 3.390625 -0.507812 3.203125 -0.296875 2.953125 -0.140625 C 2.710938 0.015625 2.414062 0.09375 2.0625 0.09375 C 1.707031 0.09375 1.40625 0.015625 1.15625 -0.140625 C 0.90625 -0.296875 0.71875 -0.5 0.59375 -0.75 C 0.46875 -1 0.40625 -1.273438 0.40625 -1.578125 L 0.40625 -1.84375 Z M 1.15625 -1.84375 "/></g></g></g><g fill="#d9d9d9" fill-opacity="1"><g transform="translate(61.887331, 81.233183)"><g><path d="M 1.359375 0 L 0.609375 0 L 0.609375 -6.21875 L 1.359375 -6.21875 Z M 1.359375 0 "/></g></g></g><g fill="#d9d9d9" fill-opacity="1"><g transform="translate(63.867576, 81.233183)"><g><path d="M 2.203125 0 L 1.453125 0 L 1.453125 -5.5 L 0.21875 -5.5 L 0.21875 -6.21875 L 3.421875 -6.21875 L 3.421875 -5.5 L 2.203125 -5.5 Z M 2.203125 0 "/></g></g></g><g fill="#d9d9d9" fill-opacity="1"><g transform="translate(67.517269, 81.233183)"><g><path d="M 3.890625 -4.640625 L 3.890625 -1.578125 C 3.890625 -1.273438 3.820312 -1 3.6875 -0.75 C 3.5625 -0.5 3.375 -0.296875 3.125 -0.140625 C 2.882812 0.015625 2.582031 0.09375 2.21875 0.09375 C 1.851562 0.09375 1.546875 0.015625 1.296875 -0.140625 C 1.046875 -0.296875 0.851562 -0.5 0.71875 -0.75 C 0.59375 -1 0.53125 -1.273438 0.53125 -1.578125 L 0.53125 -4.640625 C 0.53125 -4.929688 0.59375 -5.203125 0.71875 -5.453125 C 0.851562 -5.710938 1.046875 -5.914062 1.296875 -6.0625 C 1.546875 -6.21875 1.851562 -6.296875 2.21875 -6.296875 C 2.582031 -6.296875 2.882812 -6.21875 3.125 -6.0625 C 3.375 -5.914062 3.5625 -5.710938 3.6875 -5.453125 C 3.820312 -5.203125 3.890625 -4.929688 3.890625 -4.640625 Z M 1.296875 -4.640625 L 1.296875 -1.578125 C 1.296875 -1.316406 1.375 -1.09375 1.53125 -0.90625 C 1.6875 -0.71875 1.914062 -0.625 2.21875 -0.625 C 2.507812 -0.625 2.734375 -0.71875 2.890625 -0.90625 C 3.054688 -1.09375 3.140625 -1.316406 3.140625 -1.578125 L 3.140625 -4.640625 C 3.140625 -4.890625 3.054688 -5.109375 2.890625 -5.296875 C 2.734375 -5.492188 2.507812 -5.59375 2.21875 -5.59375 C 1.914062 -5.59375 1.6875 -5.492188 1.53125 -5.296875 C 1.375 -5.109375 1.296875 -4.890625 1.296875 -4.640625 Z M 1.296875 -4.640625 "/></g></g></g><g fill="#d9d9d9" fill-opacity="1"><g transform="translate(71.948401, 81.233183)"><g/></g></g><g fill="#d9d9d9" fill-opacity="1"><g transform="translate(73.600086, 81.233183)"><g><path d="M 3.828125 -4.53125 L 3.828125 -1.6875 C 3.828125 -1.382812 3.765625 -1.101562 3.640625 -0.84375 C 3.523438 -0.59375 3.34375 -0.390625 3.09375 -0.234375 C 2.851562 -0.078125 2.554688 0 2.203125 0 L 0.609375 0 L 0.609375 -6.21875 L 2.203125 -6.21875 C 2.554688 -6.21875 2.851562 -6.140625 3.09375 -5.984375 C 3.34375 -5.828125 3.523438 -5.617188 3.640625 -5.359375 C 3.765625 -5.109375 3.828125 -4.832031 3.828125 -4.53125 Z M 1.359375 -0.703125 L 2.203125 -0.703125 C 2.515625 -0.703125 2.738281 -0.800781 2.875 -1 C 3.007812 -1.195312 3.078125 -1.425781 3.078125 -1.6875 L 3.078125 -4.53125 C 3.078125 -4.789062 3.007812 -5.015625 2.875 -5.203125 C 2.738281 -5.398438 2.515625 -5.5 2.203125 -5.5 L 1.359375 -5.5 Z M 1.359375 -0.703125 "/></g></g></g><g fill="#d9d9d9" fill-opacity="1"><g transform="translate(77.969061, 81.233183)"><g><path d="M 3.484375 0 L 0.609375 0 L 0.609375 -6.21875 L 3.484375 -6.21875 L 3.484375 -5.5 L 1.359375 -5.5 L 1.359375 -3.46875 L 3.046875 -3.46875 L 3.046875 -2.75 L 1.359375 -2.75 L 1.359375 -0.703125 L 3.484375 -0.703125 Z M 3.484375 0 "/></g></g></g><g fill="#d9d9d9" fill-opacity="1"><g transform="translate(81.858514, 81.233183)"><g/></g></g><g fill="#d9d9d9" fill-opacity="1"><g transform="translate(83.510196, 81.233183)"><g><path d="M 2.15625 0 L 0.609375 0 L 0.609375 -6.21875 L 2.0625 -6.21875 C 2.414062 -6.21875 2.710938 -6.140625 2.953125 -5.984375 C 3.203125 -5.828125 3.390625 -5.625 3.515625 -5.375 C 3.640625 -5.125 3.703125 -4.847656 3.703125 -4.546875 L 3.703125 -4.421875 C 3.703125 -4.148438 3.632812 -3.894531 3.5 -3.65625 C 3.363281 -3.425781 3.171875 -3.25 2.921875 -3.125 C 3.203125 -3.007812 3.414062 -2.832031 3.5625 -2.59375 C 3.71875 -2.351562 3.796875 -2.085938 3.796875 -1.796875 L 3.796875 -1.65625 C 3.796875 -1.363281 3.734375 -1.09375 3.609375 -0.84375 C 3.484375 -0.59375 3.296875 -0.390625 3.046875 -0.234375 C 2.804688 -0.078125 2.507812 0 2.15625 0 Z M 3.03125 -1.65625 L 3.03125 -1.796875 C 3.03125 -2.054688 2.957031 -2.28125 2.8125 -2.46875 C 2.675781 -2.65625 2.445312 -2.75 2.125 -2.75 L 1.359375 -2.75 L 1.359375 -0.703125 L 2.15625 -0.703125 C 2.46875 -0.703125 2.691406 -0.796875 2.828125 -0.984375 C 2.960938 -1.179688 3.03125 -1.40625 3.03125 -1.65625 Z M 2.953125 -4.421875 L 2.953125 -4.546875 C 2.953125 -4.804688 2.878906 -5.03125 2.734375 -5.21875 C 2.597656 -5.40625 2.375 -5.5 2.0625 -5.5 L 1.359375 -5.5 L 1.359375 -3.46875 L 2.046875 -3.46875 C 2.359375 -3.46875 2.585938 -3.5625 2.734375 -3.75 C 2.878906 -3.9375 2.953125 -4.160156 2.953125 -4.421875 Z M 2.953125 -4.421875 "/></g></g></g><g fill="#d9d9d9" fill-opacity="1"><g transform="translate(87.808131, 81.233183)"><g><path d="M 3.484375 0 L 0.609375 0 L 0.609375 -6.21875 L 3.484375 -6.21875 L 3.484375 -5.5 L 1.359375 -5.5 L 1.359375 -3.46875 L 3.046875 -3.46875 L 3.046875 -2.75 L 1.359375 -2.75 L 1.359375 -0.703125 L 3.484375 -0.703125 Z M 3.484375 0 "/></g></g></g><g fill="#d9d9d9" fill-opacity="1"><g transform="translate(91.697584, 81.233183)"><g><path d="M 2.15625 0 L 0.609375 0 L 0.609375 -6.21875 L 2.0625 -6.21875 C 2.414062 -6.21875 2.710938 -6.140625 2.953125 -5.984375 C 3.203125 -5.828125 3.390625 -5.625 3.515625 -5.375 C 3.640625 -5.125 3.703125 -4.847656 3.703125 -4.546875 L 3.703125 -4.421875 C 3.703125 -4.148438 3.632812 -3.894531 3.5 -3.65625 C 3.363281 -3.425781 3.171875 -3.25 2.921875 -3.125 C 3.203125 -3.007812 3.414062 -2.832031 3.5625 -2.59375 C 3.71875 -2.351562 3.796875 -2.085938 3.796875 -1.796875 L 3.796875 -1.65625 C 3.796875 -1.363281 3.734375 -1.09375 3.609375 -0.84375 C 3.484375 -0.59375 3.296875 -0.390625 3.046875 -0.234375 C 2.804688 -0.078125 2.507812 0 2.15625 0 Z M 3.03125 -1.65625 L 3.03125 -1.796875 C 3.03125 -2.054688 2.957031 -2.28125 2.8125 -2.46875 C 2.675781 -2.65625 2.445312 -2.75 2.125 -2.75 L 1.359375 -2.75 L 1.359375 -0.703125 L 2.15625 -0.703125 C 2.46875 -0.703125 2.691406 -0.796875 2.828125 -0.984375 C 2.960938 -1.179688 3.03125 -1.40625 3.03125 -1.65625 Z M 2.953125 -4.421875 L 2.953125 -4.546875 C 2.953125 -4.804688 2.878906 -5.03125 2.734375 -5.21875 C 2.597656 -5.40625 2.375 -5.5 2.0625 -5.5 L 1.359375 -5.5 L 1.359375 -3.46875 L 2.046875 -3.46875 C 2.359375 -3.46875 2.585938 -3.5625 2.734375 -3.75 C 2.878906 -3.9375 2.953125 -4.160156 2.953125 -4.421875 Z M 2.953125 -4.421875 "/></g></g></g><g fill="#d9d9d9" fill-opacity="1"><g transform="translate(95.995515, 81.233183)"><g><path d="M 1.359375 0 L 0.609375 0 L 0.609375 -6.21875 L 1.359375 -6.21875 Z M 1.359375 0 "/></g></g></g><g fill="#d9d9d9" fill-opacity="1"><g transform="translate(97.97576, 81.233183)"><g><path d="M 3.828125 -4.53125 L 3.828125 -1.6875 C 3.828125 -1.382812 3.765625 -1.101562 3.640625 -0.84375 C 3.523438 -0.59375 3.34375 -0.390625 3.09375 -0.234375 C 2.851562 -0.078125 2.554688 0 2.203125 0 L 0.609375 0 L 0.609375 -6.21875 L 2.203125 -6.21875 C 2.554688 -6.21875 2.851562 -6.140625 3.09375 -5.984375 C 3.34375 -5.828125 3.523438 -5.617188 3.640625 -5.359375 C 3.765625 -5.109375 3.828125 -4.832031 3.828125 -4.53125 Z M 1.359375 -0.703125 L 2.203125 -0.703125 C 2.515625 -0.703125 2.738281 -0.800781 2.875 -1 C 3.007812 -1.195312 3.078125 -1.425781 3.078125 -1.6875 L 3.078125 -4.53125 C 3.078125 -4.789062 3.007812 -5.015625 2.875 -5.203125 C 2.738281 -5.398438 2.515625 -5.5 2.203125 -5.5 L 1.359375 -5.5 Z M 1.359375 -0.703125 "/></g></g></g><g fill="#d9d9d9" fill-opacity="1"><g transform="translate(102.344733, 81.233183)"><g><path d="M 4.3125 0 L 3.546875 0 L 3.15625 -1.5 L 1.359375 -1.5 L 0.96875 0 L 0.21875 0 L 1.84375 -6.21875 L 2.6875 -6.21875 Z M 2.96875 -2.203125 L 2.5625 -3.828125 C 2.488281 -4.097656 2.429688 -4.367188 2.390625 -4.640625 C 2.359375 -4.921875 2.316406 -5.195312 2.265625 -5.46875 L 2.25 -5.46875 C 2.207031 -5.195312 2.164062 -4.921875 2.125 -4.640625 C 2.09375 -4.367188 2.039062 -4.097656 1.96875 -3.828125 L 1.546875 -2.203125 Z M 2.96875 -2.203125 "/></g></g></g><g fill="#d9d9d9" fill-opacity="1"><g transform="translate(106.873546, 81.233183)"><g><path d="M 1.15625 -1.84375 L 1.15625 -1.578125 C 1.15625 -1.296875 1.234375 -1.0625 1.390625 -0.875 C 1.546875 -0.695312 1.765625 -0.609375 2.046875 -0.609375 C 2.347656 -0.609375 2.570312 -0.703125 2.71875 -0.890625 C 2.875 -1.085938 2.953125 -1.335938 2.953125 -1.640625 C 2.953125 -1.867188 2.90625 -2.050781 2.8125 -2.1875 C 2.71875 -2.332031 2.59375 -2.445312 2.4375 -2.53125 C 2.289062 -2.613281 2.128906 -2.6875 1.953125 -2.75 C 1.773438 -2.8125 1.59375 -2.878906 1.40625 -2.953125 C 1.226562 -3.023438 1.0625 -3.117188 0.90625 -3.234375 C 0.757812 -3.359375 0.640625 -3.519531 0.546875 -3.71875 C 0.460938 -3.925781 0.421875 -4.195312 0.421875 -4.53125 C 0.421875 -4.875 0.484375 -5.175781 0.609375 -5.4375 C 0.734375 -5.707031 0.914062 -5.914062 1.15625 -6.0625 C 1.394531 -6.21875 1.6875 -6.296875 2.03125 -6.296875 C 2.394531 -6.296875 2.695312 -6.21875 2.9375 -6.0625 C 3.1875 -5.914062 3.375 -5.710938 3.5 -5.453125 C 3.625 -5.203125 3.6875 -4.929688 3.6875 -4.640625 L 3.6875 -4.375 L 2.921875 -4.375 L 2.921875 -4.640625 C 2.921875 -4.910156 2.84375 -5.132812 2.6875 -5.3125 C 2.53125 -5.5 2.316406 -5.59375 2.046875 -5.59375 C 1.753906 -5.59375 1.535156 -5.492188 1.390625 -5.296875 C 1.242188 -5.109375 1.171875 -4.863281 1.171875 -4.5625 C 1.171875 -4.226562 1.269531 -3.976562 1.46875 -3.8125 C 1.664062 -3.65625 1.914062 -3.53125 2.21875 -3.4375 C 2.457031 -3.351562 2.691406 -3.25 2.921875 -3.125 C 3.148438 -3.007812 3.335938 -2.835938 3.484375 -2.609375 C 3.628906 -2.378906 3.703125 -2.070312 3.703125 -1.6875 C 3.703125 -1.351562 3.640625 -1.050781 3.515625 -0.78125 C 3.390625 -0.507812 3.203125 -0.296875 2.953125 -0.140625 C 2.710938 0.015625 2.414062 0.09375 2.0625 0.09375 C 1.707031 0.09375 1.40625 0.015625 1.15625 -0.140625 C 0.90625 -0.296875 0.71875 -0.5 0.59375 -0.75 C 0.46875 -1 0.40625 -1.273438 0.40625 -1.578125 L 0.40625 -1.84375 Z M 1.15625 -1.84375 "/></g></g></g><g fill="#d9d9d9" fill-opacity="1"><g transform="translate(33.721239, 70.066113)"><g><path d="M 7.453125 -7.796875 C 7.960938 -8.285156 8.46875 -8.785156 8.96875 -9.296875 C 9.46875 -9.804688 9.890625 -10.289062 10.234375 -10.75 C 10.585938 -11.21875 10.765625 -11.617188 10.765625 -11.953125 C 10.398438 -11.953125 10.21875 -12.132812 10.21875 -12.5 C 10.644531 -12.5 11.023438 -12.617188 11.359375 -12.859375 C 11.691406 -13.109375 12 -13.375 12.28125 -13.65625 C 12.570312 -13.375 12.882812 -13.109375 13.21875 -12.859375 C 13.550781 -12.617188 13.929688 -12.5 14.359375 -12.5 C 14.359375 -12.132812 14.175781 -11.953125 13.8125 -11.953125 L 13.8125 -6.765625 C 13.988281 -6.765625 14.125 -6.71875 14.21875 -6.625 C 14.3125 -6.539062 14.398438 -6.453125 14.484375 -6.359375 C 14.578125 -6.265625 14.710938 -6.21875 14.890625 -6.21875 C 14.515625 -6.113281 14.238281 -5.972656 14.0625 -5.796875 C 13.894531 -5.617188 13.8125 -5.328125 13.8125 -4.921875 L 13.8125 -1.75 C 14.175781 -1.75 14.359375 -1.566406 14.359375 -1.203125 C 13.929688 -1.203125 13.550781 -1.070312 13.21875 -0.8125 C 12.882812 -0.550781 12.570312 -0.28125 12.28125 0 C 12 -0.28125 11.691406 -0.550781 11.359375 -0.8125 C 11.023438 -1.070312 10.644531 -1.203125 10.21875 -1.203125 C 10.21875 -1.566406 10.398438 -1.75 10.765625 -1.75 L 10.765625 -7.5 C 10.398438 -7.144531 9.992188 -6.804688 9.546875 -6.484375 C 9.097656 -6.171875 8.679688 -5.84375 8.296875 -5.5 C 7.921875 -5.164062 7.640625 -4.773438 7.453125 -4.328125 C 7.265625 -4.773438 6.976562 -5.164062 6.59375 -5.5 C 6.207031 -5.84375 5.796875 -6.171875 5.359375 -6.484375 C 4.921875 -6.804688 4.519531 -7.144531 4.15625 -7.5 L 4.15625 -1.75 C 4.300781 -1.75 4.425781 -1.695312 4.53125 -1.59375 C 4.632812 -1.488281 4.6875 -1.359375 4.6875 -1.203125 C 4.257812 -1.203125 3.878906 -1.070312 3.546875 -0.8125 C 3.222656 -0.550781 2.914062 -0.28125 2.625 0 C 2.320312 -0.28125 2.007812 -0.550781 1.6875 -0.8125 C 1.363281 -1.070312 0.988281 -1.203125 0.5625 -1.203125 C 0.5625 -1.359375 0.609375 -1.488281 0.703125 -1.59375 C 0.804688 -1.695312 0.9375 -1.75 1.09375 -1.75 L 1.09375 -4.921875 C 1.09375 -5.328125 1.007812 -5.617188 0.84375 -5.796875 C 0.675781 -5.972656 0.394531 -6.113281 0 -6.21875 C 0.175781 -6.21875 0.3125 -6.265625 0.40625 -6.359375 C 0.507812 -6.453125 0.609375 -6.539062 0.703125 -6.625 C 0.796875 -6.71875 0.925781 -6.765625 1.09375 -6.765625 L 1.09375 -11.953125 C 0.9375 -11.953125 0.804688 -12 0.703125 -12.09375 C 0.609375 -12.195312 0.5625 -12.332031 0.5625 -12.5 C 0.988281 -12.5 1.363281 -12.617188 1.6875 -12.859375 C 2.007812 -13.109375 2.320312 -13.375 2.625 -13.65625 C 2.914062 -13.375 3.222656 -13.109375 3.546875 -12.859375 C 3.878906 -12.617188 4.257812 -12.5 4.6875 -12.5 C 4.6875 -12.332031 4.632812 -12.195312 4.53125 -12.09375 C 4.425781 -12 4.300781 -11.953125 4.15625 -11.953125 C 4.15625 -11.617188 4.320312 -11.21875 4.65625 -10.75 C 5 -10.289062 5.425781 -9.800781 5.9375 -9.28125 C 6.445312 -8.757812 6.953125 -8.265625 7.453125 -7.796875 Z M 7.453125 -7.796875 "/></g></g></g><g fill="#d9d9d9" fill-opacity="1"><g transform="translate(48.373665, 70.066113)"><g><path d="M 1.0625 -1.703125 C 1.101562 -2.753906 1.117188 -3.515625 1.109375 -3.984375 C 1.109375 -4.460938 1.097656 -4.769531 1.078125 -4.90625 C 1.054688 -5.050781 1.046875 -5.132812 1.046875 -5.15625 C 0.921875 -5.382812 0.78125 -5.609375 0.625 -5.828125 C 0.476562 -6.046875 0.289062 -6.164062 0.0625 -6.1875 C 0.207031 -6.21875 0.320312 -6.273438 0.40625 -6.359375 C 0.488281 -6.453125 0.578125 -6.539062 0.671875 -6.625 C 0.773438 -6.71875 0.90625 -6.765625 1.0625 -6.765625 L 1.0625 -11.921875 L 1 -11.921875 C 0.882812 -11.953125 0.765625 -12.003906 0.640625 -12.078125 C 0.523438 -12.148438 0.46875 -12.242188 0.46875 -12.359375 C 0.894531 -12.484375 1.269531 -12.648438 1.59375 -12.859375 C 1.925781 -13.078125 2.238281 -13.332031 2.53125 -13.625 C 2.988281 -13.1875 3.488281 -12.898438 4.03125 -12.765625 C 4.582031 -12.628906 5.125 -12.640625 5.65625 -12.796875 C 6.195312 -12.953125 6.664062 -13.226562 7.0625 -13.625 C 7.707031 -12.96875 8.195312 -12.28125 8.53125 -11.5625 C 8.863281 -10.851562 9.046875 -10.160156 9.078125 -9.484375 C 9.097656 -8.617188 8.890625 -7.878906 8.453125 -7.265625 C 8.015625 -6.648438 7.429688 -6.140625 6.703125 -5.734375 L 7.59375 -4.15625 L 7.96875 -3.484375 L 9 -1.703125 C 9.15625 -1.703125 9.3125 -1.648438 9.46875 -1.546875 C 9.632812 -1.453125 9.765625 -1.328125 9.859375 -1.171875 C 9.441406 -1.171875 9.144531 -1.046875 8.96875 -0.796875 C 8.800781 -0.554688 8.660156 -0.289062 8.546875 0 C 8.097656 -0.289062 7.65625 -0.554688 7.21875 -0.796875 C 6.789062 -1.046875 6.359375 -1.171875 5.921875 -1.171875 C 5.835938 -1.328125 5.816406 -1.453125 5.859375 -1.546875 C 5.898438 -1.648438 6 -1.703125 6.15625 -1.703125 L 5.125 -3.484375 L 3.9375 -5.59375 L 3.90625 -5.59375 L 3.90625 -1.703125 C 4.050781 -1.691406 4.179688 -1.640625 4.296875 -1.546875 C 4.410156 -1.460938 4.46875 -1.351562 4.46875 -1.21875 C 4.03125 -1.144531 3.65625 -0.992188 3.34375 -0.765625 C 3.039062 -0.535156 2.753906 -0.28125 2.484375 0 L 2.4375 -0.0625 C 1.90625 -0.539062 1.515625 -0.84375 1.265625 -0.96875 C 1.015625 -1.09375 0.769531 -1.171875 0.53125 -1.203125 C 0.5625 -1.335938 0.625 -1.453125 0.71875 -1.546875 C 0.8125 -1.648438 0.925781 -1.703125 1.0625 -1.703125 Z M 3.90625 -11.28125 L 3.90625 -6.859375 C 4.582031 -6.859375 5.15625 -7.046875 5.625 -7.421875 C 6.101562 -7.804688 6.367188 -8.320312 6.421875 -8.96875 C 6.421875 -9.726562 6.179688 -10.300781 5.703125 -10.6875 C 5.234375 -11.082031 4.632812 -11.28125 3.90625 -11.28125 Z M 3.90625 -11.28125 "/></g></g></g><g fill="#d9d9d9" fill-opacity="1"><g transform="translate(57.986544, 70.066113)"><g><path d="M 0.0625 -1.484375 C 0.0625 -1.867188 0.210938 -2.234375 0.515625 -2.578125 C 0.847656 -2.867188 1.207031 -3.015625 1.59375 -3.015625 C 2.03125 -3.015625 2.394531 -2.867188 2.6875 -2.578125 C 2.976562 -2.273438 3.125 -1.910156 3.125 -1.484375 C 3.125 -1.085938 2.976562 -0.71875 2.6875 -0.375 C 2.394531 -0.0820312 2.03125 0.0625 1.59375 0.0625 C 1.1875 0.0625 0.828125 -0.09375 0.515625 -0.40625 C 0.210938 -0.695312 0.0625 -1.054688 0.0625 -1.484375 Z M 0.0625 -1.484375 "/></g></g></g><g fill="#d9d9d9" fill-opacity="1"><g transform="translate(60.872621, 70.066113)"><g/></g></g><g fill="#d9d9d9" fill-opacity="1"><g transform="translate(66.911192, 70.066113)"><g><path d="M 4.078125 -11.375 L 4.078125 -2.28125 C 4.804688 -2.28125 5.40625 -2.503906 5.875 -2.953125 C 6.351562 -3.398438 6.710938 -3.96875 6.953125 -4.65625 C 7.191406 -5.34375 7.3125 -6.0625 7.3125 -6.8125 C 7.3125 -7.582031 7.191406 -8.3125 6.953125 -9 C 6.710938 -9.6875 6.351562 -10.253906 5.875 -10.703125 C 5.40625 -11.148438 4.804688 -11.375 4.078125 -11.375 Z M 9.96875 -6.8125 C 9.96875 -6.300781 9.882812 -5.722656 9.71875 -5.078125 C 9.5625 -4.429688 9.347656 -3.785156 9.078125 -3.140625 C 8.816406 -2.492188 8.519531 -1.894531 8.1875 -1.34375 C 7.863281 -0.789062 7.53125 -0.34375 7.1875 0 C 6.78125 -0.375 6.300781 -0.597656 5.75 -0.671875 C 5.195312 -0.742188 4.644531 -0.710938 4.09375 -0.578125 C 3.539062 -0.441406 3.050781 -0.25 2.625 0 C 2.382812 -0.25 2.070312 -0.503906 1.6875 -0.765625 C 1.300781 -1.023438 0.925781 -1.15625 0.5625 -1.15625 L 0.5625 -1.203125 C 0.5625 -1.535156 0.738281 -1.71875 1.09375 -1.75 C 1.09375 -2.15625 1.109375 -2.59375 1.140625 -3.0625 C 1.179688 -3.539062 1.1875 -3.992188 1.15625 -4.421875 C 1.132812 -4.859375 1.039062 -5.238281 0.875 -5.5625 C 0.707031 -5.882812 0.414062 -6.101562 0 -6.21875 C 0.164062 -6.21875 0.296875 -6.265625 0.390625 -6.359375 C 0.484375 -6.453125 0.582031 -6.539062 0.6875 -6.625 C 0.789062 -6.71875 0.925781 -6.765625 1.09375 -6.765625 L 1.09375 -11.875 C 0.738281 -11.875 0.5625 -12.0625 0.5625 -12.4375 L 0.5625 -12.484375 C 0.820312 -12.484375 1.066406 -12.53125 1.296875 -12.625 C 1.523438 -12.726562 1.742188 -12.863281 1.953125 -13.03125 C 2.066406 -13.132812 2.179688 -13.238281 2.296875 -13.34375 C 2.410156 -13.445312 2.519531 -13.550781 2.625 -13.65625 C 3.125 -13.5625 3.644531 -13.429688 4.1875 -13.265625 C 4.738281 -13.109375 5.273438 -13.035156 5.796875 -13.046875 C 6.328125 -13.054688 6.789062 -13.25 7.1875 -13.625 C 7.90625 -12.945312 8.46875 -12.300781 8.875 -11.6875 C 9.28125 -11.070312 9.5625 -10.382812 9.71875 -9.625 C 9.882812 -8.875 9.96875 -7.9375 9.96875 -6.8125 Z M 9.96875 -6.8125 "/></g></g></g><g fill="#d9d9d9" fill-opacity="1"><g transform="translate(76.635069, 70.066113)"><g><path d="M 1.0625 -1.703125 C 1.101562 -2.753906 1.117188 -3.515625 1.109375 -3.984375 C 1.109375 -4.460938 1.097656 -4.769531 1.078125 -4.90625 C 1.054688 -5.050781 1.046875 -5.132812 1.046875 -5.15625 C 0.921875 -5.382812 0.78125 -5.609375 0.625 -5.828125 C 0.476562 -6.046875 0.289062 -6.164062 0.0625 -6.1875 C 0.207031 -6.21875 0.320312 -6.273438 0.40625 -6.359375 C 0.488281 -6.453125 0.578125 -6.539062 0.671875 -6.625 C 0.773438 -6.71875 0.90625 -6.765625 1.0625 -6.765625 L 1.0625 -11.921875 L 1 -11.921875 C 0.882812 -11.953125 0.765625 -12.003906 0.640625 -12.078125 C 0.523438 -12.148438 0.46875 -12.242188 0.46875 -12.359375 C 0.894531 -12.484375 1.269531 -12.648438 1.59375 -12.859375 C 1.925781 -13.078125 2.238281 -13.332031 2.53125 -13.625 C 2.988281 -13.1875 3.488281 -12.898438 4.03125 -12.765625 C 4.582031 -12.628906 5.125 -12.640625 5.65625 -12.796875 C 6.195312 -12.953125 6.664062 -13.226562 7.0625 -13.625 C 7.707031 -12.96875 8.195312 -12.28125 8.53125 -11.5625 C 8.863281 -10.851562 9.046875 -10.160156 9.078125 -9.484375 C 9.097656 -8.617188 8.890625 -7.878906 8.453125 -7.265625 C 8.015625 -6.648438 7.429688 -6.140625 6.703125 -5.734375 L 7.59375 -4.15625 L 7.96875 -3.484375 L 9 -1.703125 C 9.15625 -1.703125 9.3125 -1.648438 9.46875 -1.546875 C 9.632812 -1.453125 9.765625 -1.328125 9.859375 -1.171875 C 9.441406 -1.171875 9.144531 -1.046875 8.96875 -0.796875 C 8.800781 -0.554688 8.660156 -0.289062 8.546875 0 C 8.097656 -0.289062 7.65625 -0.554688 7.21875 -0.796875 C 6.789062 -1.046875 6.359375 -1.171875 5.921875 -1.171875 C 5.835938 -1.328125 5.816406 -1.453125 5.859375 -1.546875 C 5.898438 -1.648438 6 -1.703125 6.15625 -1.703125 L 5.125 -3.484375 L 3.9375 -5.59375 L 3.90625 -5.59375 L 3.90625 -1.703125 C 4.050781 -1.691406 4.179688 -1.640625 4.296875 -1.546875 C 4.410156 -1.460938 4.46875 -1.351562 4.46875 -1.21875 C 4.03125 -1.144531 3.65625 -0.992188 3.34375 -0.765625 C 3.039062 -0.535156 2.753906 -0.28125 2.484375 0 L 2.4375 -0.0625 C 1.90625 -0.539062 1.515625 -0.84375 1.265625 -0.96875 C 1.015625 -1.09375 0.769531 -1.171875 0.53125 -1.203125 C 0.5625 -1.335938 0.625 -1.453125 0.71875 -1.546875 C 0.8125 -1.648438 0.925781 -1.703125 1.0625 -1.703125 Z M 3.90625 -11.28125 L 3.90625 -6.859375 C 4.582031 -6.859375 5.15625 -7.046875 5.625 -7.421875 C 6.101562 -7.804688 6.367188 -8.320312 6.421875 -8.96875 C 6.421875 -9.726562 6.179688 -10.300781 5.703125 -10.6875 C 5.234375 -11.082031 4.632812 -11.28125 3.90625 -11.28125 Z M 3.90625 -11.28125 "/></g></g></g><g fill="#d9d9d9" fill-opacity="1"><g transform="translate(86.247949, 70.066113)"><g><path d="M 4.125 -11.953125 L 4.125 -6.796875 C 4.300781 -6.796875 4.4375 -6.742188 4.53125 -6.640625 C 4.632812 -6.546875 4.734375 -6.453125 4.828125 -6.359375 C 4.921875 -6.265625 5.050781 -6.21875 5.21875 -6.21875 C 4.800781 -6.101562 4.503906 -5.878906 4.328125 -5.546875 C 4.148438 -5.222656 4.050781 -4.84375 4.03125 -4.40625 C 4.019531 -3.96875 4.03125 -3.515625 4.0625 -3.046875 C 4.101562 -2.585938 4.125 -2.148438 4.125 -1.734375 C 4.289062 -1.734375 4.425781 -1.679688 4.53125 -1.578125 C 4.632812 -1.472656 4.6875 -1.347656 4.6875 -1.203125 C 4.257812 -1.203125 3.878906 -1.070312 3.546875 -0.8125 C 3.210938 -0.5625 2.90625 -0.289062 2.625 0 C 2.320312 -0.289062 2.003906 -0.5625 1.671875 -0.8125 C 1.335938 -1.070312 0.957031 -1.203125 0.53125 -1.203125 C 0.53125 -1.347656 0.582031 -1.472656 0.6875 -1.578125 C 0.789062 -1.679688 0.925781 -1.734375 1.09375 -1.734375 C 1.09375 -2.148438 1.109375 -2.585938 1.140625 -3.046875 C 1.179688 -3.515625 1.191406 -3.96875 1.171875 -4.40625 C 1.160156 -4.84375 1.066406 -5.222656 0.890625 -5.546875 C 0.722656 -5.878906 0.425781 -6.101562 0 -6.21875 C 0.175781 -6.21875 0.3125 -6.265625 0.40625 -6.359375 C 0.507812 -6.453125 0.601562 -6.546875 0.6875 -6.640625 C 0.78125 -6.742188 0.914062 -6.796875 1.09375 -6.796875 L 1.09375 -11.953125 C 0.925781 -11.953125 0.789062 -12 0.6875 -12.09375 C 0.582031 -12.195312 0.53125 -12.328125 0.53125 -12.484375 C 0.957031 -12.484375 1.335938 -12.601562 1.671875 -12.84375 C 2.003906 -13.082031 2.320312 -13.351562 2.625 -13.65625 C 2.90625 -13.351562 3.210938 -13.082031 3.546875 -12.84375 C 3.878906 -12.601562 4.257812 -12.484375 4.6875 -12.484375 C 4.6875 -12.328125 4.632812 -12.195312 4.53125 -12.09375 C 4.425781 -12 4.289062 -11.953125 4.125 -11.953125 Z M 4.125 -11.953125 "/></g></g></g><g fill="#d9d9d9" fill-opacity="1"><g transform="translate(91.220887, 70.066113)"><g><path d="M 1.09375 -1.734375 C 1.09375 -2.128906 1.109375 -2.5625 1.140625 -3.03125 C 1.179688 -3.5 1.191406 -3.953125 1.171875 -4.390625 C 1.160156 -4.828125 1.066406 -5.207031 0.890625 -5.53125 C 0.722656 -5.851562 0.425781 -6.070312 0 -6.1875 C 0.175781 -6.1875 0.3125 -6.234375 0.40625 -6.328125 C 0.507812 -6.429688 0.609375 -6.53125 0.703125 -6.625 C 0.796875 -6.71875 0.925781 -6.765625 1.09375 -6.765625 L 1.09375 -11.953125 C 0.9375 -11.953125 0.804688 -12 0.703125 -12.09375 C 0.609375 -12.195312 0.5625 -12.328125 0.5625 -12.484375 C 0.988281 -12.484375 1.363281 -12.601562 1.6875 -12.84375 C 2.007812 -13.082031 2.320312 -13.351562 2.625 -13.65625 C 2.90625 -13.351562 3.210938 -13.082031 3.546875 -12.84375 C 3.878906 -12.601562 4.257812 -12.484375 4.6875 -12.484375 C 4.6875 -12.328125 4.632812 -12.195312 4.53125 -12.09375 C 4.425781 -12 4.289062 -11.953125 4.125 -11.953125 C 4.125 -11.671875 4.253906 -11.332031 4.515625 -10.9375 C 4.785156 -10.539062 5.128906 -10.117188 5.546875 -9.671875 C 5.960938 -9.222656 6.398438 -8.78125 6.859375 -8.34375 C 7.316406 -7.90625 7.753906 -7.492188 8.171875 -7.109375 C 8.585938 -6.734375 8.921875 -6.421875 9.171875 -6.171875 L 9.171875 -11.953125 C 9.023438 -11.953125 8.898438 -12 8.796875 -12.09375 C 8.691406 -12.195312 8.640625 -12.328125 8.640625 -12.484375 C 9.066406 -12.484375 9.441406 -12.601562 9.765625 -12.84375 C 10.097656 -13.082031 10.410156 -13.351562 10.703125 -13.65625 C 10.984375 -13.351562 11.289062 -13.082031 11.625 -12.84375 C 11.957031 -12.601562 12.335938 -12.484375 12.765625 -12.484375 C 12.765625 -12.328125 12.710938 -12.195312 12.609375 -12.09375 C 12.503906 -12 12.375 -11.953125 12.21875 -11.953125 L 12.21875 -6.765625 C 12.394531 -6.765625 12.53125 -6.71875 12.625 -6.625 C 12.71875 -6.53125 12.8125 -6.429688 12.90625 -6.328125 C 13.007812 -6.234375 13.140625 -6.1875 13.296875 -6.1875 C 12.878906 -6.070312 12.582031 -5.851562 12.40625 -5.53125 C 12.226562 -5.21875 12.128906 -4.84375 12.109375 -4.40625 C 12.097656 -3.96875 12.113281 -3.507812 12.15625 -3.03125 C 12.195312 -2.5625 12.21875 -2.128906 12.21875 -1.734375 C 12.375 -1.734375 12.503906 -1.679688 12.609375 -1.578125 C 12.710938 -1.472656 12.765625 -1.347656 12.765625 -1.203125 C 12.335938 -1.203125 11.957031 -1.070312 11.625 -0.8125 C 11.289062 -0.5625 10.984375 -0.289062 10.703125 0 C 10.410156 -0.289062 10.097656 -0.5625 9.765625 -0.8125 C 9.441406 -1.070312 9.066406 -1.203125 8.640625 -1.203125 C 8.640625 -1.347656 8.691406 -1.472656 8.796875 -1.578125 C 8.898438 -1.679688 9.023438 -1.734375 9.171875 -1.734375 C 9.171875 -2.054688 9.019531 -2.425781 8.71875 -2.84375 C 8.414062 -3.257812 8.046875 -3.6875 7.609375 -4.125 C 7.171875 -4.570312 6.734375 -4.988281 6.296875 -5.375 C 5.859375 -5.769531 5.503906 -6.101562 5.234375 -6.375 L 4.125 -7.484375 L 4.125 -1.734375 C 4.289062 -1.734375 4.425781 -1.679688 4.53125 -1.578125 C 4.632812 -1.472656 4.6875 -1.347656 4.6875 -1.203125 C 4.257812 -1.203125 3.878906 -1.070312 3.546875 -0.8125 C 3.210938 -0.5625 2.90625 -0.289062 2.625 0 C 2.320312 -0.289062 2.007812 -0.5625 1.6875 -0.8125 C 1.363281 -1.070312 0.988281 -1.203125 0.5625 -1.203125 C 0.5625 -1.347656 0.609375 -1.472656 0.703125 -1.578125 C 0.804688 -1.679688 0.9375 -1.734375 1.09375 -1.734375 Z M 1.09375 -1.734375 "/></g></g></g><g fill="#d9d9d9" fill-opacity="1"><g transform="translate(104.274867, 70.066113)"><g><path d="M 4.125 -8.28125 L 7.21875 -11.953125 C 7.070312 -11.953125 6.988281 -12 6.96875 -12.09375 C 6.957031 -12.195312 7.019531 -12.328125 7.15625 -12.484375 C 7.582031 -12.484375 8.066406 -12.601562 8.609375 -12.84375 C 9.148438 -13.082031 9.675781 -13.351562 10.1875 -13.65625 C 10.238281 -13.351562 10.328125 -13.082031 10.453125 -12.84375 C 10.578125 -12.601562 10.851562 -12.484375 11.28125 -12.484375 C 11.144531 -12.328125 10.976562 -12.195312 10.78125 -12.09375 C 10.59375 -12 10.425781 -11.953125 10.28125 -11.953125 L 5.953125 -6.84375 L 10.28125 -1.734375 C 10.425781 -1.734375 10.59375 -1.679688 10.78125 -1.578125 C 10.976562 -1.472656 11.144531 -1.347656 11.28125 -1.203125 C 10.851562 -1.203125 10.578125 -1.070312 10.453125 -0.8125 C 10.328125 -0.5625 10.238281 -0.289062 10.1875 0 C 9.675781 -0.289062 9.148438 -0.5625 8.609375 -0.8125 C 8.066406 -1.070312 7.582031 -1.203125 7.15625 -1.203125 C 7.019531 -1.347656 6.957031 -1.472656 6.96875 -1.578125 C 6.988281 -1.679688 7.070312 -1.734375 7.21875 -1.734375 L 4.4375 -5.046875 L 4.125 -4.6875 L 4.125 -1.734375 C 4.289062 -1.734375 4.425781 -1.679688 4.53125 -1.578125 C 4.632812 -1.472656 4.6875 -1.347656 4.6875 -1.203125 C 4.257812 -1.203125 3.878906 -1.070312 3.546875 -0.8125 C 3.210938 -0.5625 2.894531 -0.289062 2.59375 0 C 2.3125 -0.289062 2.003906 -0.5625 1.671875 -0.8125 C 1.335938 -1.070312 0.957031 -1.203125 0.53125 -1.203125 C 0.53125 -1.347656 0.582031 -1.472656 0.6875 -1.578125 C 0.789062 -1.679688 0.925781 -1.734375 1.09375 -1.734375 C 1.09375 -2.148438 1.109375 -2.585938 1.140625 -3.046875 C 1.179688 -3.515625 1.191406 -3.96875 1.171875 -4.40625 C 1.160156 -4.84375 1.066406 -5.222656 0.890625 -5.546875 C 0.722656 -5.878906 0.425781 -6.101562 0 -6.21875 C 0.164062 -6.21875 0.296875 -6.265625 0.390625 -6.359375 C 0.484375 -6.453125 0.582031 -6.546875 0.6875 -6.640625 C 0.789062 -6.742188 0.925781 -6.796875 1.09375 -6.796875 L 1.09375 -11.953125 C 0.925781 -11.953125 0.789062 -12 0.6875 -12.09375 C 0.582031 -12.195312 0.53125 -12.328125 0.53125 -12.484375 C 0.957031 -12.484375 1.335938 -12.601562 1.671875 -12.84375 C 2.003906 -13.082031 2.3125 -13.351562 2.59375 -13.65625 C 2.894531 -13.351562 3.210938 -13.082031 3.546875 -12.84375 C 3.878906 -12.601562 4.257812 -12.484375 4.6875 -12.484375 C 4.6875 -12.328125 4.632812 -12.195312 4.53125 -12.09375 C 4.425781 -12 4.289062 -11.953125 4.125 -11.953125 Z M 4.125 -8.28125 "/></g></g></g><g fill="#d9d9d9" fill-opacity="1"><g transform="translate(64.457849, 110.82907)"><g><path d="M 1 -0.703125 L 0.3125 -0.890625 L 0.375 -1.15625 L 1.0625 -0.96875 Z M 1 -0.703125 "/></g></g></g><g fill="#d9d9d9" fill-opacity="1"><g transform="translate(65.333163, 111.05629)"><g/></g></g><g fill="#d9d9d9" fill-opacity="1"><g transform="translate(66.160529, 111.263097)"><g><path d="M 0.265625 0.046875 L 0.75 -2.421875 L 1.34375 -2.296875 C 1.625 -2.242188 1.828125 -2.113281 1.953125 -1.90625 C 2.085938 -1.695312 2.117188 -1.425781 2.046875 -1.09375 L 1.96875 -0.6875 C 1.90625 -0.351562 1.773438 -0.113281 1.578125 0.03125 C 1.378906 0.175781 1.128906 0.222656 0.828125 0.171875 Z M 1.015625 -2.09375 L 0.625 -0.15625 L 0.875 -0.09375 C 1.09375 -0.0507812 1.265625 -0.0820312 1.390625 -0.1875 C 1.515625 -0.289062 1.601562 -0.46875 1.65625 -0.71875 L 1.75 -1.15625 C 1.789062 -1.414062 1.773438 -1.613281 1.703125 -1.75 C 1.640625 -1.894531 1.503906 -1.988281 1.296875 -2.03125 Z M 1.015625 -2.09375 "/></g></g></g><g fill="#d9d9d9" fill-opacity="1"><g transform="translate(68.201245, 111.664197)"><g><path d="M 1.640625 -0.9375 L 0.765625 -1.0625 L 0.625 -0.171875 L 1.640625 -0.03125 L 1.609375 0.234375 L 0.265625 0.03125 L 0.640625 -2.453125 L 1.96875 -2.25 L 1.921875 -1.984375 L 0.921875 -2.125 L 0.8125 -1.328125 L 1.6875 -1.203125 Z M 1.640625 -0.9375 "/></g></g></g><g fill="#d9d9d9" fill-opacity="1"><g transform="translate(69.995248, 111.930123)"><g><path d="M 1.4375 -0.5 C 1.445312 -0.625 1.421875 -0.722656 1.359375 -0.796875 C 1.304688 -0.867188 1.191406 -0.945312 1.015625 -1.03125 C 0.847656 -1.113281 0.71875 -1.191406 0.625 -1.265625 C 0.539062 -1.347656 0.476562 -1.4375 0.4375 -1.53125 C 0.40625 -1.625 0.394531 -1.726562 0.40625 -1.84375 C 0.425781 -2.039062 0.507812 -2.195312 0.65625 -2.3125 C 0.800781 -2.425781 0.984375 -2.472656 1.203125 -2.453125 C 1.347656 -2.441406 1.472656 -2.394531 1.578125 -2.3125 C 1.679688 -2.226562 1.753906 -2.125 1.796875 -2 C 1.847656 -1.875 1.867188 -1.742188 1.859375 -1.609375 L 1.5625 -1.640625 C 1.570312 -1.796875 1.539062 -1.921875 1.46875 -2.015625 C 1.40625 -2.109375 1.304688 -2.160156 1.171875 -2.171875 C 1.046875 -2.179688 0.941406 -2.15625 0.859375 -2.09375 C 0.773438 -2.03125 0.726562 -1.9375 0.71875 -1.8125 C 0.707031 -1.707031 0.738281 -1.613281 0.8125 -1.53125 C 0.882812 -1.457031 0.992188 -1.390625 1.140625 -1.328125 C 1.378906 -1.210938 1.539062 -1.085938 1.625 -0.953125 C 1.71875 -0.828125 1.753906 -0.664062 1.734375 -0.46875 C 1.710938 -0.257812 1.632812 -0.101562 1.5 0 C 1.363281 0.101562 1.179688 0.144531 0.953125 0.125 C 0.804688 0.113281 0.671875 0.0703125 0.546875 0 C 0.429688 -0.0820312 0.34375 -0.179688 0.28125 -0.296875 C 0.21875 -0.421875 0.195312 -0.5625 0.21875 -0.71875 L 0.546875 -0.6875 C 0.523438 -0.53125 0.554688 -0.398438 0.640625 -0.296875 C 0.722656 -0.203125 0.835938 -0.148438 0.984375 -0.140625 C 1.117188 -0.128906 1.222656 -0.15625 1.296875 -0.21875 C 1.378906 -0.28125 1.425781 -0.375 1.4375 -0.5 Z M 1.4375 -0.5 "/></g></g></g><g fill="#d9d9d9" fill-opacity="1"><g transform="translate(71.879173, 112.121856)"><g><path d="M 0.265625 0.015625 L 0.390625 -2.5 L 1 -2.46875 C 1.289062 -2.457031 1.507812 -2.351562 1.65625 -2.15625 C 1.8125 -1.96875 1.882812 -1.707031 1.875 -1.375 L 1.84375 -0.953125 C 1.832031 -0.617188 1.738281 -0.363281 1.5625 -0.1875 C 1.394531 -0.0195312 1.15625 0.0546875 0.84375 0.046875 Z M 0.703125 -2.21875 L 0.609375 -0.234375 L 0.859375 -0.21875 C 1.078125 -0.207031 1.238281 -0.265625 1.34375 -0.390625 C 1.457031 -0.515625 1.519531 -0.703125 1.53125 -0.953125 L 1.5625 -1.40625 C 1.570312 -1.664062 1.53125 -1.859375 1.4375 -1.984375 C 1.34375 -2.117188 1.191406 -2.191406 0.984375 -2.203125 Z M 0.703125 -2.21875 "/></g></g></g><g fill="#d9d9d9" fill-opacity="1"><g transform="translate(73.956445, 112.223473)"><g><path d="M 1.484375 -1.171875 L 0.59375 -1.171875 L 0.59375 -0.265625 L 1.625 -0.265625 L 1.625 0 L 0.265625 0 L 0.265625 -2.515625 L 1.609375 -2.515625 L 1.609375 -2.25 L 0.59375 -2.25 L 0.59375 -1.4375 L 1.484375 -1.4375 Z M 1.484375 -1.171875 "/></g></g></g><g fill="#d9d9d9" fill-opacity="1"><g transform="translate(75.755612, 112.218901)"><g/></g></g><g fill="#d9d9d9" fill-opacity="1"><g transform="translate(76.604319, 112.199724)"><g><path d="M 1.609375 -0.109375 L 0.203125 -0.015625 L 0.1875 -0.25 L 0.84375 -1.25 C 0.9375 -1.394531 1 -1.515625 1.03125 -1.609375 C 1.070312 -1.710938 1.085938 -1.816406 1.078125 -1.921875 C 1.078125 -2.054688 1.046875 -2.160156 0.984375 -2.234375 C 0.921875 -2.316406 0.835938 -2.359375 0.734375 -2.359375 C 0.597656 -2.347656 0.5 -2.296875 0.4375 -2.203125 C 0.375 -2.109375 0.347656 -1.976562 0.359375 -1.8125 L 0.046875 -1.796875 C 0.0234375 -2.023438 0.0703125 -2.210938 0.1875 -2.359375 C 0.3125 -2.515625 0.484375 -2.601562 0.703125 -2.625 C 0.898438 -2.632812 1.0625 -2.578125 1.1875 -2.453125 C 1.3125 -2.335938 1.378906 -2.175781 1.390625 -1.96875 C 1.410156 -1.71875 1.300781 -1.421875 1.0625 -1.078125 L 0.546875 -0.296875 L 1.59375 -0.375 Z M 1.609375 -0.109375 "/></g></g></g><g fill="#d9d9d9" fill-opacity="1"><g transform="translate(78.402364, 112.083157)"><g><path d="M 1.40625 -1.25 C 1.445312 -0.875 1.425781 -0.585938 1.34375 -0.390625 C 1.257812 -0.203125 1.101562 -0.09375 0.875 -0.0625 C 0.644531 -0.0390625 0.46875 -0.109375 0.34375 -0.265625 C 0.21875 -0.429688 0.132812 -0.691406 0.09375 -1.046875 L 0.046875 -1.453125 C 0.00390625 -1.828125 0.0234375 -2.113281 0.109375 -2.3125 C 0.203125 -2.507812 0.363281 -2.617188 0.59375 -2.640625 C 0.820312 -2.671875 1 -2.601562 1.125 -2.4375 C 1.25 -2.28125 1.328125 -2.023438 1.359375 -1.671875 Z M 1.078125 -1.640625 C 1.054688 -1.898438 1.003906 -2.085938 0.921875 -2.203125 C 0.847656 -2.328125 0.75 -2.382812 0.625 -2.375 C 0.5 -2.363281 0.410156 -2.289062 0.359375 -2.15625 C 0.316406 -2.019531 0.304688 -1.828125 0.328125 -1.578125 L 0.390625 -1.078125 C 0.421875 -0.804688 0.472656 -0.609375 0.546875 -0.484375 C 0.617188 -0.367188 0.71875 -0.316406 0.84375 -0.328125 C 0.96875 -0.335938 1.050781 -0.410156 1.09375 -0.546875 C 1.144531 -0.679688 1.160156 -0.878906 1.140625 -1.140625 Z M 1.078125 -1.640625 "/></g></g></g><g fill="#d9d9d9" fill-opacity="1"><g transform="translate(80.193317, 111.885477)"><g><path d="M 1.59375 -0.25 L 0.203125 -0.03125 L 0.171875 -0.265625 L 0.71875 -1.3125 C 0.800781 -1.476562 0.851562 -1.609375 0.875 -1.703125 C 0.90625 -1.804688 0.914062 -1.910156 0.90625 -2.015625 C 0.882812 -2.140625 0.835938 -2.238281 0.765625 -2.3125 C 0.691406 -2.382812 0.601562 -2.414062 0.5 -2.40625 C 0.363281 -2.382812 0.269531 -2.320312 0.21875 -2.21875 C 0.175781 -2.125 0.164062 -2 0.1875 -1.84375 L -0.125 -1.796875 C -0.15625 -2.015625 -0.113281 -2.203125 0 -2.359375 C 0.101562 -2.523438 0.257812 -2.628906 0.46875 -2.671875 C 0.664062 -2.703125 0.828125 -2.660156 0.953125 -2.546875 C 1.085938 -2.441406 1.175781 -2.289062 1.21875 -2.09375 C 1.25 -1.84375 1.160156 -1.53125 0.953125 -1.15625 L 0.515625 -0.359375 L 1.546875 -0.515625 Z M 1.59375 -0.25 "/></g></g></g><g fill="#d9d9d9" fill-opacity="1"><g transform="translate(81.973503, 111.607063)"><g><path d="M 0.296875 -1.515625 L 0.5 -1.546875 C 0.625 -1.566406 0.707031 -1.625 0.75 -1.71875 C 0.800781 -1.8125 0.816406 -1.921875 0.796875 -2.046875 C 0.734375 -2.335938 0.59375 -2.460938 0.375 -2.421875 C 0.257812 -2.398438 0.175781 -2.335938 0.125 -2.234375 C 0.0820312 -2.140625 0.0703125 -2.035156 0.09375 -1.921875 L -0.1875 -1.859375 C -0.21875 -2.046875 -0.191406 -2.21875 -0.109375 -2.375 C -0.0234375 -2.539062 0.113281 -2.644531 0.3125 -2.6875 C 0.507812 -2.71875 0.675781 -2.679688 0.8125 -2.578125 C 0.945312 -2.484375 1.039062 -2.328125 1.09375 -2.109375 C 1.113281 -1.992188 1.101562 -1.878906 1.0625 -1.765625 C 1.03125 -1.648438 0.972656 -1.5625 0.890625 -1.5 C 1.128906 -1.457031 1.28125 -1.285156 1.34375 -0.984375 C 1.382812 -0.765625 1.359375 -0.578125 1.265625 -0.421875 C 1.171875 -0.265625 1.023438 -0.171875 0.828125 -0.140625 C 0.617188 -0.0976562 0.445312 -0.125 0.3125 -0.21875 C 0.175781 -0.320312 0.0820312 -0.476562 0.03125 -0.6875 L 0.3125 -0.75 C 0.34375 -0.613281 0.398438 -0.515625 0.484375 -0.453125 C 0.566406 -0.398438 0.664062 -0.382812 0.78125 -0.40625 C 0.894531 -0.425781 0.972656 -0.472656 1.015625 -0.546875 C 1.066406 -0.628906 1.078125 -0.753906 1.046875 -0.921875 C 0.984375 -1.222656 0.8125 -1.347656 0.53125 -1.296875 L 0.34375 -1.265625 Z M 0.296875 -1.515625 "/></g></g></g><g fill="#d9d9d9" fill-opacity="1"><g transform="translate(83.724902, 111.244044)"><g/></g></g><g fill="#d9d9d9" fill-opacity="1"><g transform="translate(84.53905, 111.051116)"><g><path d="M 0.53125 -1.109375 L -0.15625 -0.921875 L -0.21875 -1.1875 L 0.46875 -1.375 Z M 0.53125 -1.109375 "/></g></g></g></svg>