<svg xmlns="http://www.w3.org/2000/svg" xmlns:xlink="http://www.w3.org/1999/xlink" width="2238" zoomAndPan="magnify" viewBox="0 0 1678.5 1499.999933" height="2000" preserveAspectRatio="xMidYMid meet" version="1.0"><defs><g/><clipPath id="79b00d73f7"><path d="M 0 0.222656 L 809 0.222656 L 809 1499.777344 L 0 1499.777344 Z M 0 0.222656 " clip-rule="nonzero"/></clipPath><clipPath id="6303a894f0"><path d="M 869 0.222656 L 1678 0.222656 L 1678 1499.777344 L 869 1499.777344 Z M 869 0.222656 " clip-rule="nonzero"/></clipPath><clipPath id="4ea275d011"><path d="M 312.769531 259.847656 L 1364.707031 259.847656 L 1364.707031 1311.785156 L 312.769531 1311.785156 Z M 312.769531 259.847656 " clip-rule="nonzero"/></clipPath><clipPath id="d823e79219"><path d="M 838.910156 259.847656 C 548.332031 259.847656 312.769531 495.410156 312.769531 785.988281 C 312.769531 1076.566406 548.332031 1312.125 838.910156 1312.125 C 1129.488281 1312.125 1365.046875 1076.566406 1365.046875 785.988281 C 1365.046875 495.410156 1129.488281 259.847656 838.910156 259.847656 Z M 838.910156 259.847656 " clip-rule="nonzero"/></clipPath><clipPath id="4d1120a5c9"><path d="M 589.875 332.816406 L 1087.726562 332.816406 L 1087.726562 613.980469 L 589.875 613.980469 Z M 589.875 332.816406 " clip-rule="nonzero"/></clipPath><clipPath id="7bd51cff44"><path d="M 682.957031 996 L 835 996 L 835 1189 L 682.957031 1189 Z M 682.957031 996 " clip-rule="nonzero"/></clipPath><clipPath id="86cc666f03"><path d="M 843 1013 L 994.863281 1013 L 994.863281 1206.113281 L 843 1206.113281 Z M 843 1013 " clip-rule="nonzero"/></clipPath><clipPath id="a3358594cc"><path d="M 841 944.441406 L 851 944.441406 L 851 989 L 841 989 Z M 841 944.441406 " clip-rule="nonzero"/></clipPath></defs><g clip-path="url(#79b00d73f7)"><path fill="#ffffff" d="M 630.6875 102.292969 L 502.328125 194.179688 L 473.207031 178.070312 L 478.789062 145.265625 Z M 479.019531 129.710938 L 491.503906 102.21875 L 530.980469 15.226562 L 546.816406 0.566406 L 543.914062 22.019531 Z M 534.234375 125.144531 L 625.71875 46.957031 L 645.609375 41.070312 L 635.996094 59.070312 Z M 514.59375 203.683594 L 639.238281 220.242188 L 657.84375 231.332031 L 636.488281 234.554688 Z M 552.640625 163.421875 L 667.792969 125.191406 L 687.835938 128.902344 L 670.839844 140.765625 Z M 552.609375 67.382812 L 524.339844 125.242188 L 480.164062 137.742188 Z M 609.234375 185.113281 L 509.046875 197.808594 L 546.390625 171.089844 Z M 574.53125 245.234375 C 537.378906 224.460938 500.230469 203.683594 463.089844 182.90625 C 470.0625 140.941406 477.007812 98.960938 483.964844 56.960938 C 462.601562 95.214844 409.011719 151.042969 437.128906 190.664062 C 445.277344 188.324219 453.433594 185.988281 461.585938 183.652344 C 454.667969 188.542969 447.753906 193.472656 440.820312 198.386719 C 454.242188 245.070312 531.316406 238.070312 574.53125 245.234375 Z M 556.101562 271.964844 C 508.257812 253.113281 460.414062 234.238281 412.59375 215.359375 C 414.121094 163.957031 415.671875 112.53125 417.226562 61.144531 C 397.804688 110.378906 342.652344 185.933594 382.730469 228.863281 C 392.113281 224.710938 401.507812 220.605469 410.910156 216.464844 C 403.40625 223.476562 395.902344 230.5 388.421875 237.46875 C 412.023438 291.234375 503.203125 270.382812 556.101562 271.964844 Z M 506.566406 308.351562 C 457.683594 292.390625 408.757812 276.5 359.867188 260.5625 C 358.292969 209.167969 356.710938 157.761719 355.125 106.359375 C 338.730469 156.660156 288.285156 235.4375 330.875 275.820312 C 340.019531 271.144531 349.128906 266.480469 358.261719 261.761719 C 351.203125 269.203125 344.136719 276.664062 337.070312 284.121094 C 363.917969 336.324219 453.664062 309.96875 506.566406 308.351562 Z M 462.371094 348.242188 C 409.65625 352.9375 321.570312 384.429688 291.769531 333.84375 C 298.378906 326.003906 305 318.148438 311.617188 310.328125 C 302.769531 315.527344 293.921875 320.75 285.085938 325.949219 C 240.214844 288.078125 286.027344 206.546875 299.492188 155.359375 C 304.039062 206.578125 308.605469 257.808594 313.160156 309.027344 C 362.890625 322.125 412.625 335.179688 462.371094 348.242188 Z M 418.339844 377.667969 C 367.285156 391.652344 286.210938 438.316406 247.882812 393.824219 C 253.003906 384.921875 258.117188 376.03125 263.238281 367.152344 C 255.460938 373.824219 247.707031 380.53125 239.917969 387.25 C 189.027344 357.941406 219.632812 269.5625 223.753906 216.78125 C 237.339844 266.382812 250.929688 315.984375 264.519531 365.609375 C 315.800781 369.628906 367.054688 373.648438 418.339844 377.667969 Z M 378.445312 422.71875 C 329.050781 441.710938 253.015625 496.207031 210.457031 455.75 C 214.664062 446.386719 218.871094 437.027344 223.074219 427.675781 C 216.007812 435.113281 208.941406 442.574219 201.871094 450.003906 C 148.328125 425.917969 169.976562 334.90625 168.839844 282.015625 C 187.289062 330 205.761719 378.007812 224.199219 426.015625 C 275.625 424.914062 327.042969 423.808594 378.445312 422.71875 Z M 344.714844 469.65625 C 293.738281 476.460938 242.757812 483.253906 191.78125 490.046875 C 168.121094 444.410156 144.449219 398.742188 120.765625 353.082031 C 127.78125 405.546875 116.367188 498.371094 172.25 516.363281 C 178.453125 508.191406 184.648438 500.011719 190.863281 491.839844 C 187.695312 501.617188 184.558594 511.371094 181.425781 521.125 C 228.21875 556.59375 297.722656 494.035156 344.714844 469.65625 Z M 315.355469 522.542969 C 265.304688 534.417969 215.285156 546.3125 165.246094 558.199219 C 137.109375 515.148438 108.96875 472.101562 80.84375 429.03125 C 93.066406 480.546875 91.046875 574.046875 148.445312 586.347656 C 153.789062 577.566406 159.140625 568.804688 164.492188 560.054688 C 162.351562 570.070312 160.222656 580.144531 158.058594 590.160156 C 208.175781 620.757812 271.039062 551.503906 315.355469 522.542969 Z M 290.765625 576.703125 C 250.296875 610.816406 196.28125 687.167969 142.832031 662.886719 C 143.738281 652.664062 144.644531 642.449219 145.574219 632.214844 C 141.324219 641.566406 137.074219 650.902344 132.835938 660.265625 C 74.355469 655.023438 65.035156 561.957031 46.652344 512.308594 C 79.792969 551.613281 112.945312 590.96875 146.078125 630.292969 C 194.3125 612.421875 242.527344 594.5625 290.765625 576.703125 Z M 271.257812 634.125 C 234.589844 672.300781 188.851562 753.886719 133.144531 735.320312 C 133 725.039062 132.828125 714.785156 132.675781 704.527344 C 129.429688 714.269531 126.183594 724.003906 122.917969 733.722656 C 64.21875 734.664062 45.234375 643.050781 21.757812 595.621094 C 58.84375 631.253906 95.894531 666.917969 132.992188 702.550781 C 179.074219 679.730469 225.160156 656.945312 271.257812 634.125 Z M 259.753906 696.148438 C 215.898438 723.019531 172.042969 749.890625 128.195312 776.75 C 88.074219 744.59375 47.921875 712.445312 7.800781 680.296875 C 35.433594 725.402344 62.632812 814.917969 120.996094 808.710938 C 123.355469 798.71875 125.714844 788.765625 128.0625 778.75 C 129.136719 788.941406 130.238281 799.15625 131.339844 809.378906 C 188.46875 822.835938 226.65625 737.460938 259.753906 696.148438 Z M 252 755.910156 C 224.277344 801 196.980469 890.449219 138.582031 884.191406 C 136.246094 874.199219 133.886719 864.203125 131.570312 854.207031 C 130.46875 864.398438 129.363281 874.613281 128.273438 884.816406 C 71.097656 898.195312 33.03125 812.753906 0 771.410156 C 43.800781 798.335938 87.636719 825.273438 131.449219 852.21875 C 171.625 820.117188 211.8125 788.023438 252 755.910156 Z M 254.152344 819.539062 C 230.296875 866.800781 210.578125 958.230469 151.898438 956.855469 C 148.710938 947.097656 145.53125 937.355469 142.382812 927.601562 C 142.144531 937.859375 141.902344 948.09375 141.664062 958.351562 C 85.8125 976.484375 40.710938 894.546875 4.324219 856.097656 C 50.257812 879.253906 96.167969 902.433594 142.078125 925.582031 C 179.4375 890.234375 216.78125 854.90625 254.152344 819.539062 Z M 259.710938 879.320312 C 226.382812 918.480469 193.101562 957.671875 159.773438 996.84375 C 111.625 978.789062 63.476562 960.6875 15.324219 942.632812 C 55.644531 976.910156 109.320312 1053.523438 162.875 1029.472656 C 162.015625 1019.238281 161.152344 1009 160.265625 998.800781 C 164.484375 1008.160156 168.6875 1017.488281 172.882812 1026.851562 C 231.386719 1021.890625 241.121094 928.855469 259.710938 879.320312 Z M 273.890625 939.398438 C 245.117188 982.042969 216.347656 1024.652344 187.5625 1067.253906 C 137.710938 1054.617188 87.867188 1041.980469 38.003906 1029.351562 C 81.871094 1058.984375 143.683594 1129.15625 194.257812 1099.371094 C 192.261719 1089.289062 190.273438 1079.195312 188.273438 1069.132812 C 193.496094 1077.992188 198.695312 1086.808594 203.914062 1095.632812 C 261.515625 1084.25 260.890625 990.726562 273.890625 939.398438 Z M 295.539062 998.382812 C 287.140625 1050.640625 296.042969 1143.730469 239.699219 1160.234375 C 233.726562 1151.886719 227.75 1143.554688 221.773438 1135.199219 C 224.648438 1145.050781 227.53125 1154.890625 230.402344 1164.746094 C 182.667969 1198.957031 114.878906 1134.5 68.542969 1108.925781 C 119.324219 1117.066406 170.117188 1125.234375 220.890625 1133.394531 C 245.785156 1088.390625 270.65625 1043.386719 295.539062 998.382812 Z M 325.128906 1052.246094 C 320.074219 1104.949219 334.875 1197.316406 279.667969 1217.328125 C 273.179688 1209.378906 266.679688 1201.4375 260.203125 1193.515625 C 263.699219 1203.140625 267.183594 1212.785156 270.699219 1222.429688 C 225.226562 1259.601562 153.472656 1199.601562 105.617188 1176.96875 C 156.8125 1181.882812 208 1186.84375 259.199219 1191.738281 C 281.1875 1145.269531 303.140625 1098.746094 325.128906 1052.246094 Z M 350.953125 1100.605469 C 352.710938 1153.515625 379.289062 1243.183594 327.140625 1270.15625 C 319.667969 1263.121094 312.199219 1256.0625 304.746094 1249.039062 C 309.46875 1258.160156 314.175781 1267.261719 318.882812 1276.359375 C 278.597656 1319.078125 199.699219 1268.8125 149.332031 1252.558594 C 200.738281 1250.84375 252.140625 1249.136719 303.535156 1247.421875 C 319.332031 1198.476562 335.136719 1149.550781 350.953125 1100.605469 Z M 383.820312 1150.109375 C 391.90625 1202.429688 429.042969 1288.265625 380.480469 1321.273438 C 372.242188 1315.203125 363.984375 1309.085938 355.726562 1303 C 361.503906 1311.476562 367.273438 1319.964844 373.027344 1328.460938 C 338.152344 1375.683594 253.8125 1335.234375 201.863281 1325.097656 C 252.675781 1317.253906 303.511719 1309.402344 354.339844 1301.546875 C 364.171875 1251.082031 373.992188 1200.59375 383.820312 1150.109375 Z M 423.035156 1197.460938 C 419.824219 1248.777344 416.589844 1300.105469 413.359375 1351.433594 C 363.984375 1365.789062 314.589844 1380.140625 265.207031 1394.492188 C 318.042969 1397.816406 406.878906 1427.046875 435.390625 1375.707031 C 428.574219 1368.046875 421.746094 1360.347656 414.941406 1352.691406 C 423.886719 1357.671875 432.878906 1362.640625 441.855469 1367.644531 C 485.722656 1328.617188 437.816406 1248.285156 423.035156 1197.460938 Z M 807.644531 1499.421875 C 700.332031 1493.6875 515.949219 1451.984375 442.347656 1374.722656 C 513.21875 1417.289062 652.707031 1468.3125 738.574219 1472.867188 C 777.144531 1474.910156 813.3125 1472.714844 807.644531 1499.421875 " fill-opacity="1" fill-rule="nonzero"/></g><g clip-path="url(#6303a894f0)"><path fill="#ffffff" d="M 1047.136719 102.292969 L 1175.496094 194.179688 L 1204.605469 178.070312 L 1199.011719 145.265625 Z M 1198.785156 129.710938 L 1186.296875 102.21875 L 1146.832031 15.226562 L 1130.996094 0.566406 L 1133.898438 22.019531 Z M 1143.589844 125.144531 L 1052.105469 46.957031 L 1032.203125 41.070312 L 1041.828125 59.070312 Z M 1163.21875 203.683594 L 1038.574219 220.242188 L 1019.980469 231.332031 L 1041.324219 234.554688 Z M 1125.171875 163.421875 L 1010.03125 125.191406 L 989.976562 128.902344 L 1006.984375 140.765625 Z M 1125.203125 67.382812 L 1153.472656 125.242188 L 1197.660156 137.742188 Z M 1068.566406 185.113281 L 1168.765625 197.808594 L 1131.429688 171.089844 Z M 1103.28125 245.234375 C 1140.433594 224.460938 1177.570312 203.683594 1214.710938 182.90625 C 1207.75 140.941406 1200.804688 98.960938 1193.847656 56.960938 C 1215.210938 95.214844 1268.792969 151.042969 1240.695312 190.664062 C 1232.535156 188.324219 1224.386719 185.988281 1216.226562 183.652344 C 1223.144531 188.542969 1230.066406 193.472656 1236.984375 198.386719 C 1223.578125 245.070312 1146.496094 238.070312 1103.28125 245.234375 Z M 1121.699219 271.964844 C 1169.542969 253.113281 1217.375 234.238281 1265.21875 215.359375 C 1263.691406 163.957031 1262.140625 112.53125 1260.597656 61.144531 C 1280 110.378906 1335.160156 185.933594 1295.09375 228.863281 C 1285.699219 224.710938 1276.296875 220.605469 1266.914062 216.464844 C 1274.394531 223.476562 1281.910156 230.5 1289.402344 237.46875 C 1265.789062 291.234375 1174.601562 270.382812 1121.699219 271.964844 Z M 1171.246094 308.351562 C 1220.148438 292.390625 1269.042969 276.5 1317.945312 260.5625 C 1319.519531 209.167969 1321.101562 157.761719 1322.6875 106.359375 C 1339.070312 156.660156 1389.515625 235.4375 1346.9375 275.820312 C 1337.792969 271.144531 1328.683594 266.480469 1319.550781 261.761719 C 1326.609375 269.203125 1333.675781 276.664062 1340.730469 284.121094 C 1313.894531 336.324219 1224.160156 309.96875 1171.246094 308.351562 Z M 1215.441406 348.242188 C 1268.15625 352.9375 1356.242188 384.429688 1386.042969 333.84375 C 1379.433594 326.003906 1372.8125 318.148438 1366.195312 310.328125 C 1375.042969 315.527344 1383.878906 320.75 1392.726562 325.949219 C 1437.597656 288.078125 1391.777344 206.546875 1378.320312 155.359375 C 1373.761719 206.578125 1369.207031 257.808594 1364.675781 309.027344 C 1314.910156 322.125 1265.175781 335.179688 1215.441406 348.242188 Z M 1259.484375 377.667969 C 1310.519531 391.652344 1391.601562 438.316406 1429.929688 393.824219 C 1424.808594 384.921875 1419.695312 376.03125 1414.5625 367.152344 C 1422.351562 373.824219 1430.117188 380.53125 1437.894531 387.25 C 1488.773438 357.941406 1458.199219 269.5625 1454.050781 216.78125 C 1440.484375 266.382812 1426.894531 315.984375 1413.292969 365.609375 C 1362.011719 369.628906 1310.757812 373.648438 1259.484375 377.667969 Z M 1299.367188 422.71875 C 1348.761719 441.710938 1424.796875 496.207031 1467.34375 455.75 C 1463.148438 446.386719 1458.941406 437.027344 1454.75 427.675781 C 1461.804688 435.113281 1468.863281 442.574219 1475.941406 450.003906 C 1529.484375 425.917969 1507.835938 334.90625 1508.960938 282.015625 C 1490.523438 330 1472.0625 378.007812 1453.625 426.015625 C 1402.1875 424.914062 1350.78125 423.808594 1299.367188 422.71875 Z M 1333.097656 469.65625 C 1384.085938 476.460938 1435.054688 483.253906 1486.03125 490.046875 C 1509.691406 444.410156 1533.363281 398.742188 1557.046875 353.082031 C 1550.03125 405.546875 1561.457031 498.371094 1505.554688 516.363281 C 1499.359375 508.191406 1493.15625 500.011719 1486.960938 491.839844 C 1490.105469 501.617188 1493.242188 511.371094 1496.386719 521.125 C 1449.613281 556.59375 1380.089844 494.035156 1333.097656 469.65625 Z M 1362.457031 522.542969 C 1412.496094 534.417969 1462.527344 546.3125 1512.578125 558.199219 C 1540.703125 515.148438 1568.832031 472.101562 1596.992188 429.03125 C 1584.757812 480.546875 1586.765625 574.046875 1529.355469 586.347656 C 1524.003906 577.566406 1518.660156 568.804688 1513.320312 560.054688 C 1515.460938 570.070312 1517.613281 580.144531 1519.753906 590.160156 C 1469.636719 620.757812 1406.75 551.503906 1362.457031 522.542969 Z M 1387.046875 576.703125 C 1427.507812 610.816406 1481.53125 687.167969 1534.992188 662.886719 C 1534.085938 652.664062 1533.15625 642.449219 1532.25 632.214844 C 1536.488281 641.566406 1540.738281 650.902344 1544.976562 660.265625 C 1603.445312 655.023438 1612.777344 561.957031 1631.160156 512.308594 C 1598.019531 551.613281 1564.878906 590.96875 1531.726562 630.292969 C 1483.507812 612.421875 1435.285156 594.5625 1387.046875 576.703125 Z M 1406.554688 634.125 C 1443.234375 672.300781 1488.960938 753.886719 1544.667969 735.320312 C 1544.820312 725.039062 1544.984375 714.785156 1545.160156 704.527344 C 1548.394531 714.269531 1551.636719 724.003906 1554.882812 733.722656 C 1613.59375 734.664062 1632.578125 643.050781 1656.0625 595.621094 C 1618.980469 631.253906 1581.90625 666.917969 1544.820312 702.550781 C 1498.738281 679.730469 1452.652344 656.945312 1406.554688 634.125 Z M 1418.058594 696.148438 C 1461.902344 723.019531 1505.769531 749.890625 1549.59375 776.75 C 1589.75 744.59375 1629.871094 712.445312 1670.023438 680.296875 C 1642.367188 725.402344 1615.191406 814.917969 1556.816406 808.710938 C 1554.457031 798.71875 1552.085938 788.765625 1549.726562 778.75 C 1548.65625 788.941406 1547.574219 799.15625 1546.480469 809.378906 C 1489.34375 822.835938 1451.15625 737.460938 1418.058594 696.148438 Z M 1425.824219 755.910156 C 1453.535156 801 1480.84375 890.449219 1539.21875 884.191406 C 1541.566406 874.199219 1543.914062 864.203125 1546.242188 854.207031 C 1547.34375 864.398438 1548.4375 874.613281 1549.539062 884.816406 C 1606.714844 898.195312 1644.769531 812.753906 1677.8125 771.410156 C 1633.988281 798.335938 1590.164062 825.273438 1546.363281 852.21875 C 1506.1875 820.117188 1466 788.023438 1425.824219 755.910156 Z M 1423.683594 819.539062 C 1447.515625 866.800781 1467.222656 958.230469 1525.925781 956.855469 C 1529.09375 947.097656 1532.261719 937.355469 1535.4375 927.601562 C 1535.691406 937.859375 1535.910156 948.09375 1536.171875 958.351562 C 1592 976.484375 1637.089844 894.546875 1673.476562 856.097656 C 1627.554688 879.253906 1581.644531 902.433594 1535.722656 925.582031 C 1498.386719 890.234375 1461.03125 854.90625 1423.683594 819.539062 Z M 1418.101562 879.320312 C 1451.40625 918.480469 1484.734375 957.671875 1518.027344 996.84375 C 1566.199219 978.789062 1614.347656 960.6875 1662.5 942.632812 C 1622.179688 976.910156 1568.492188 1053.523438 1514.9375 1029.472656 C 1515.796875 1019.238281 1516.671875 1009 1517.546875 998.800781 C 1513.332031 1008.160156 1509.125 1017.488281 1504.929688 1026.851562 C 1446.425781 1021.890625 1436.691406 928.855469 1418.101562 879.320312 Z M 1403.921875 939.398438 C 1432.695312 982.042969 1461.476562 1024.652344 1490.261719 1067.253906 C 1540.101562 1054.617188 1589.957031 1041.980469 1639.808594 1029.351562 C 1595.953125 1058.984375 1534.117188 1129.15625 1483.542969 1099.371094 C 1485.542969 1089.289062 1487.539062 1079.195312 1489.539062 1069.132812 C 1484.328125 1077.992188 1479.097656 1086.808594 1473.898438 1095.632812 C 1416.296875 1084.25 1416.910156 990.726562 1403.921875 939.398438 Z M 1382.273438 998.382812 C 1390.683594 1050.640625 1381.769531 1143.730469 1438.101562 1160.234375 C 1444.097656 1151.886719 1450.074219 1143.554688 1456.046875 1135.199219 C 1453.152344 1145.050781 1450.292969 1154.890625 1447.410156 1164.746094 C 1495.144531 1198.957031 1562.933594 1134.5 1609.246094 1108.925781 C 1558.488281 1117.066406 1507.703125 1125.234375 1456.921875 1133.394531 C 1432.050781 1088.390625 1407.167969 1043.386719 1382.273438 998.382812 Z M 1352.691406 1052.246094 C 1357.738281 1104.949219 1342.925781 1197.316406 1398.121094 1217.328125 C 1404.632812 1209.378906 1411.132812 1201.4375 1417.621094 1193.515625 C 1414.113281 1203.140625 1410.617188 1212.785156 1407.125 1222.429688 C 1452.597656 1259.601562 1524.339844 1199.601562 1572.195312 1176.96875 C 1521.007812 1181.882812 1469.800781 1186.84375 1418.613281 1191.738281 C 1396.636719 1145.269531 1374.660156 1098.746094 1352.691406 1052.246094 Z M 1326.847656 1100.605469 C 1325.101562 1153.515625 1298.523438 1243.183594 1350.671875 1270.15625 C 1358.144531 1263.121094 1365.613281 1256.0625 1373.066406 1249.039062 C 1368.34375 1258.160156 1363.648438 1267.261719 1358.941406 1276.359375 C 1399.226562 1319.078125 1478.125 1268.8125 1528.492188 1252.558594 C 1477.074219 1250.84375 1425.683594 1249.136719 1374.277344 1247.421875 C 1358.472656 1198.476562 1342.664062 1149.550781 1326.847656 1100.605469 Z M 1293.980469 1150.109375 C 1285.917969 1202.429688 1248.757812 1288.265625 1297.332031 1321.273438 C 1305.570312 1315.203125 1313.839844 1309.085938 1322.074219 1303 C 1316.316406 1311.476562 1310.539062 1319.964844 1304.785156 1328.460938 C 1339.660156 1375.683594 1424 1335.234375 1475.949219 1325.097656 C 1425.125 1317.253906 1374.300781 1309.402344 1323.472656 1301.546875 C 1313.640625 1251.082031 1303.8125 1200.59375 1293.980469 1150.109375 Z M 1254.789062 1197.460938 C 1257.988281 1248.777344 1261.222656 1300.105469 1264.453125 1351.433594 C 1313.839844 1365.789062 1363.222656 1380.140625 1412.617188 1394.492188 C 1359.792969 1397.816406 1270.921875 1427.046875 1242.421875 1375.707031 C 1249.238281 1368.046875 1256.078125 1360.347656 1262.882812 1352.691406 C 1253.925781 1357.671875 1244.933594 1362.640625 1235.964844 1367.644531 C 1192.089844 1328.617188 1239.996094 1248.285156 1254.789062 1197.460938 Z M 870.167969 1499.421875 C 977.480469 1493.6875 1161.875 1451.984375 1235.476562 1374.722656 C 1164.617188 1417.289062 1025.105469 1468.3125 939.246094 1472.867188 C 900.667969 1474.910156 864.488281 1472.714844 870.167969 1499.421875 " fill-opacity="1" fill-rule="nonzero"/></g><g clip-path="url(#4ea275d011)"><g clip-path="url(#d823e79219)"><path stroke-linecap="butt" transform="matrix(0.749777, 0, 0, 0.749777, 312.770752, 259.84903)" fill="none" stroke-linejoin="miter" d="M 701.728206 -0.00183228 C 314.175278 -0.00183228 -0.00162874 314.175075 -0.00162874 701.728003 C -0.00162874 1089.280931 314.175278 1403.452628 701.728206 1403.452628 C 1089.281134 1403.452628 1403.452832 1089.280931 1403.452832 701.728003 C 1403.452832 314.175075 1089.281134 -0.00183228 701.728206 -0.00183228 Z M 701.728206 -0.00183228 " stroke="#ffffff" stroke-width="70" stroke-opacity="1" stroke-miterlimit="4"/></g></g><g clip-path="url(#4d1120a5c9)"><path fill="#ffffff" d="M 1087.945312 430.25 L 1074.308594 442.988281 L 1076.316406 451.703125 C 1010.898438 524.214844 967.703125 558.507812 955.09375 540.234375 C 945.023438 505.546875 950.066406 471.246094 965.90625 437.210938 L 979.367188 430.910156 L 981.96875 401.0625 L 961.277344 422.730469 L 965.515625 437.257812 C 948.410156 465.953125 930.035156 491.371094 909.023438 509.945312 C 886.894531 529.5 880.144531 532.242188 865.832031 501.480469 C 855.230469 478.691406 851.601562 448.15625 844.472656 421.5 L 862.597656 400.34375 L 838.914062 332.886719 L 815.230469 400.34375 L 833.347656 421.492188 C 826.222656 448.148438 822.589844 478.691406 811.984375 501.480469 C 797.679688 532.242188 790.929688 529.496094 768.796875 509.945312 C 747.785156 491.371094 729.40625 465.949219 712.308594 437.25 L 716.539062 422.734375 L 695.851562 401.066406 L 698.449219 430.914062 L 711.921875 437.214844 C 727.765625 471.25 732.804688 505.546875 722.734375 540.234375 C 710.121094 558.507812 666.929688 524.214844 601.5 451.703125 L 603.507812 442.988281 L 589.875 430.25 L 592.558594 448.714844 L 600.648438 451.953125 L 693.847656 614.207031 L 665.226562 535.386719 C 665.808594 535.859375 666.390625 536.328125 666.96875 536.792969 C 681.554688 548.476562 707.125 567.402344 726.503906 556.128906 C 729.785156 554.222656 732.535156 551.601562 734.691406 548.484375 L 736.023438 546.542969 L 736.683594 544.28125 C 740.589844 530.820312 742.417969 517.445312 742.4375 504.21875 C 747.761719 510.082031 753.332031 515.652344 759.1875 520.824219 C 769.035156 529.527344 781.515625 541.007812 795.75 538.90625 C 811.140625 536.636719 819.292969 520.230469 825.160156 507.605469 C 831.671875 493.617188 835.566406 478.015625 838.914062 462.722656 C 842.269531 478.015625 846.160156 493.617188 852.671875 507.605469 C 858.542969 520.230469 866.695312 536.636719 882.082031 538.90625 C 896.320312 541.003906 908.796875 529.527344 918.644531 520.824219 C 924.492188 515.652344 930.074219 510.082031 935.386719 504.21875 C 935.417969 517.449219 937.242188 530.820312 941.144531 544.28125 L 941.800781 546.542969 L 943.140625 548.484375 C 945.296875 551.601562 948.042969 554.222656 951.328125 556.128906 C 970.710938 567.40625 996.269531 548.476562 1010.855469 536.792969 C 1011.445312 536.328125 1012.023438 535.859375 1012.601562 535.386719 L 987.488281 608.378906 L 1077.179688 451.953125 L 1085.261719 448.714844 Z M 1087.945312 430.25 " fill-opacity="1" fill-rule="evenodd"/></g><path fill="#ffffff" d="M 789.996094 490.46875 C 791.667969 498.085938 793.539062 505.804688 796.09375 513.164062 C 797.800781 510.933594 800.101562 507.207031 803.152344 500.941406 C 798.507812 483.820312 795.96875 464.363281 789.992188 448.714844 C 783.535156 465.628906 781.089844 486.992188 775.667969 505.046875 C 778.066406 507.160156 781.230469 509.875 784.246094 512.136719 C 786.628906 505.085938 788.40625 497.734375 789.996094 490.46875 Z M 789.996094 490.46875 " fill-opacity="1" fill-rule="evenodd"/><path fill="#ffffff" d="M 887.683594 490.46875 C 889.285156 497.765625 891.074219 505.144531 893.460938 512.226562 C 896.464844 509.984375 899.625 507.277344 902.046875 505.148438 C 896.601562 487.074219 894.15625 465.65625 887.6875 448.714844 C 881.738281 464.304688 879.195312 483.675781 874.585938 500.753906 C 877.617188 507.003906 879.921875 510.769531 881.636719 513.035156 C 884.164062 505.714844 886.023438 498.042969 887.683594 490.46875 Z M 887.683594 490.46875 " fill-opacity="1" fill-rule="evenodd"/><path fill="#ffffff" d="M 974.03125 534.21875 C 975.804688 522.621094 978.828125 510.433594 979.128906 499.542969 C 972.285156 506.789062 966.285156 516.414062 960.007812 525.246094 C 960.589844 528.464844 961.308594 531.667969 962.152344 534.867188 C 964.058594 532.382812 965.878906 529.828125 967.65625 527.28125 C 967.09375 530.414062 966.574219 533.585938 966.164062 536.773438 C 968.117188 536.523438 970.679688 535.785156 974.03125 534.21875 Z M 974.03125 534.21875 " fill-opacity="1" fill-rule="evenodd"/><path fill="#ffffff" d="M 717.816406 525.25 C 711.535156 516.414062 705.535156 506.789062 698.6875 499.539062 C 698.988281 510.429688 702.015625 522.617188 703.789062 534.214844 C 707.136719 535.78125 709.703125 536.519531 711.652344 536.765625 C 711.242188 533.578125 710.722656 530.40625 710.160156 527.273438 C 711.9375 529.824219 713.761719 532.378906 715.667969 534.863281 C 716.511719 531.675781 717.238281 528.464844 717.816406 525.25 Z M 717.816406 525.25 " fill-opacity="1" fill-rule="evenodd"/><g clip-path="url(#7bd51cff44)"><path fill="#ffffff" d="M 826.890625 1033.542969 C 825.871094 1027.964844 821.84375 1023.414062 816.34375 1021.59375 C 815.269531 1015.5625 810.5625 1010.554688 804.382812 1009.132812 C 803.476562 1008.90625 802.453125 1008.789062 801.492188 1008.734375 C 799.789062 1002.875 795.027344 998.207031 788.902344 996.785156 C 781.078125 994.964844 773.367188 998.492188 769.851562 1005.09375 C 768.945312 1004.636719 767.980469 1004.351562 767.019531 1004.125 C 759.535156 1002.304688 751.992188 1006.855469 750.179688 1014.195312 C 750.179688 1014.253906 750.179688 1014.367188 750.121094 1014.480469 C 742.863281 1014.9375 736.515625 1019.941406 734.8125 1027.054688 C 733.792969 1031.265625 734.472656 1035.703125 736.796875 1039.402344 C 737.082031 1039.914062 737.421875 1040.3125 737.761719 1040.710938 C 737.195312 1042.875 736.515625 1045.375 735.71875 1048.222656 L 717.691406 1043.953125 C 712.019531 1042.644531 706.125 1044.695312 702.664062 1049.304688 C 695.691406 1058.691406 683.84375 1079.230469 682.992188 1112.117188 C 682.878906 1116.101562 684.636719 1119.972656 687.699219 1122.757812 L 707.429688 1140.511719 C 705.21875 1146.429688 703.0625 1151.71875 701.078125 1155.929688 C 700.058594 1158.148438 700.058594 1160.652344 701.019531 1162.871094 C 701.984375 1165.207031 703.96875 1166.96875 706.40625 1167.765625 C 714.457031 1170.382812 730.957031 1175.503906 750.632812 1179.886719 C 770.25 1184.722656 787.257812 1187.566406 795.648438 1188.820312 C 796.105469 1188.875 796.5 1188.875 796.953125 1188.875 L 797.011719 1188.875 C 799.050781 1188.875 801.035156 1188.191406 802.625 1186.882812 C 804.496094 1185.289062 805.628906 1183.015625 805.742188 1180.625 C 805.800781 1178.464844 805.96875 1176.074219 806.140625 1173.511719 C 806.140625 1173.511719 806.140625 1173.457031 806.140625 1173.398438 C 808.804688 1141.421875 821.164062 1081.394531 825.53125 1060.910156 C 829.839844 1058.976562 833.128906 1055.335938 834.316406 1050.554688 C 835.90625 1043.898438 832.84375 1037.011719 826.890625 1033.542969 Z M 750.6875 1067.679688 C 751.140625 1066.203125 752.671875 1065.347656 754.203125 1065.804688 C 755.679688 1066.203125 756.585938 1067.792969 756.132812 1069.332031 L 736.289062 1136.300781 C 735.949219 1137.496094 734.8125 1138.292969 733.566406 1138.292969 C 733.339844 1138.292969 733.054688 1138.292969 732.773438 1138.179688 C 731.296875 1137.722656 730.449219 1136.1875 730.84375 1134.652344 Z M 694.953125 1115.132812 C 694.160156 1114.453125 693.707031 1113.429688 693.765625 1112.460938 C 694.558594 1082.417969 705.160156 1063.867188 711.453125 1055.503906 C 712.304688 1054.308594 713.777344 1053.796875 715.253906 1054.140625 L 732.941406 1058.292969 C 727.328125 1078.433594 719.109375 1106.941406 711.226562 1129.699219 Z M 800.074219 1180.398438 C 800.015625 1181.195312 799.675781 1181.933594 798.996094 1182.445312 C 798.316406 1183.070312 797.40625 1183.300781 796.5 1183.183594 C 796.5 1183.183594 796.5 1183.183594 796.5 1183.128906 C 788.222656 1181.933594 771.441406 1179.203125 751.878906 1174.367188 C 732.320312 1169.984375 716.101562 1164.921875 708.164062 1162.359375 C 707.257812 1162.074219 706.578125 1161.449219 706.238281 1160.652344 C 705.898438 1159.914062 705.898438 1159.058594 706.238281 1158.320312 C 706.863281 1157.011719 707.542969 1155.53125 708.164062 1153.996094 C 719.109375 1157.351562 735.265625 1162.074219 753.863281 1166.285156 C 772.347656 1170.78125 788.960938 1173.855469 800.300781 1175.675781 C 800.1875 1177.324219 800.128906 1178.917969 800.074219 1180.398438 Z M 757.039062 1140.964844 L 773.367188 1073.199219 C 773.707031 1071.664062 775.296875 1070.753906 776.769531 1071.09375 C 778.300781 1071.4375 779.265625 1072.972656 778.867188 1074.507812 L 762.539062 1142.332031 C 762.253906 1143.640625 761.066406 1144.496094 759.816406 1144.496094 C 759.589844 1144.496094 759.363281 1144.496094 759.136719 1144.4375 C 757.605469 1144.039062 756.699219 1142.503906 757.039062 1140.964844 Z M 801.601562 1079.742188 L 788.789062 1148.363281 C 788.5625 1149.730469 787.371094 1150.695312 786.011719 1150.695312 C 785.839844 1150.695312 785.671875 1150.640625 785.5 1150.640625 C 783.96875 1150.355469 782.949219 1148.875 783.234375 1147.28125 L 796.046875 1078.664062 C 796.332031 1077.125 797.804688 1076.101562 799.390625 1076.445312 C 800.921875 1076.726562 801.945312 1078.207031 801.601562 1079.742188 Z M 828.820312 1049.1875 C 827.515625 1054.421875 822.128906 1057.609375 816.457031 1056.414062 C 810.617188 1055.21875 806.535156 1051.863281 806.253906 1047.996094 C 806.140625 1046.628906 805.003906 1045.546875 803.644531 1045.433594 C 802.285156 1045.207031 800.980469 1046.230469 800.640625 1047.597656 L 796.386719 1065.234375 C 796.160156 1066.371094 794.855469 1067.113281 793.609375 1066.828125 C 792.984375 1066.65625 792.476562 1066.257812 792.136719 1065.746094 C 791.851562 1065.292969 791.738281 1064.722656 791.851562 1064.210938 L 796.105469 1046.570312 C 796.273438 1045.832031 796.160156 1045.035156 795.765625 1044.410156 C 795.367188 1043.726562 794.742188 1043.273438 794.007812 1043.101562 L 763.730469 1035.988281 C 763.558594 1035.929688 763.332031 1035.929688 763.105469 1035.929688 C 762.199219 1035.929688 761.347656 1036.328125 760.78125 1037.125 C 758.171875 1040.882812 753.351562 1042.644531 748.761719 1041.566406 C 745.757812 1040.882812 743.203125 1039.0625 741.617188 1036.445312 C 740.144531 1033.996094 739.632812 1031.152344 740.3125 1028.363281 C 741.558594 1023.242188 746.550781 1019.773438 751.992188 1020.171875 C 752.730469 1020.570312 754.601562 1021.648438 754.996094 1023.585938 C 755.28125 1024.894531 756.472656 1025.804688 757.777344 1025.804688 C 758.003906 1025.804688 758.171875 1025.804688 758.398438 1025.746094 C 759.929688 1025.40625 760.894531 1023.867188 760.554688 1022.332031 C 759.816406 1018.976562 757.4375 1016.871094 755.679688 1015.730469 C 755.679688 1015.675781 755.679688 1015.617188 755.734375 1015.503906 C 756.753906 1011.238281 761.234375 1008.5625 765.714844 1009.644531 C 767.019531 1009.929688 768.207031 1010.554688 769.34375 1011.523438 C 770.078125 1012.148438 771.042969 1012.375 772.007812 1012.089844 C 772.914062 1011.804688 773.652344 1011.066406 773.878906 1010.097656 C 775.523438 1004.296875 781.476562 1000.882812 787.597656 1002.304688 C 792.25 1003.386719 795.765625 1007.253906 796.332031 1011.921875 C 796.386719 1012.660156 796.332031 1015.335938 795.253906 1016.699219 C 794.347656 1017.953125 794.574219 1019.714844 795.820312 1020.683594 C 796.332031 1021.082031 796.953125 1021.25 797.519531 1021.25 C 798.371094 1021.25 799.222656 1020.851562 799.789062 1020.113281 C 801.09375 1018.40625 801.660156 1016.246094 801.886719 1014.480469 C 802.285156 1014.539062 802.679688 1014.59375 803.078125 1014.652344 C 807.558594 1015.730469 810.789062 1019.542969 810.957031 1023.984375 C 811.015625 1025.292969 812.375 1026.429688 813.625 1026.714844 C 817.988281 1027.738281 821.109375 1031.324219 821.449219 1035.648438 C 821.5625 1036.671875 822.183594 1037.582031 823.148438 1037.980469 C 827.515625 1039.972656 829.894531 1044.695312 828.820312 1049.1875 Z M 828.820312 1049.1875 " fill-opacity="1" fill-rule="nonzero"/></g><g clip-path="url(#86cc666f03)"><path fill="#ffffff" d="M 994.832031 1129.417969 C 993.980469 1096.527344 982.128906 1075.929688 975.15625 1066.601562 C 971.699219 1061.992188 965.800781 1059.886719 960.132812 1061.25 L 942.101562 1065.519531 C 941.308594 1062.617188 940.628906 1060.113281 940.058594 1058.007812 C 940.398438 1057.554688 940.742188 1057.15625 941.023438 1056.699219 C 943.347656 1052.945312 944.027344 1048.5625 943.007812 1044.351562 C 941.308594 1037.242188 934.957031 1032.175781 927.699219 1031.722656 C 927.644531 1031.664062 927.644531 1031.550781 927.644531 1031.4375 C 925.828125 1024.152344 918.289062 1019.601562 910.804688 1021.367188 C 909.839844 1021.59375 908.875 1021.933594 907.96875 1022.390625 C 904.453125 1015.789062 896.6875 1012.203125 888.917969 1014.027344 C 882.796875 1015.503906 878.03125 1020.113281 876.332031 1026.03125 C 875.367188 1026.03125 874.347656 1026.203125 873.441406 1026.429688 C 867.261719 1027.851562 862.554688 1032.800781 861.476562 1038.832031 C 855.976562 1040.652344 851.953125 1045.261719 850.929688 1050.839844 C 844.976562 1054.253906 841.917969 1061.195312 843.503906 1067.792969 C 844.695312 1072.574219 847.980469 1076.273438 852.292969 1078.152344 C 856.65625 1098.691406 869.015625 1158.71875 871.683594 1190.695312 C 871.683594 1190.695312 871.683594 1190.753906 871.683594 1190.808594 C 871.851562 1193.371094 872.023438 1195.761719 872.078125 1197.921875 C 872.191406 1200.3125 873.328125 1202.53125 875.140625 1204.066406 C 875.140625 1204.125 875.140625 1204.125 875.199219 1204.125 C 875.992188 1204.808594 876.898438 1205.320312 877.804688 1205.660156 C 878.769531 1206 879.789062 1206.171875 880.867188 1206.171875 C 881.320312 1206.171875 881.71875 1206.117188 882.171875 1206.058594 C 884.269531 1205.773438 886.820312 1205.375 889.882812 1204.863281 L 889.9375 1204.863281 C 890.222656 1204.808594 890.5625 1204.75 890.847656 1204.691406 C 896.855469 1203.667969 904.398438 1202.304688 913.015625 1200.425781 C 917.496094 1199.515625 922.257812 1198.378906 927.191406 1197.183594 C 946.976562 1192.746094 963.417969 1187.679688 971.414062 1185.0625 C 973.171875 1184.496094 974.589844 1183.414062 975.667969 1182.046875 C 975.722656 1181.933594 975.835938 1181.875 975.894531 1181.820312 C 976.234375 1181.308594 976.574219 1180.738281 976.800781 1180.167969 C 977.765625 1177.949219 977.765625 1175.390625 976.742188 1173.226562 C 976.234375 1172.203125 975.78125 1171.179688 975.328125 1170.097656 C 974.816406 1169.015625 974.363281 1167.878906 973.851562 1166.683594 C 972.773438 1163.953125 971.585938 1160.996094 970.394531 1157.808594 L 990.125 1140.054688 C 993.1875 1137.269531 994.945312 1133.398438 994.832031 1129.417969 Z M 946.976562 1151.949219 C 947.375 1153.425781 946.523438 1155.019531 945.050781 1155.476562 C 944.765625 1155.53125 944.484375 1155.589844 944.253906 1155.589844 C 943.007812 1155.589844 941.875 1154.792969 941.535156 1153.542969 L 921.691406 1086.570312 C 921.238281 1085.09375 922.144531 1083.5 923.617188 1083.042969 C 925.148438 1082.644531 926.679688 1083.441406 927.132812 1084.976562 Z M 874.402344 1062.675781 L 874.175781 1062.675781 C 872.816406 1062.789062 871.683594 1063.925781 871.570312 1065.292969 C 871.285156 1069.101562 867.203125 1072.515625 861.363281 1073.710938 C 855.695312 1074.90625 850.308594 1071.722656 849.003906 1066.484375 C 847.925781 1061.992188 850.308594 1057.269531 854.671875 1055.277344 C 855.636719 1054.820312 856.261719 1053.910156 856.375 1052.886719 C 856.714844 1048.5625 860.117188 1044.808594 864.59375 1043.953125 C 865.84375 1043.667969 866.804688 1042.589844 866.863281 1041.222656 C 867.03125 1036.84375 870.265625 1032.972656 874.742188 1031.949219 C 875.140625 1031.835938 875.539062 1031.777344 875.933594 1031.777344 C 876.160156 1033.484375 876.726562 1035.648438 878.03125 1037.410156 C 878.597656 1038.152344 879.449219 1038.550781 880.300781 1038.550781 C 880.867188 1038.550781 881.492188 1038.320312 882 1037.980469 C 883.25 1037.011719 883.476562 1035.191406 882.570312 1033.941406 C 881.546875 1032.632812 881.433594 1030.070312 881.492188 1029.21875 C 882.058594 1024.550781 885.574219 1020.683594 890.222656 1019.601562 C 896.289062 1018.179688 902.300781 1021.59375 903.941406 1027.398438 C 904.171875 1028.308594 904.90625 1029.046875 905.8125 1029.332031 C 906.777344 1029.617188 907.742188 1029.445312 908.480469 1028.820312 C 909.613281 1027.851562 910.804688 1027.226562 912.109375 1026.941406 C 916.585938 1025.859375 921.066406 1028.476562 922.085938 1032.800781 C 922.144531 1032.859375 922.144531 1032.972656 922.144531 1033.03125 C 920.386719 1034.167969 918.003906 1036.273438 917.265625 1039.628906 C 916.925781 1041.167969 917.890625 1042.703125 919.421875 1043.042969 C 919.648438 1043.042969 919.820312 1043.101562 920.046875 1043.101562 C 921.347656 1043.101562 922.539062 1042.191406 922.824219 1040.882812 C 923.222656 1038.945312 925.09375 1037.808594 925.828125 1037.46875 C 931.273438 1037.125 936.261719 1040.539062 937.507812 1045.660156 C 938.1875 1048.390625 937.679688 1051.292969 936.203125 1053.742188 C 934.617188 1056.300781 932.066406 1058.121094 929.0625 1058.863281 C 924.46875 1059.941406 919.648438 1058.121094 917.039062 1054.421875 C 916.359375 1053.457031 915.167969 1052.945312 914.09375 1053.285156 L 883.816406 1060.398438 C 883.078125 1060.570312 882.453125 1061.023438 882.058594 1061.648438 C 881.660156 1062.332031 881.546875 1063.070312 881.71875 1063.8125 L 885.96875 1081.449219 C 886.082031 1081.960938 885.96875 1082.53125 885.6875 1083.042969 C 885.347656 1083.554688 884.835938 1083.953125 884.210938 1084.066406 C 882.910156 1084.351562 881.660156 1083.667969 881.433594 1082.476562 L 877.183594 1064.835938 C 876.84375 1063.585938 875.707031 1062.675781 874.402344 1062.675781 Z M 918.683594 1161.679688 C 918.457031 1161.734375 918.230469 1161.792969 918.003906 1161.792969 C 916.757812 1161.792969 915.566406 1160.882812 915.28125 1159.574219 L 898.953125 1091.804688 C 898.558594 1090.269531 899.519531 1088.734375 901.050781 1088.390625 C 902.527344 1088.050781 904.113281 1088.960938 904.453125 1090.496094 L 920.78125 1158.261719 C 921.121094 1159.800781 920.214844 1161.335938 918.683594 1161.679688 Z M 878.429688 1093.683594 C 880.015625 1093.398438 881.492188 1094.421875 881.773438 1095.960938 L 894.589844 1164.578125 C 894.871094 1166.117188 893.851562 1167.59375 892.320312 1167.878906 C 892.148438 1167.9375 891.980469 1167.9375 891.808594 1167.9375 C 890.449219 1167.9375 889.257812 1166.96875 889.03125 1165.605469 L 876.21875 1096.984375 C 875.878906 1095.449219 876.898438 1093.96875 878.429688 1093.683594 Z M 971.585938 1175.617188 C 971.925781 1176.359375 971.925781 1177.152344 971.585938 1177.894531 C 971.242188 1178.746094 970.5625 1179.316406 969.65625 1179.601562 C 961.773438 1182.21875 945.617188 1187.226562 925.886719 1191.664062 C 906.324219 1196.441406 889.597656 1199.230469 881.320312 1200.425781 C 881.152344 1200.425781 881.039062 1200.484375 880.867188 1200.484375 C 880.128906 1200.484375 879.394531 1200.199219 878.824219 1199.742188 C 878.144531 1199.230469 877.804688 1198.492188 877.75 1197.695312 C 877.691406 1196.214844 877.636719 1194.621094 877.523438 1192.972656 C 888.863281 1191.09375 905.472656 1188.078125 923.902344 1183.582031 C 942.554688 1179.316406 958.714844 1174.652344 969.65625 1171.238281 C 970.28125 1172.773438 970.960938 1174.253906 971.585938 1175.617188 Z M 982.867188 1132.375 L 966.59375 1146.996094 C 958.714844 1124.238281 950.492188 1095.730469 944.878906 1075.589844 L 962.570312 1071.4375 C 964.042969 1071.09375 965.515625 1071.605469 966.367188 1072.746094 C 972.660156 1081.164062 983.265625 1099.714844 984.058594 1129.757812 C 984.113281 1130.726562 983.660156 1131.691406 982.867188 1132.375 Z M 982.867188 1132.375 " fill-opacity="1" fill-rule="nonzero"/></g><path fill="#ffffff" d="M 822.199219 992.273438 C 822.722656 993.1875 823.675781 993.691406 824.652344 993.691406 C 825.136719 993.691406 825.625 993.570312 826.074219 993.308594 C 827.425781 992.519531 827.890625 990.78125 827.101562 989.417969 L 809.292969 958.613281 C 808.511719 957.257812 806.777344 956.789062 805.417969 957.578125 C 804.0625 958.367188 803.601562 960.109375 804.386719 961.46875 Z M 822.199219 992.273438 " fill-opacity="1" fill-rule="nonzero"/><path fill="#ffffff" d="M 863.328125 997.507812 C 863.960938 997.507812 864.601562 997.296875 865.128906 996.859375 L 892.640625 974.09375 C 893.851562 973.09375 894.023438 971.296875 893.027344 970.085938 C 892.039062 968.871094 890.242188 968.699219 889.035156 969.703125 L 861.523438 992.46875 C 860.3125 993.46875 860.140625 995.265625 861.140625 996.476562 C 861.699219 997.160156 862.507812 997.507812 863.328125 997.507812 Z M 863.328125 997.507812 " fill-opacity="1" fill-rule="nonzero"/><g clip-path="url(#a3358594cc)"><path fill="#ffffff" d="M 844.277344 988.523438 C 845.722656 988.523438 846.957031 987.417969 847.097656 985.945312 L 850.695312 947.550781 C 850.839844 945.984375 849.695312 944.601562 848.136719 944.449219 C 846.570312 944.339844 845.195312 945.457031 845.046875 947.015625 L 841.449219 985.414062 C 841.304688 986.980469 842.449219 988.363281 844.007812 988.511719 C 844.097656 988.519531 844.1875 988.523438 844.277344 988.523438 Z M 844.277344 988.523438 " fill-opacity="1" fill-rule="nonzero"/></g><g fill="#ffffff" fill-opacity="1"><g transform="translate(457.081295, 914.700887)"><g><path d="M 43.1875 -50.984375 L 43.1875 -19 C 43.1875 -15.59375 42.484375 -12.457031 41.078125 -9.59375 C 39.679688 -6.726562 37.617188 -4.410156 34.890625 -2.640625 C 32.160156 -0.878906 28.796875 0 24.796875 0 L 6.890625 0 L 6.890625 -69.984375 L 24.796875 -69.984375 C 28.796875 -69.984375 32.160156 -69.113281 34.890625 -67.375 C 37.617188 -65.644531 39.679688 -63.328125 41.078125 -60.421875 C 42.484375 -57.523438 43.1875 -54.378906 43.1875 -50.984375 Z M 15.390625 -8 L 24.796875 -8 C 28.328125 -8 30.859375 -9.097656 32.390625 -11.296875 C 33.921875 -13.492188 34.6875 -16.0625 34.6875 -19 L 34.6875 -50.984375 C 34.6875 -53.910156 33.921875 -56.472656 32.390625 -58.671875 C 30.859375 -60.878906 28.328125 -61.984375 24.796875 -61.984375 L 15.390625 -61.984375 Z M 15.390625 -8 "/></g></g></g><g fill="#ffffff" fill-opacity="1"><g transform="translate(506.264747, 914.700887)"><g><path d="M 39.28125 0 L 6.890625 0 L 6.890625 -69.984375 L 39.28125 -69.984375 L 39.28125 -61.984375 L 15.390625 -61.984375 L 15.390625 -38.984375 L 34.296875 -38.984375 L 34.296875 -30.984375 L 15.390625 -30.984375 L 15.390625 -8 L 39.28125 -8 Z M 39.28125 0 "/></g></g></g><g fill="#ffffff" fill-opacity="1"><g transform="translate(550.050015, 914.700887)"><g><path d="M 15.390625 -25.09375 L 15.390625 0 L 6.890625 0 L 6.890625 -69.984375 L 23.296875 -69.984375 C 27.296875 -69.984375 30.660156 -69.113281 33.390625 -67.375 C 36.117188 -65.644531 38.179688 -63.328125 39.578125 -60.421875 C 40.984375 -57.523438 41.6875 -54.378906 41.6875 -50.984375 L 41.6875 -44.09375 C 41.6875 -40.6875 40.984375 -37.550781 39.578125 -34.6875 C 38.179688 -31.820312 36.117188 -29.503906 33.390625 -27.734375 C 30.660156 -25.972656 27.296875 -25.09375 23.296875 -25.09375 Z M 15.390625 -33.09375 L 23.296875 -33.09375 C 26.828125 -33.09375 29.359375 -34.191406 30.890625 -36.390625 C 32.421875 -38.585938 33.1875 -41.15625 33.1875 -44.09375 L 33.1875 -50.984375 C 33.1875 -53.910156 32.421875 -56.472656 30.890625 -58.671875 C 29.359375 -60.878906 26.828125 -61.984375 23.296875 -61.984375 L 15.390625 -61.984375 Z M 15.390625 -33.09375 "/></g></g></g><g fill="#ffffff" fill-opacity="1"><g transform="translate(595.834612, 914.700887)"><g><path d="M 43.890625 -52.28125 L 43.890625 -17.6875 C 43.890625 -14.363281 43.15625 -11.285156 41.6875 -8.453125 C 40.21875 -5.617188 38.082031 -3.332031 35.28125 -1.59375 C 32.488281 0.132812 29.054688 1 24.984375 1 C 20.859375 1 17.378906 0.132812 14.546875 -1.59375 C 11.710938 -3.332031 9.578125 -5.617188 8.140625 -8.453125 C 6.710938 -11.285156 6 -14.363281 6 -17.6875 L 6 -52.28125 C 6 -55.613281 6.710938 -58.695312 8.140625 -61.53125 C 9.578125 -64.363281 11.710938 -66.644531 14.546875 -68.375 C 17.378906 -70.113281 20.859375 -70.984375 24.984375 -70.984375 C 29.054688 -70.984375 32.488281 -70.113281 35.28125 -68.375 C 38.082031 -66.644531 40.21875 -64.363281 41.6875 -61.53125 C 43.15625 -58.695312 43.890625 -55.613281 43.890625 -52.28125 Z M 14.59375 -52.28125 L 14.59375 -17.6875 C 14.59375 -14.820312 15.472656 -12.320312 17.234375 -10.1875 C 19.003906 -8.0625 21.585938 -7 24.984375 -7 C 28.316406 -7 30.863281 -8.0625 32.625 -10.1875 C 34.394531 -12.320312 35.28125 -14.820312 35.28125 -17.6875 L 35.28125 -52.28125 C 35.28125 -55.144531 34.394531 -57.644531 32.625 -59.78125 C 30.863281 -61.914062 28.316406 -62.984375 24.984375 -62.984375 C 21.585938 -62.984375 19.003906 -61.914062 17.234375 -59.78125 C 15.472656 -57.644531 14.59375 -55.144531 14.59375 -52.28125 Z M 26.296875 -76.46875 L 19.5 -76.46875 L 28.484375 -89.96875 L 38.28125 -89.96875 Z M 26.296875 -76.46875 "/></g></g></g><g fill="#ffffff" fill-opacity="1"><g transform="translate(645.717833, 914.700887)"><g><path d="M 13 -20.6875 L 13 -17.6875 C 13 -14.625 13.878906 -12.054688 15.640625 -9.984375 C 17.410156 -7.921875 19.894531 -6.890625 23.09375 -6.890625 C 26.425781 -6.890625 28.941406 -7.972656 30.640625 -10.140625 C 32.335938 -12.304688 33.1875 -15.09375 33.1875 -18.5 C 33.1875 -21.09375 32.671875 -23.171875 31.640625 -24.734375 C 30.609375 -26.304688 29.238281 -27.554688 27.53125 -28.484375 C 25.832031 -29.421875 23.984375 -30.238281 21.984375 -30.9375 C 19.992188 -31.632812 17.976562 -32.398438 15.9375 -33.234375 C 13.90625 -34.066406 12.039062 -35.164062 10.34375 -36.53125 C 8.644531 -37.90625 7.28125 -39.738281 6.25 -42.03125 C 5.21875 -44.332031 4.703125 -47.316406 4.703125 -50.984375 C 4.703125 -54.847656 5.398438 -58.28125 6.796875 -61.28125 C 8.191406 -64.28125 10.238281 -66.644531 12.9375 -68.375 C 15.644531 -70.113281 18.960938 -70.984375 22.890625 -70.984375 C 26.953125 -70.984375 30.363281 -70.113281 33.125 -68.375 C 35.894531 -66.644531 37.976562 -64.363281 39.375 -61.53125 C 40.78125 -58.695312 41.484375 -55.613281 41.484375 -52.28125 L 41.484375 -49.28125 L 32.984375 -49.28125 L 32.984375 -52.28125 C 32.984375 -55.34375 32.097656 -57.890625 30.328125 -59.921875 C 28.566406 -61.960938 26.125 -62.984375 23 -62.984375 C 19.789062 -62.984375 17.351562 -61.898438 15.6875 -59.734375 C 14.03125 -57.566406 13.203125 -54.785156 13.203125 -51.390625 C 13.203125 -47.648438 14.316406 -44.878906 16.546875 -43.078125 C 18.773438 -41.285156 21.585938 -39.820312 24.984375 -38.6875 C 27.722656 -37.820312 30.375 -36.6875 32.9375 -35.28125 C 35.5 -33.882812 37.597656 -31.921875 39.234375 -29.390625 C 40.867188 -26.859375 41.6875 -23.425781 41.6875 -19.09375 C 41.6875 -15.226562 40.984375 -11.78125 39.578125 -8.75 C 38.179688 -5.71875 36.117188 -3.332031 33.390625 -1.59375 C 30.660156 0.132812 27.296875 1 23.296875 1 C 19.222656 1 15.785156 0.132812 12.984375 -1.59375 C 10.191406 -3.332031 8.078125 -5.617188 6.640625 -8.453125 C 5.210938 -11.285156 4.5 -14.363281 4.5 -17.6875 L 4.5 -20.6875 Z M 13 -20.6875 "/></g></g></g><g fill="#ffffff" fill-opacity="1"><g transform="translate(692.002273, 914.700887)"><g><path d="M 15.390625 0 L 6.890625 0 L 6.890625 -69.984375 L 15.390625 -69.984375 Z M 15.390625 0 "/></g></g></g><g fill="#ffffff" fill-opacity="1"><g transform="translate(714.294765, 914.700887)"><g><path d="M 24.796875 0 L 16.296875 0 L 16.296875 -61.984375 L 2.5 -61.984375 L 2.5 -69.984375 L 38.59375 -69.984375 L 38.59375 -61.984375 L 24.796875 -61.984375 Z M 24.796875 0 "/></g></g></g><g fill="#ffffff" fill-opacity="1"><g transform="translate(755.380959, 914.700887)"><g><path d="M 43.890625 -52.28125 L 43.890625 -17.6875 C 43.890625 -14.363281 43.15625 -11.285156 41.6875 -8.453125 C 40.21875 -5.617188 38.082031 -3.332031 35.28125 -1.59375 C 32.488281 0.132812 29.054688 1 24.984375 1 C 20.859375 1 17.378906 0.132812 14.546875 -1.59375 C 11.710938 -3.332031 9.578125 -5.617188 8.140625 -8.453125 C 6.710938 -11.285156 6 -14.363281 6 -17.6875 L 6 -52.28125 C 6 -55.613281 6.710938 -58.695312 8.140625 -61.53125 C 9.578125 -64.363281 11.710938 -66.644531 14.546875 -68.375 C 17.378906 -70.113281 20.859375 -70.984375 24.984375 -70.984375 C 29.054688 -70.984375 32.488281 -70.113281 35.28125 -68.375 C 38.082031 -66.644531 40.21875 -64.363281 41.6875 -61.53125 C 43.15625 -58.695312 43.890625 -55.613281 43.890625 -52.28125 Z M 14.59375 -52.28125 L 14.59375 -17.6875 C 14.59375 -14.820312 15.472656 -12.320312 17.234375 -10.1875 C 19.003906 -8.0625 21.585938 -7 24.984375 -7 C 28.316406 -7 30.863281 -8.0625 32.625 -10.1875 C 34.394531 -12.320312 35.28125 -14.820312 35.28125 -17.6875 L 35.28125 -52.28125 C 35.28125 -55.144531 34.394531 -57.644531 32.625 -59.78125 C 30.863281 -61.914062 28.316406 -62.984375 24.984375 -62.984375 C 21.585938 -62.984375 19.003906 -61.914062 17.234375 -59.78125 C 15.472656 -57.644531 14.59375 -55.144531 14.59375 -52.28125 Z M 14.59375 -52.28125 "/></g></g></g><g fill="#ffffff" fill-opacity="1"><g transform="translate(805.264169, 914.700887)"><g/></g></g><g fill="#ffffff" fill-opacity="1"><g transform="translate(823.857911, 914.700887)"><g><path d="M 43.1875 -50.984375 L 43.1875 -19 C 43.1875 -15.59375 42.484375 -12.457031 41.078125 -9.59375 C 39.679688 -6.726562 37.617188 -4.410156 34.890625 -2.640625 C 32.160156 -0.878906 28.796875 0 24.796875 0 L 6.890625 0 L 6.890625 -69.984375 L 24.796875 -69.984375 C 28.796875 -69.984375 32.160156 -69.113281 34.890625 -67.375 C 37.617188 -65.644531 39.679688 -63.328125 41.078125 -60.421875 C 42.484375 -57.523438 43.1875 -54.378906 43.1875 -50.984375 Z M 15.390625 -8 L 24.796875 -8 C 28.328125 -8 30.859375 -9.097656 32.390625 -11.296875 C 33.921875 -13.492188 34.6875 -16.0625 34.6875 -19 L 34.6875 -50.984375 C 34.6875 -53.910156 33.921875 -56.472656 32.390625 -58.671875 C 30.859375 -60.878906 28.328125 -61.984375 24.796875 -61.984375 L 15.390625 -61.984375 Z M 15.390625 -8 "/></g></g></g><g fill="#ffffff" fill-opacity="1"><g transform="translate(873.041386, 914.700887)"><g><path d="M 39.28125 0 L 6.890625 0 L 6.890625 -69.984375 L 39.28125 -69.984375 L 39.28125 -61.984375 L 15.390625 -61.984375 L 15.390625 -38.984375 L 34.296875 -38.984375 L 34.296875 -30.984375 L 15.390625 -30.984375 L 15.390625 -8 L 39.28125 -8 Z M 39.28125 0 "/></g></g></g><g fill="#ffffff" fill-opacity="1"><g transform="translate(916.826665, 914.700887)"><g/></g></g><g fill="#ffffff" fill-opacity="1"><g transform="translate(935.420384, 914.700887)"><g><path d="M 24.296875 0 L 6.890625 0 L 6.890625 -69.984375 L 23.296875 -69.984375 C 27.296875 -69.984375 30.660156 -69.113281 33.390625 -67.375 C 36.117188 -65.644531 38.179688 -63.363281 39.578125 -60.53125 C 40.984375 -57.695312 41.6875 -54.613281 41.6875 -51.28125 L 41.6875 -49.78125 C 41.6875 -46.71875 40.9375 -43.882812 39.4375 -41.28125 C 37.9375 -38.6875 35.753906 -36.65625 32.890625 -35.1875 C 36.085938 -33.851562 38.519531 -31.835938 40.1875 -29.140625 C 41.851562 -26.441406 42.6875 -23.457031 42.6875 -20.1875 L 42.6875 -18.6875 C 42.6875 -15.363281 41.984375 -12.285156 40.578125 -9.453125 C 39.179688 -6.617188 37.117188 -4.332031 34.390625 -2.59375 C 31.660156 -0.863281 28.296875 0 24.296875 0 Z M 34.1875 -18.6875 L 34.1875 -20.1875 C 34.1875 -23.125 33.382812 -25.65625 31.78125 -27.78125 C 30.1875 -29.914062 27.59375 -30.984375 24 -30.984375 L 15.390625 -30.984375 L 15.390625 -8 L 24.296875 -8 C 27.828125 -8 30.359375 -9.0625 31.890625 -11.1875 C 33.421875 -13.320312 34.1875 -15.820312 34.1875 -18.6875 Z M 33.1875 -49.78125 L 33.1875 -51.28125 C 33.1875 -54.144531 32.421875 -56.644531 30.890625 -58.78125 C 29.359375 -60.914062 26.828125 -61.984375 23.296875 -61.984375 L 15.390625 -61.984375 L 15.390625 -38.984375 L 23 -38.984375 C 26.59375 -38.984375 29.1875 -40.066406 30.78125 -42.234375 C 32.382812 -44.398438 33.1875 -46.914062 33.1875 -49.78125 Z M 33.1875 -49.78125 "/></g></g></g><g fill="#ffffff" fill-opacity="1"><g transform="translate(983.804132, 914.700887)"><g><path d="M 39.28125 0 L 6.890625 0 L 6.890625 -69.984375 L 39.28125 -69.984375 L 39.28125 -61.984375 L 15.390625 -61.984375 L 15.390625 -38.984375 L 34.296875 -38.984375 L 34.296875 -30.984375 L 15.390625 -30.984375 L 15.390625 -8 L 39.28125 -8 Z M 39.28125 0 "/></g></g></g><g fill="#ffffff" fill-opacity="1"><g transform="translate(1027.589412, 914.700887)"><g><path d="M 24.296875 0 L 6.890625 0 L 6.890625 -69.984375 L 23.296875 -69.984375 C 27.296875 -69.984375 30.660156 -69.113281 33.390625 -67.375 C 36.117188 -65.644531 38.179688 -63.363281 39.578125 -60.53125 C 40.984375 -57.695312 41.6875 -54.613281 41.6875 -51.28125 L 41.6875 -49.78125 C 41.6875 -46.71875 40.9375 -43.882812 39.4375 -41.28125 C 37.9375 -38.6875 35.753906 -36.65625 32.890625 -35.1875 C 36.085938 -33.851562 38.519531 -31.835938 40.1875 -29.140625 C 41.851562 -26.441406 42.6875 -23.457031 42.6875 -20.1875 L 42.6875 -18.6875 C 42.6875 -15.363281 41.984375 -12.285156 40.578125 -9.453125 C 39.179688 -6.617188 37.117188 -4.332031 34.390625 -2.59375 C 31.660156 -0.863281 28.296875 0 24.296875 0 Z M 34.1875 -18.6875 L 34.1875 -20.1875 C 34.1875 -23.125 33.382812 -25.65625 31.78125 -27.78125 C 30.1875 -29.914062 27.59375 -30.984375 24 -30.984375 L 15.390625 -30.984375 L 15.390625 -8 L 24.296875 -8 C 27.828125 -8 30.359375 -9.0625 31.890625 -11.1875 C 33.421875 -13.320312 34.1875 -15.820312 34.1875 -18.6875 Z M 33.1875 -49.78125 L 33.1875 -51.28125 C 33.1875 -54.144531 32.421875 -56.644531 30.890625 -58.78125 C 29.359375 -60.914062 26.828125 -61.984375 23.296875 -61.984375 L 15.390625 -61.984375 L 15.390625 -38.984375 L 23 -38.984375 C 26.59375 -38.984375 29.1875 -40.066406 30.78125 -42.234375 C 32.382812 -44.398438 33.1875 -46.914062 33.1875 -49.78125 Z M 33.1875 -49.78125 "/></g></g></g><g fill="#ffffff" fill-opacity="1"><g transform="translate(1075.973114, 914.700887)"><g><path d="M 15.390625 0 L 6.890625 0 L 6.890625 -69.984375 L 15.390625 -69.984375 Z M 15.390625 0 "/></g></g></g><g fill="#ffffff" fill-opacity="1"><g transform="translate(1098.265606, 914.700887)"><g><path d="M 43.1875 -50.984375 L 43.1875 -19 C 43.1875 -15.59375 42.484375 -12.457031 41.078125 -9.59375 C 39.679688 -6.726562 37.617188 -4.410156 34.890625 -2.640625 C 32.160156 -0.878906 28.796875 0 24.796875 0 L 6.890625 0 L 6.890625 -69.984375 L 24.796875 -69.984375 C 28.796875 -69.984375 32.160156 -69.113281 34.890625 -67.375 C 37.617188 -65.644531 39.679688 -63.328125 41.078125 -60.421875 C 42.484375 -57.523438 43.1875 -54.378906 43.1875 -50.984375 Z M 15.390625 -8 L 24.796875 -8 C 28.328125 -8 30.859375 -9.097656 32.390625 -11.296875 C 33.921875 -13.492188 34.6875 -16.0625 34.6875 -19 L 34.6875 -50.984375 C 34.6875 -53.910156 33.921875 -56.472656 32.390625 -58.671875 C 30.859375 -60.878906 28.328125 -61.984375 24.796875 -61.984375 L 15.390625 -61.984375 Z M 15.390625 -8 "/></g></g></g><g fill="#ffffff" fill-opacity="1"><g transform="translate(1147.449058, 914.700887)"><g><path d="M 48.578125 0 L 39.984375 0 L 35.59375 -16.890625 L 15.390625 -16.890625 L 11 0 L 2.40625 0 L 20.6875 -69.984375 L 30.1875 -69.984375 Z M 33.484375 -24.890625 L 28.796875 -43.1875 C 27.992188 -46.1875 27.390625 -49.25 26.984375 -52.375 C 26.585938 -55.507812 26.125 -58.613281 25.59375 -61.6875 L 25.390625 -61.6875 C 24.859375 -58.613281 24.390625 -55.507812 23.984375 -52.375 C 23.585938 -49.25 22.988281 -46.1875 22.1875 -43.1875 L 17.390625 -24.890625 Z M 33.484375 -24.890625 "/></g></g></g><g fill="#ffffff" fill-opacity="1"><g transform="translate(1198.4319, 914.700887)"><g><path d="M 13 -20.6875 L 13 -17.6875 C 13 -14.625 13.878906 -12.054688 15.640625 -9.984375 C 17.410156 -7.921875 19.894531 -6.890625 23.09375 -6.890625 C 26.425781 -6.890625 28.941406 -7.972656 30.640625 -10.140625 C 32.335938 -12.304688 33.1875 -15.09375 33.1875 -18.5 C 33.1875 -21.09375 32.671875 -23.171875 31.640625 -24.734375 C 30.609375 -26.304688 29.238281 -27.554688 27.53125 -28.484375 C 25.832031 -29.421875 23.984375 -30.238281 21.984375 -30.9375 C 19.992188 -31.632812 17.976562 -32.398438 15.9375 -33.234375 C 13.90625 -34.066406 12.039062 -35.164062 10.34375 -36.53125 C 8.644531 -37.90625 7.28125 -39.738281 6.25 -42.03125 C 5.21875 -44.332031 4.703125 -47.316406 4.703125 -50.984375 C 4.703125 -54.847656 5.398438 -58.28125 6.796875 -61.28125 C 8.191406 -64.28125 10.238281 -66.644531 12.9375 -68.375 C 15.644531 -70.113281 18.960938 -70.984375 22.890625 -70.984375 C 26.953125 -70.984375 30.363281 -70.113281 33.125 -68.375 C 35.894531 -66.644531 37.976562 -64.363281 39.375 -61.53125 C 40.78125 -58.695312 41.484375 -55.613281 41.484375 -52.28125 L 41.484375 -49.28125 L 32.984375 -49.28125 L 32.984375 -52.28125 C 32.984375 -55.34375 32.097656 -57.890625 30.328125 -59.921875 C 28.566406 -61.960938 26.125 -62.984375 23 -62.984375 C 19.789062 -62.984375 17.351562 -61.898438 15.6875 -59.734375 C 14.03125 -57.566406 13.203125 -54.785156 13.203125 -51.390625 C 13.203125 -47.648438 14.316406 -44.878906 16.546875 -43.078125 C 18.773438 -41.285156 21.585938 -39.820312 24.984375 -38.6875 C 27.722656 -37.820312 30.375 -36.6875 32.9375 -35.28125 C 35.5 -33.882812 37.597656 -31.921875 39.234375 -29.390625 C 40.867188 -26.859375 41.6875 -23.425781 41.6875 -19.09375 C 41.6875 -15.226562 40.984375 -11.78125 39.578125 -8.75 C 38.179688 -5.71875 36.117188 -3.332031 33.390625 -1.59375 C 30.660156 0.132812 27.296875 1 23.296875 1 C 19.222656 1 15.785156 0.132812 12.984375 -1.59375 C 10.191406 -3.332031 8.078125 -5.617188 6.640625 -8.453125 C 5.210938 -11.285156 4.5 -14.363281 4.5 -17.6875 L 4.5 -20.6875 Z M 13 -20.6875 "/></g></g></g><g fill="#ffffff" fill-opacity="1"><g transform="translate(374.924158, 788.9883)"><g><path d="M 83.96875 -87.71875 C 89.632812 -93.21875 95.300781 -98.84375 100.96875 -104.59375 C 106.632812 -110.34375 111.425781 -115.835938 115.34375 -121.078125 C 119.257812 -126.328125 121.21875 -130.785156 121.21875 -134.453125 C 117.050781 -134.453125 114.96875 -136.535156 114.96875 -140.703125 C 119.800781 -140.703125 124.085938 -142.078125 127.828125 -144.828125 C 131.578125 -147.578125 135.035156 -150.535156 138.203125 -153.703125 C 141.535156 -150.535156 145.078125 -147.578125 148.828125 -144.828125 C 152.578125 -142.078125 156.867188 -140.703125 161.703125 -140.703125 C 161.703125 -136.535156 159.617188 -134.453125 155.453125 -134.453125 L 155.453125 -76.21875 C 157.453125 -76.21875 158.992188 -75.71875 160.078125 -74.71875 C 161.160156 -73.726562 162.203125 -72.691406 163.203125 -71.609375 C 164.203125 -70.523438 165.703125 -69.984375 167.703125 -69.984375 C 163.367188 -68.816406 160.242188 -67.234375 158.328125 -65.234375 C 156.410156 -63.234375 155.453125 -59.984375 155.453125 -55.484375 L 155.453125 -19.75 C 159.617188 -19.75 161.703125 -17.664062 161.703125 -13.5 C 156.867188 -13.5 152.578125 -12.039062 148.828125 -9.125 C 145.078125 -6.207031 141.535156 -3.164062 138.203125 0 C 135.035156 -3.164062 131.578125 -6.207031 127.828125 -9.125 C 124.085938 -12.039062 119.800781 -13.5 114.96875 -13.5 C 114.96875 -17.664062 117.050781 -19.75 121.21875 -19.75 L 121.21875 -84.46875 C 117.050781 -80.46875 112.46875 -76.675781 107.46875 -73.09375 C 102.46875 -69.519531 97.800781 -65.816406 93.46875 -61.984375 C 89.132812 -58.148438 85.96875 -53.734375 83.96875 -48.734375 C 81.800781 -53.734375 78.550781 -58.148438 74.21875 -61.984375 C 69.894531 -65.816406 65.273438 -69.519531 60.359375 -73.09375 C 55.441406 -76.675781 50.898438 -80.46875 46.734375 -84.46875 L 46.734375 -19.75 C 48.398438 -19.75 49.816406 -19.164062 50.984375 -18 C 52.148438 -16.832031 52.734375 -15.332031 52.734375 -13.5 C 47.898438 -13.5 43.648438 -12.039062 39.984375 -9.125 C 36.316406 -6.207031 32.816406 -3.164062 29.484375 0 C 26.160156 -3.164062 22.664062 -6.207031 19 -9.125 C 15.332031 -12.039062 11.082031 -13.5 6.25 -13.5 C 6.25 -15.332031 6.832031 -16.832031 8 -18 C 9.164062 -19.164062 10.582031 -19.75 12.25 -19.75 L 12.25 -55.484375 C 12.25 -59.984375 11.332031 -63.234375 9.5 -65.234375 C 7.664062 -67.234375 4.5 -68.816406 0 -69.984375 C 2 -69.984375 3.539062 -70.523438 4.625 -71.609375 C 5.707031 -72.691406 6.789062 -73.726562 7.875 -74.71875 C 8.957031 -75.71875 10.414062 -76.21875 12.25 -76.21875 L 12.25 -134.453125 C 10.582031 -134.453125 9.164062 -135.035156 8 -136.203125 C 6.832031 -137.367188 6.25 -138.867188 6.25 -140.703125 C 11.082031 -140.703125 15.332031 -142.078125 19 -144.828125 C 22.664062 -147.578125 26.160156 -150.535156 29.484375 -153.703125 C 32.816406 -150.535156 36.316406 -147.578125 39.984375 -144.828125 C 43.648438 -142.078125 47.898438 -140.703125 52.734375 -140.703125 C 52.734375 -138.867188 52.148438 -137.367188 50.984375 -136.203125 C 49.816406 -135.035156 48.398438 -134.453125 46.734375 -134.453125 C 46.734375 -130.785156 48.648438 -126.328125 52.484375 -121.078125 C 56.316406 -115.835938 61.101562 -110.300781 66.84375 -104.46875 C 72.59375 -98.632812 78.300781 -93.050781 83.96875 -87.71875 Z M 83.96875 -87.71875 "/></g></g></g><g fill="#ffffff" fill-opacity="1"><g transform="translate(539.872968, 788.9883)"><g><path d="M 12 -19.25 C 12.5 -31.070312 12.707031 -39.648438 12.625 -44.984375 C 12.539062 -50.316406 12.375 -53.773438 12.125 -55.359375 C 11.875 -56.941406 11.75 -57.816406 11.75 -57.984375 C 10.414062 -60.648438 8.875 -63.191406 7.125 -65.609375 C 5.375 -68.023438 3.25 -69.398438 0.75 -69.734375 C 2.414062 -70.066406 3.707031 -70.734375 4.625 -71.734375 C 5.539062 -72.734375 6.539062 -73.726562 7.625 -74.71875 C 8.707031 -75.71875 10.164062 -76.21875 12 -76.21875 L 12 -134.203125 L 11.25 -134.203125 C 9.914062 -134.535156 8.582031 -135.117188 7.25 -135.953125 C 5.914062 -136.785156 5.25 -137.867188 5.25 -139.203125 C 10.082031 -140.535156 14.332031 -142.410156 18 -144.828125 C 21.664062 -147.242188 25.160156 -150.117188 28.484375 -153.453125 C 33.648438 -148.453125 39.316406 -145.203125 45.484375 -143.703125 C 51.648438 -142.203125 57.734375 -142.328125 63.734375 -144.078125 C 69.734375 -145.828125 74.976562 -148.953125 79.46875 -153.453125 C 86.800781 -145.953125 92.34375 -138.203125 96.09375 -130.203125 C 99.84375 -122.210938 101.882812 -114.382812 102.21875 -106.71875 C 102.382812 -97.050781 100.007812 -88.757812 95.09375 -81.84375 C 90.175781 -74.9375 83.632812 -69.148438 75.46875 -64.484375 L 85.46875 -46.734375 L 89.71875 -39.234375 L 101.21875 -19.25 C 103.050781 -19.25 104.882812 -18.664062 106.71875 -17.5 C 108.550781 -16.332031 109.96875 -14.914062 110.96875 -13.25 C 106.300781 -13.25 103.007812 -11.875 101.09375 -9.125 C 99.175781 -6.375 97.550781 -3.332031 96.21875 0 C 91.21875 -3.332031 86.257812 -6.375 81.34375 -9.125 C 76.4375 -11.875 71.566406 -13.25 66.734375 -13.25 C 65.734375 -14.914062 65.484375 -16.332031 65.984375 -17.5 C 66.484375 -18.664062 67.566406 -19.25 69.234375 -19.25 L 57.734375 -39.234375 L 44.234375 -62.984375 L 43.984375 -62.984375 L 43.984375 -19.25 C 45.648438 -19.082031 47.109375 -18.5 48.359375 -17.5 C 49.609375 -16.5 50.234375 -15.25 50.234375 -13.75 C 45.398438 -12.914062 41.234375 -11.207031 37.734375 -8.625 C 34.234375 -6.039062 30.984375 -3.164062 27.984375 0 L 27.484375 -0.75 C 21.492188 -6.082031 17.082031 -9.457031 14.25 -10.875 C 11.414062 -12.289062 8.664062 -13.164062 6 -13.5 C 6.332031 -15 7.039062 -16.332031 8.125 -17.5 C 9.207031 -18.664062 10.5 -19.25 12 -19.25 Z M 43.984375 -126.953125 L 43.984375 -77.21875 C 51.648438 -77.21875 58.148438 -79.34375 63.484375 -83.59375 C 68.816406 -87.84375 71.734375 -93.632812 72.234375 -100.96875 C 72.234375 -109.46875 69.566406 -115.921875 64.234375 -120.328125 C 58.898438 -124.742188 52.148438 -126.953125 43.984375 -126.953125 Z M 43.984375 -126.953125 "/></g></g></g><g fill="#ffffff" fill-opacity="1"><g transform="translate(648.089374, 788.9883)"><g><path d="M 0.75 -16.75 C 0.75 -21.082031 2.414062 -25.160156 5.75 -28.984375 C 9.582031 -32.316406 13.664062 -33.984375 18 -33.984375 C 22.820312 -33.984375 26.898438 -32.316406 30.234375 -28.984375 C 33.566406 -25.660156 35.234375 -21.582031 35.234375 -16.75 C 35.234375 -12.25 33.566406 -8.082031 30.234375 -4.25 C 26.898438 -0.914062 22.820312 0.75 18 0.75 C 13.332031 0.75 9.25 -1 5.75 -4.5 C 2.414062 -7.832031 0.75 -11.914062 0.75 -16.75 Z M 0.75 -16.75 "/></g></g></g><g fill="#ffffff" fill-opacity="1"><g transform="translate(680.579221, 788.9883)"><g/></g></g><g fill="#ffffff" fill-opacity="1"><g transform="translate(748.558068, 788.9883)"><g><path d="M 45.984375 -127.953125 L 45.984375 -25.734375 C 54.148438 -25.734375 60.898438 -28.234375 66.234375 -33.234375 C 71.566406 -38.234375 75.5625 -44.609375 78.21875 -52.359375 C 80.882812 -60.109375 82.21875 -68.226562 82.21875 -76.71875 C 82.21875 -85.382812 80.882812 -93.59375 78.21875 -101.34375 C 75.5625 -109.09375 71.566406 -115.460938 66.234375 -120.453125 C 60.898438 -125.453125 54.148438 -127.953125 45.984375 -127.953125 Z M 112.21875 -76.71875 C 112.21875 -70.894531 111.300781 -64.359375 109.46875 -57.109375 C 107.632812 -49.859375 105.21875 -42.609375 102.21875 -35.359375 C 99.21875 -28.117188 95.882812 -21.375 92.21875 -15.125 C 88.550781 -8.875 84.800781 -3.832031 80.96875 0 C 76.3125 -4.164062 70.898438 -6.664062 64.734375 -7.5 C 58.566406 -8.332031 52.359375 -8 46.109375 -6.5 C 39.859375 -5 34.316406 -2.832031 29.484375 0 C 26.816406 -2.832031 23.316406 -5.707031 18.984375 -8.625 C 14.660156 -11.539062 10.414062 -13 6.25 -13 L 6.25 -13.5 C 6.25 -17.332031 8.25 -19.414062 12.25 -19.75 C 12.25 -24.238281 12.457031 -29.148438 12.875 -34.484375 C 13.289062 -39.816406 13.375 -44.941406 13.125 -49.859375 C 12.875 -54.773438 11.789062 -59.023438 9.875 -62.609375 C 7.957031 -66.191406 4.664062 -68.648438 0 -69.984375 C 1.832031 -69.984375 3.289062 -70.523438 4.375 -71.609375 C 5.457031 -72.691406 6.582031 -73.726562 7.75 -74.71875 C 8.914062 -75.71875 10.414062 -76.21875 12.25 -76.21875 L 12.25 -133.703125 C 8.25 -133.703125 6.25 -135.785156 6.25 -139.953125 L 6.25 -140.453125 C 9.25 -140.453125 12.039062 -141.035156 14.625 -142.203125 C 17.207031 -143.367188 19.664062 -144.867188 22 -146.703125 C 23.332031 -147.867188 24.617188 -149.035156 25.859375 -150.203125 C 27.109375 -151.367188 28.316406 -152.535156 29.484375 -153.703125 C 35.148438 -152.703125 41.066406 -151.285156 47.234375 -149.453125 C 53.398438 -147.617188 59.441406 -146.742188 65.359375 -146.828125 C 71.273438 -146.910156 76.476562 -149.117188 80.96875 -153.453125 C 88.96875 -145.785156 95.257812 -138.492188 99.84375 -131.578125 C 104.425781 -124.671875 107.632812 -116.96875 109.46875 -108.46875 C 111.300781 -99.96875 112.21875 -89.382812 112.21875 -76.71875 Z M 112.21875 -76.71875 "/></g></g></g><g fill="#ffffff" fill-opacity="1"><g transform="translate(858.024036, 788.9883)"><g><path d="M 12 -19.25 C 12.5 -31.070312 12.707031 -39.648438 12.625 -44.984375 C 12.539062 -50.316406 12.375 -53.773438 12.125 -55.359375 C 11.875 -56.941406 11.75 -57.816406 11.75 -57.984375 C 10.414062 -60.648438 8.875 -63.191406 7.125 -65.609375 C 5.375 -68.023438 3.25 -69.398438 0.75 -69.734375 C 2.414062 -70.066406 3.707031 -70.734375 4.625 -71.734375 C 5.539062 -72.734375 6.539062 -73.726562 7.625 -74.71875 C 8.707031 -75.71875 10.164062 -76.21875 12 -76.21875 L 12 -134.203125 L 11.25 -134.203125 C 9.914062 -134.535156 8.582031 -135.117188 7.25 -135.953125 C 5.914062 -136.785156 5.25 -137.867188 5.25 -139.203125 C 10.082031 -140.535156 14.332031 -142.410156 18 -144.828125 C 21.664062 -147.242188 25.160156 -150.117188 28.484375 -153.453125 C 33.648438 -148.453125 39.316406 -145.203125 45.484375 -143.703125 C 51.648438 -142.203125 57.734375 -142.328125 63.734375 -144.078125 C 69.734375 -145.828125 74.976562 -148.953125 79.46875 -153.453125 C 86.800781 -145.953125 92.34375 -138.203125 96.09375 -130.203125 C 99.84375 -122.210938 101.882812 -114.382812 102.21875 -106.71875 C 102.382812 -97.050781 100.007812 -88.757812 95.09375 -81.84375 C 90.175781 -74.9375 83.632812 -69.148438 75.46875 -64.484375 L 85.46875 -46.734375 L 89.71875 -39.234375 L 101.21875 -19.25 C 103.050781 -19.25 104.882812 -18.664062 106.71875 -17.5 C 108.550781 -16.332031 109.96875 -14.914062 110.96875 -13.25 C 106.300781 -13.25 103.007812 -11.875 101.09375 -9.125 C 99.175781 -6.375 97.550781 -3.332031 96.21875 0 C 91.21875 -3.332031 86.257812 -6.375 81.34375 -9.125 C 76.4375 -11.875 71.566406 -13.25 66.734375 -13.25 C 65.734375 -14.914062 65.484375 -16.332031 65.984375 -17.5 C 66.484375 -18.664062 67.566406 -19.25 69.234375 -19.25 L 57.734375 -39.234375 L 44.234375 -62.984375 L 43.984375 -62.984375 L 43.984375 -19.25 C 45.648438 -19.082031 47.109375 -18.5 48.359375 -17.5 C 49.609375 -16.5 50.234375 -15.25 50.234375 -13.75 C 45.398438 -12.914062 41.234375 -11.207031 37.734375 -8.625 C 34.234375 -6.039062 30.984375 -3.164062 27.984375 0 L 27.484375 -0.75 C 21.492188 -6.082031 17.082031 -9.457031 14.25 -10.875 C 11.414062 -12.289062 8.664062 -13.164062 6 -13.5 C 6.332031 -15 7.039062 -16.332031 8.125 -17.5 C 9.207031 -18.664062 10.5 -19.25 12 -19.25 Z M 43.984375 -126.953125 L 43.984375 -77.21875 C 51.648438 -77.21875 58.148438 -79.34375 63.484375 -83.59375 C 68.816406 -87.84375 71.734375 -93.632812 72.234375 -100.96875 C 72.234375 -109.46875 69.566406 -115.921875 64.234375 -120.328125 C 58.898438 -124.742188 52.148438 -126.953125 43.984375 -126.953125 Z M 43.984375 -126.953125 "/></g></g></g><g fill="#ffffff" fill-opacity="1"><g transform="translate(966.240453, 788.9883)"><g><path d="M 46.484375 -134.453125 L 46.484375 -76.46875 C 48.484375 -76.46875 50.023438 -75.925781 51.109375 -74.84375 C 52.191406 -73.769531 53.273438 -72.691406 54.359375 -71.609375 C 55.441406 -70.523438 56.898438 -69.984375 58.734375 -69.984375 C 54.066406 -68.648438 50.734375 -66.148438 48.734375 -62.484375 C 46.734375 -58.816406 45.648438 -54.523438 45.484375 -49.609375 C 45.316406 -44.691406 45.441406 -39.609375 45.859375 -34.359375 C 46.273438 -29.109375 46.484375 -24.15625 46.484375 -19.5 C 48.316406 -19.5 49.816406 -18.914062 50.984375 -17.75 C 52.148438 -16.582031 52.734375 -15.164062 52.734375 -13.5 C 47.898438 -13.5 43.609375 -12.082031 39.859375 -9.25 C 36.109375 -6.414062 32.648438 -3.332031 29.484375 0 C 26.160156 -3.332031 22.625 -6.414062 18.875 -9.25 C 15.125 -12.082031 10.832031 -13.5 6 -13.5 C 6 -15.164062 6.582031 -16.582031 7.75 -17.75 C 8.914062 -18.914062 10.414062 -19.5 12.25 -19.5 C 12.25 -24.15625 12.457031 -29.109375 12.875 -34.359375 C 13.289062 -39.609375 13.414062 -44.691406 13.25 -49.609375 C 13.082031 -54.523438 12.039062 -58.816406 10.125 -62.484375 C 8.207031 -66.148438 4.832031 -68.648438 0 -69.984375 C 2 -69.984375 3.539062 -70.523438 4.625 -71.609375 C 5.707031 -72.691406 6.75 -73.769531 7.75 -74.84375 C 8.75 -75.925781 10.25 -76.46875 12.25 -76.46875 L 12.25 -134.453125 C 10.414062 -134.453125 8.914062 -135.035156 7.75 -136.203125 C 6.582031 -137.367188 6 -138.785156 6 -140.453125 C 10.832031 -140.453125 15.125 -141.828125 18.875 -144.578125 C 22.625 -147.328125 26.160156 -150.367188 29.484375 -153.703125 C 32.648438 -150.367188 36.109375 -147.328125 39.859375 -144.578125 C 43.609375 -141.828125 47.898438 -140.453125 52.734375 -140.453125 C 52.734375 -138.785156 52.148438 -137.367188 50.984375 -136.203125 C 49.816406 -135.035156 48.316406 -134.453125 46.484375 -134.453125 Z M 46.484375 -134.453125 "/></g></g></g><g fill="#ffffff" fill-opacity="1"><g transform="translate(1022.223011, 788.9883)"><g><path d="M 12.25 -19.5 C 12.25 -23.988281 12.457031 -28.859375 12.875 -34.109375 C 13.289062 -39.359375 13.414062 -44.441406 13.25 -49.359375 C 13.082031 -54.273438 12.039062 -58.566406 10.125 -62.234375 C 8.207031 -65.898438 4.832031 -68.398438 0 -69.734375 C 2 -69.734375 3.539062 -70.273438 4.625 -71.359375 C 5.707031 -72.441406 6.789062 -73.519531 7.875 -74.59375 C 8.957031 -75.675781 10.414062 -76.21875 12.25 -76.21875 L 12.25 -134.453125 C 10.582031 -134.453125 9.164062 -135.035156 8 -136.203125 C 6.832031 -137.367188 6.25 -138.785156 6.25 -140.453125 C 11.082031 -140.453125 15.332031 -141.828125 19 -144.578125 C 22.664062 -147.328125 26.160156 -150.367188 29.484375 -153.703125 C 32.648438 -150.367188 36.109375 -147.328125 39.859375 -144.578125 C 43.609375 -141.828125 47.898438 -140.453125 52.734375 -140.453125 C 52.734375 -138.785156 52.148438 -137.367188 50.984375 -136.203125 C 49.816406 -135.035156 48.316406 -134.453125 46.484375 -134.453125 C 46.484375 -131.285156 47.984375 -127.492188 50.984375 -123.078125 C 53.984375 -118.671875 57.816406 -113.925781 62.484375 -108.84375 C 67.148438 -103.757812 72.0625 -98.757812 77.21875 -93.84375 C 82.382812 -88.925781 87.300781 -84.34375 91.96875 -80.09375 C 96.632812 -75.851562 100.382812 -72.316406 103.21875 -69.484375 L 103.21875 -134.453125 C 101.550781 -134.453125 100.132812 -135.035156 98.96875 -136.203125 C 97.800781 -137.367188 97.21875 -138.785156 97.21875 -140.453125 C 102.050781 -140.453125 106.300781 -141.828125 109.96875 -144.578125 C 113.632812 -147.328125 117.132812 -150.367188 120.46875 -153.703125 C 123.625 -150.367188 127.078125 -147.328125 130.828125 -144.578125 C 134.578125 -141.828125 138.867188 -140.453125 143.703125 -140.453125 C 143.703125 -138.785156 143.117188 -137.367188 141.953125 -136.203125 C 140.785156 -135.035156 139.285156 -134.453125 137.453125 -134.453125 L 137.453125 -76.21875 C 139.453125 -76.21875 140.992188 -75.675781 142.078125 -74.59375 C 143.160156 -73.519531 144.242188 -72.441406 145.328125 -71.359375 C 146.410156 -70.273438 147.867188 -69.734375 149.703125 -69.734375 C 145.035156 -68.398438 141.703125 -65.941406 139.703125 -62.359375 C 137.703125 -58.773438 136.617188 -54.523438 136.453125 -49.609375 C 136.285156 -44.691406 136.410156 -39.566406 136.828125 -34.234375 C 137.242188 -28.898438 137.453125 -23.988281 137.453125 -19.5 C 139.285156 -19.5 140.785156 -18.914062 141.953125 -17.75 C 143.117188 -16.582031 143.703125 -15.164062 143.703125 -13.5 C 138.867188 -13.5 134.578125 -12.082031 130.828125 -9.25 C 127.078125 -6.414062 123.625 -3.332031 120.46875 0 C 117.132812 -3.332031 113.632812 -6.414062 109.96875 -9.25 C 106.300781 -12.082031 102.050781 -13.5 97.21875 -13.5 C 97.21875 -15.164062 97.800781 -16.582031 98.96875 -17.75 C 100.132812 -18.914062 101.550781 -19.5 103.21875 -19.5 C 103.21875 -23.15625 101.507812 -27.316406 98.09375 -31.984375 C 94.675781 -36.648438 90.507812 -41.484375 85.59375 -46.484375 C 80.675781 -51.484375 75.757812 -56.191406 70.84375 -60.609375 C 65.9375 -65.023438 61.984375 -68.734375 58.984375 -71.734375 L 46.484375 -84.21875 L 46.484375 -19.5 C 48.316406 -19.5 49.816406 -18.914062 50.984375 -17.75 C 52.148438 -16.582031 52.734375 -15.164062 52.734375 -13.5 C 47.898438 -13.5 43.609375 -12.082031 39.859375 -9.25 C 36.109375 -6.414062 32.648438 -3.332031 29.484375 0 C 26.160156 -3.332031 22.664062 -6.414062 19 -9.25 C 15.332031 -12.082031 11.082031 -13.5 6.25 -13.5 C 6.25 -15.164062 6.832031 -16.582031 8 -17.75 C 9.164062 -18.914062 10.582031 -19.5 12.25 -19.5 Z M 12.25 -19.5 "/></g></g></g><g fill="#ffffff" fill-opacity="1"><g transform="translate(1169.177399, 788.9883)"><g><path d="M 46.484375 -93.21875 L 81.21875 -134.453125 C 79.550781 -134.453125 78.632812 -135.035156 78.46875 -136.203125 C 78.300781 -137.367188 78.96875 -138.785156 80.46875 -140.453125 C 85.300781 -140.453125 90.757812 -141.828125 96.84375 -144.578125 C 102.925781 -147.328125 108.882812 -150.367188 114.71875 -153.703125 C 115.21875 -150.367188 116.175781 -147.328125 117.59375 -144.578125 C 119.007812 -141.828125 122.128906 -140.453125 126.953125 -140.453125 C 125.460938 -138.785156 123.632812 -137.367188 121.46875 -136.203125 C 119.300781 -135.035156 117.382812 -134.453125 115.71875 -134.453125 L 66.984375 -76.96875 L 115.71875 -19.5 C 117.382812 -19.5 119.300781 -18.914062 121.46875 -17.75 C 123.632812 -16.582031 125.460938 -15.164062 126.953125 -13.5 C 122.128906 -13.5 119.007812 -12.082031 117.59375 -9.25 C 116.175781 -6.414062 115.21875 -3.332031 114.71875 0 C 108.882812 -3.332031 102.925781 -6.414062 96.84375 -9.25 C 90.757812 -12.082031 85.300781 -13.5 80.46875 -13.5 C 78.96875 -15.164062 78.300781 -16.582031 78.46875 -17.75 C 78.632812 -18.914062 79.550781 -19.5 81.21875 -19.5 L 49.984375 -56.734375 L 46.484375 -52.734375 L 46.484375 -19.5 C 48.316406 -19.5 49.816406 -18.914062 50.984375 -17.75 C 52.148438 -16.582031 52.734375 -15.164062 52.734375 -13.5 C 47.898438 -13.5 43.609375 -12.082031 39.859375 -9.25 C 36.109375 -6.414062 32.566406 -3.332031 29.234375 0 C 26.078125 -3.332031 22.625 -6.414062 18.875 -9.25 C 15.125 -12.082031 10.832031 -13.5 6 -13.5 C 6 -15.164062 6.582031 -16.582031 7.75 -17.75 C 8.914062 -18.914062 10.414062 -19.5 12.25 -19.5 C 12.25 -24.15625 12.457031 -29.109375 12.875 -34.359375 C 13.289062 -39.609375 13.414062 -44.691406 13.25 -49.609375 C 13.082031 -54.523438 12.039062 -58.816406 10.125 -62.484375 C 8.207031 -66.148438 4.832031 -68.648438 0 -69.984375 C 1.832031 -69.984375 3.289062 -70.523438 4.375 -71.609375 C 5.457031 -72.691406 6.582031 -73.769531 7.75 -74.84375 C 8.914062 -75.925781 10.414062 -76.46875 12.25 -76.46875 L 12.25 -134.453125 C 10.414062 -134.453125 8.914062 -135.035156 7.75 -136.203125 C 6.582031 -137.367188 6 -138.785156 6 -140.453125 C 10.832031 -140.453125 15.125 -141.828125 18.875 -144.578125 C 22.625 -147.328125 26.078125 -150.367188 29.234375 -153.703125 C 32.566406 -150.367188 36.109375 -147.328125 39.859375 -144.578125 C 43.609375 -141.828125 47.898438 -140.453125 52.734375 -140.453125 C 52.734375 -138.785156 52.148438 -137.367188 50.984375 -136.203125 C 49.816406 -135.035156 48.316406 -134.453125 46.484375 -134.453125 Z M 46.484375 -93.21875 "/></g></g></g><g fill="#ffffff" fill-opacity="1"><g transform="translate(720.939629, 1247.874817)"><g><path d="M 11.359375 -7.984375 L 3.5625 -10.015625 L 4.296875 -12.875 L 12.09375 -10.84375 Z M 11.359375 -7.984375 "/></g></g></g><g fill="#ffffff" fill-opacity="1"><g transform="translate(730.793522, 1250.432726)"><g/></g></g><g fill="#ffffff" fill-opacity="1"><g transform="translate(740.10747, 1252.76093)"><g><path d="M 3 0.59375 L 8.546875 -27.28125 L 15.203125 -25.953125 C 18.453125 -25.304688 20.773438 -23.785156 22.171875 -21.390625 C 23.566406 -19.003906 23.898438 -15.96875 23.171875 -12.28125 L 22.234375 -7.609375 C 21.503906 -3.910156 20.023438 -1.238281 17.796875 0.40625 C 15.566406 2.050781 12.71875 2.53125 9.25 1.84375 Z M 11.453125 -23.5625 L 7.109375 -1.703125 L 9.921875 -1.140625 C 12.390625 -0.648438 14.328125 -1 15.734375 -2.1875 C 17.148438 -3.375 18.148438 -5.347656 18.734375 -8.109375 L 19.71875 -13.0625 C 20.300781 -15.988281 20.160156 -18.253906 19.296875 -19.859375 C 18.441406 -21.460938 16.875 -22.488281 14.59375 -22.9375 Z M 11.453125 -23.5625 "/></g></g></g><g fill="#ffffff" fill-opacity="1"><g transform="translate(763.0808, 1257.276162)"><g><path d="M 18.421875 -10.546875 L 8.484375 -12.03125 L 7.015625 -2.0625 L 18.609375 -0.34375 L 18.15625 2.6875 L 3.03125 0.453125 L 7.203125 -27.65625 L 22.125 -25.4375 L 21.671875 -22.390625 L 10.28125 -24.09375 L 8.9375 -15.0625 L 18.875 -13.578125 Z M 18.421875 -10.546875 "/></g></g></g><g fill="#ffffff" fill-opacity="1"><g transform="translate(783.27668, 1260.2699)"><g><path d="M 16.125 -5.59375 C 16.269531 -7 16 -8.113281 15.3125 -8.9375 C 14.625 -9.769531 13.316406 -10.644531 11.390625 -11.5625 C 9.472656 -12.476562 8.023438 -13.378906 7.046875 -14.265625 C 6.078125 -15.160156 5.378906 -16.132812 4.953125 -17.1875 C 4.523438 -18.238281 4.378906 -19.410156 4.515625 -20.703125 C 4.742188 -22.941406 5.675781 -24.710938 7.3125 -26.015625 C 8.957031 -27.316406 10.992188 -27.847656 13.421875 -27.609375 C 15.078125 -27.441406 16.507812 -26.921875 17.71875 -26.046875 C 18.9375 -25.171875 19.832031 -24.035156 20.40625 -22.640625 C 20.976562 -21.253906 21.179688 -19.765625 21.015625 -18.171875 L 17.4375 -18.53125 C 17.613281 -20.289062 17.328125 -21.691406 16.578125 -22.734375 C 15.835938 -23.785156 14.679688 -24.390625 13.109375 -24.546875 C 11.660156 -24.691406 10.5 -24.398438 9.625 -23.671875 C 8.757812 -22.941406 8.253906 -21.851562 8.109375 -20.40625 C 7.992188 -19.21875 8.320312 -18.175781 9.09375 -17.28125 C 9.863281 -16.394531 11.109375 -15.546875 12.828125 -14.734375 C 15.523438 -13.523438 17.40625 -12.1875 18.46875 -10.71875 C 19.53125 -9.257812 19.953125 -7.441406 19.734375 -5.265625 C 19.492188 -2.972656 18.554688 -1.210938 16.921875 0.015625 C 15.296875 1.242188 13.195312 1.726562 10.625 1.46875 C 8.988281 1.300781 7.507812 0.789062 6.1875 -0.0625 C 4.875 -0.925781 3.882812 -2.046875 3.21875 -3.421875 C 2.550781 -4.804688 2.300781 -6.335938 2.46875 -8.015625 L 6.046875 -7.65625 C 5.867188 -5.914062 6.21875 -4.507812 7.09375 -3.4375 C 7.976562 -2.363281 9.257812 -1.742188 10.9375 -1.578125 C 12.507812 -1.421875 13.734375 -1.703125 14.609375 -2.421875 C 15.484375 -3.140625 15.988281 -4.195312 16.125 -5.59375 Z M 16.125 -5.59375 "/></g></g></g><g fill="#ffffff" fill-opacity="1"><g transform="translate(804.484828, 1262.428189)"><g><path d="M 3.0625 0.15625 L 4.515625 -28.234375 L 11.28125 -27.890625 C 14.59375 -27.722656 17.109375 -26.554688 18.828125 -24.390625 C 20.554688 -22.222656 21.328125 -19.265625 21.140625 -15.515625 L 20.90625 -10.75 C 20.707031 -6.988281 19.625 -4.128906 17.65625 -2.171875 C 15.695312 -0.222656 12.953125 0.660156 9.421875 0.484375 Z M 7.921875 -24.96875 L 6.78125 -2.71875 L 9.65625 -2.578125 C 12.164062 -2.453125 14.035156 -3.070312 15.265625 -4.4375 C 16.492188 -5.8125 17.195312 -7.910156 17.375 -10.734375 L 17.625 -15.78125 C 17.78125 -18.757812 17.316406 -20.976562 16.234375 -22.4375 C 15.148438 -23.894531 13.445312 -24.6875 11.125 -24.8125 Z M 7.921875 -24.96875 "/></g></g></g><g fill="#ffffff" fill-opacity="1"><g transform="translate(827.869481, 1263.572226)"><g><path d="M 16.71875 -13.109375 L 6.671875 -13.125 L 6.640625 -3.046875 L 18.359375 -3.015625 L 18.359375 0.046875 L 3.0625 0 L 3.125 -28.421875 L 18.21875 -28.375 L 18.21875 -25.296875 L 6.703125 -25.328125 L 6.671875 -16.1875 L 16.71875 -16.171875 Z M 16.71875 -13.109375 "/></g></g></g><g fill="#ffffff" fill-opacity="1"><g transform="translate(848.123561, 1263.52075)"><g/></g></g><g fill="#ffffff" fill-opacity="1"><g transform="translate(857.677786, 1263.304893)"><g><path d="M 18.140625 -1.171875 L 2.28125 -0.140625 L 2.109375 -2.734375 L 9.515625 -13.96875 C 10.617188 -15.695312 11.375 -17.101562 11.78125 -18.1875 C 12.1875 -19.28125 12.351562 -20.414062 12.28125 -21.59375 C 12.1875 -23.101562 11.753906 -24.300781 10.984375 -25.1875 C 10.222656 -26.082031 9.28125 -26.492188 8.15625 -26.421875 C 6.707031 -26.328125 5.617188 -25.757812 4.890625 -24.71875 C 4.171875 -23.675781 3.875 -22.21875 4 -20.34375 L 0.546875 -20.109375 C 0.378906 -22.722656 0.957031 -24.878906 2.28125 -26.578125 C 3.601562 -28.285156 5.5 -29.21875 7.96875 -29.375 C 10.21875 -29.519531 12.035156 -28.941406 13.421875 -27.640625 C 14.816406 -26.347656 15.585938 -24.550781 15.734375 -22.25 C 15.910156 -19.445312 14.660156 -16.035156 11.984375 -12.015625 L 6.203125 -3.359375 L 17.953125 -4.125 Z M 18.140625 -1.171875 "/></g></g></g><g fill="#ffffff" fill-opacity="1"><g transform="translate(877.919248, 1261.992714)"><g><path d="M 16.03125 -13.953125 C 16.488281 -9.796875 16.222656 -6.613281 15.234375 -4.40625 C 14.253906 -2.207031 12.460938 -0.96875 9.859375 -0.6875 C 7.347656 -0.40625 5.359375 -1.1875 3.890625 -3.03125 C 2.429688 -4.875 1.457031 -7.785156 0.96875 -11.765625 L 0.4375 -16.609375 C -0.0078125 -20.734375 0.265625 -23.875 1.265625 -26.03125 C 2.265625 -28.195312 4.054688 -29.425781 6.640625 -29.71875 C 9.191406 -30 11.179688 -29.238281 12.609375 -27.4375 C 14.035156 -25.644531 15 -22.800781 15.5 -18.90625 Z M 12.078125 -18.484375 C 11.742188 -21.484375 11.171875 -23.648438 10.359375 -24.984375 C 9.546875 -26.328125 8.414062 -26.921875 6.96875 -26.765625 C 5.5625 -26.609375 4.601562 -25.800781 4.09375 -24.34375 C 3.582031 -22.882812 3.46875 -20.75 3.75 -17.9375 L 4.390625 -12.125 C 4.722656 -9.132812 5.3125 -6.929688 6.15625 -5.515625 C 7 -4.097656 8.125 -3.46875 9.53125 -3.625 C 10.925781 -3.78125 11.878906 -4.597656 12.390625 -6.078125 C 12.898438 -7.554688 13.007812 -9.75 12.71875 -12.65625 Z M 12.078125 -18.484375 "/></g></g></g><g fill="#ffffff" fill-opacity="1"><g transform="translate(898.08071, 1259.767235)"><g><path d="M 17.953125 -2.796875 L 2.25 -0.34375 L 1.84375 -2.90625 L 8.21875 -14.765625 C 9.164062 -16.585938 9.789062 -18.0625 10.09375 -19.1875 C 10.40625 -20.3125 10.46875 -21.453125 10.28125 -22.609375 C 10.050781 -24.097656 9.515625 -25.253906 8.671875 -26.078125 C 7.828125 -26.898438 6.847656 -27.222656 5.734375 -27.046875 C 4.296875 -26.816406 3.265625 -26.148438 2.640625 -25.046875 C 2.023438 -23.953125 1.863281 -22.476562 2.15625 -20.625 L -1.265625 -20.09375 C -1.671875 -22.675781 -1.289062 -24.875 -0.125 -26.6875 C 1.03125 -28.5 2.832031 -29.597656 5.28125 -29.984375 C 7.507812 -30.328125 9.375 -29.914062 10.875 -28.75 C 12.375 -27.582031 13.300781 -25.863281 13.65625 -23.59375 C 14.09375 -20.8125 13.15625 -17.289062 10.84375 -13.03125 L 5.875 -3.90625 L 17.5 -5.71875 Z M 17.953125 -2.796875 "/></g></g></g><g fill="#ffffff" fill-opacity="1"><g transform="translate(918.121091, 1256.633113)"><g><path d="M 3.390625 -16.984375 L 5.5625 -17.421875 C 6.945312 -17.703125 7.925781 -18.34375 8.5 -19.34375 C 9.082031 -20.351562 9.222656 -21.59375 8.921875 -23.0625 C 8.265625 -26.332031 6.675781 -27.710938 4.15625 -27.203125 C 2.9375 -26.960938 2.070312 -26.332031 1.5625 -25.3125 C 1.050781 -24.300781 0.941406 -23.078125 1.234375 -21.640625 L -2.140625 -20.953125 C -2.597656 -23.191406 -2.289062 -25.171875 -1.21875 -26.890625 C -0.144531 -28.609375 1.445312 -29.679688 3.5625 -30.109375 C 5.757812 -30.554688 7.640625 -30.226562 9.203125 -29.125 C 10.765625 -28.019531 11.800781 -26.207031 12.3125 -23.6875 C 12.570312 -22.394531 12.476562 -21.125 12.03125 -19.875 C 11.59375 -18.625 10.890625 -17.625 9.921875 -16.875 C 12.753906 -16.4375 14.507812 -14.53125 15.1875 -11.15625 C 15.695312 -8.675781 15.40625 -6.554688 14.3125 -4.796875 C 13.226562 -3.035156 11.570312 -1.929688 9.34375 -1.484375 C 7.132812 -1.035156 5.207031 -1.375 3.5625 -2.5 C 1.925781 -3.625 0.867188 -5.363281 0.390625 -7.71875 L 3.78125 -8.40625 C 4.082031 -6.925781 4.675781 -5.820312 5.5625 -5.09375 C 6.445312 -4.375 7.507812 -4.140625 8.75 -4.390625 C 10.007812 -4.640625 10.925781 -5.265625 11.5 -6.265625 C 12.082031 -7.273438 12.195312 -8.65625 11.84375 -10.40625 C 11.164062 -13.78125 9.222656 -15.140625 6.015625 -14.484375 L 3.984375 -14.078125 Z M 3.390625 -16.984375 "/></g></g></g><g fill="#ffffff" fill-opacity="1"><g transform="translate(937.837445, 1252.546401)"><g/></g></g><g fill="#ffffff" fill-opacity="1"><g transform="translate(947.002671, 1250.374488)"><g><path d="M 6.015625 -12.515625 L -1.78125 -10.484375 L -2.515625 -13.34375 L 5.28125 -15.375 Z M 6.015625 -12.515625 "/></g></g></g></svg>